<?xml version="1.0" encoding="utf-8"?>
<!-- Generator: Adobe Illustrator 25.2.0, SVG Export Plug-In . SVG Version: 6.00 Build 0)  -->
<svg version="1.1" id="Layer_1" xmlns="http://www.w3.org/2000/svg" xmlns:xlink="http://www.w3.org/1999/xlink" x="0px" y="0px"
	 viewBox="0 0 660 1143.2" style="enable-background:new 0 0 660 1143.2;" xml:space="preserve">
<style type="text/css">
	.st0{fill:#9ed84b;}
</style>
<path class="st0" d="M0,554.2v69.3l0,0l0,0v69.3l0,0l0,0v69.3l0,0l60,34.6l0,0l60,34.6l60,34.6l60,34.6l60,34.6l0,0v-69.3l0,0l0,0
	v-69.3l0,0l0,0v-69.3l0,0l0,0v-69.3l0,0l0,0v-69.3l0,0L240,554l-60-34.6l-60-34.6l-60-34.6L0,415.7V485V554.2L0,554.2L0,554.2z
	 M240,762.1v69.3l-60-34.6l-60-34.6l0,0l60-34.6l60-34.6l0,0V762.1z M120,554.2l60,34.6l60,34.6L180,658l0,0l-60,34.6l0,0l-60,34.6
	v-69.3l0,0l0,0v-69.3l0,0l0,0v-69.3L120,554.2z"/>
</svg>
