<?xml version="1.0" encoding="utf-8"?>
<!-- Generator: Adobe Illustrator 25.2.0, SVG Export Plug-In . SVG Version: 6.00 Build 0)  -->
<svg version="1.1" id="Layer_1" xmlns="http://www.w3.org/2000/svg" xmlns:xlink="http://www.w3.org/1999/xlink" x="0px" y="0px"
	 viewBox="0 0 660 1143.2" style="enable-background:new 0 0 660 1143.2;" xml:space="preserve">
<style type="text/css">
	.st0{fill:#9ed84b;}
</style>
<polygon class="st0" points="60,519.4 120,554.1 120,623.4 120,623.4 120,692.6 120,692.7 120,761.9 120,761.9 60,727.3 60,727.3 
	60,727.3 0,692.6 0,761.9 0,761.9 60,796.6 60,796.6 60,796.6 120,831.2 180,865.8 240,900.5 300,935.1 300,935.1 300,865.9 
	300,865.8 240,831.2 180,796.6 180,727.3 180,727.3 180,658 180,658 180,588.7 180,519.4 120,484.8 120,484.8 60,450.2 0,415.5 
	0,484.8 0,484.8 "/>
</svg>
