<?xml version="1.0" encoding="utf-8"?>
<!-- Generator: Adobe Illustrator 25.2.0, SVG Export Plug-In . SVG Version: 6.00 Build 0)  -->
<svg version="1.1" id="Layer_1" xmlns="http://www.w3.org/2000/svg" xmlns:xlink="http://www.w3.org/1999/xlink" x="0px" y="0px"
	 viewBox="0 0 660 1143.2" style="enable-background:new 0 0 660 1143.2;" xml:space="preserve">
<style type="text/css">
	.st0{fill:#9ed84b;}
</style>
<polygon class="st0" points="360,416.1 360,485.3 360,485.3 360,485.3 360,554.6 360,554.6 420,589.3 420,589.3 480,623.9 
	480,623.9 540,658.5 600,693.2 660,727.8 660,727.8 660,658.5 660,658.5 600,623.9 540,589.3 540,589.3 480,554.6 480,554.6 
	420,520 420,520 420,520 420,450.7 480,485.3 480,485.3 540,520 540,520 600,554.6 600,554.6 660,589.3 660,589.3 660,520 660,520 
	660,520 660,450.7 660,450.7 660,450.7 660,381.4 660,381.4 600,346.8 540,312.1 480,277.5 420,242.8 420,242.8 360,208.2 
	360,277.5 420,312.1 480,346.8 540,381.4 600,416.1 600,485.3 540,450.7 480,416 420,381.4 360,346.8 360,416 "/>
</svg>
