<?xml version="1.0" encoding="utf-8"?>
<!-- Generator: Adobe Illustrator 25.2.0, SVG Export Plug-In . SVG Version: 6.00 Build 0)  -->
<svg version="1.1" id="Layer_1" xmlns="http://www.w3.org/2000/svg" xmlns:xlink="http://www.w3.org/1999/xlink" x="0px" y="0px"
	 viewBox="0 0 660 1143.2" style="enable-background:new 0 0 660 1143.2;" xml:space="preserve">
<style type="text/css">
	.st0{fill:#9ed84b;}
</style>
<polygon class="st0" points="660,866.4 660,866.4 660,797.1 660,797.1 600,762.5 600,831.7 600,901 540,866.4 480,831.7 420,797.1 
	420,727.8 420,658.5 420,658.5 360,623.9 360,693.2 360,693.2 360,762.5 360,831.7 360,831.8 420,866.4 420,866.4 420,866.4 
	480,901 480,901 480,901 540,935.7 540,935.7 540,935.7 600,970.3 600,970.3 600,970.3 600,1039.6 600,1039.6 600,1108.9 
	660,1143.5 660,1143.5 660,1074.2 660,1074.2 660,1074.2 660,1005 660,1005 660,1004.9 660,935.7 660,935.7 "/>
</svg>
