<?xml version="1.0" encoding="utf-8"?>
<!-- Generator: Adobe Illustrator 25.2.0, SVG Export Plug-In . SVG Version: 6.00 Build 0)  -->
<svg version="1.1" id="Layer_1" xmlns="http://www.w3.org/2000/svg" xmlns:xlink="http://www.w3.org/1999/xlink" x="0px" y="0px"
	 viewBox="0 0 660 1143.2" style="enable-background:new 0 0 660 1143.2;" xml:space="preserve">
<style type="text/css">
	.st0{fill:#9ed84b;}
</style>
<polygon class="st0" points="660,1073.7 600,1039.1 600,969.8 600,900.5 600,831.2 600,761.9 540,727.3 480,692.6 420,658 
	420,727.3 480,761.9 540,796.6 540,865.8 540,935.1 540,935.1 540,1004.4 540,1004.4 480,969.8 480,969.8 420,935.1 420,935.1 
	360,900.5 360,969.8 360,969.8 420,1004.4 420,1004.4 480,1039.1 540,1073.7 540,1073.7 600,1108.3 600,1108.3 660,1143 660,1143 
	"/>
</svg>
