<svg viewBox="0.26 0.26 799.6700000000001 799.44" xmlns="http://www.w3.org/2000/svg" width="2500" height="2499"><path d="M130.31.26h539.58c71.91 0 130.04 58.1 130.04 130v539.5c0 71.81-58.13 129.94-130.04 129.94H213.26l-1.52-344.41h-.23v-2.44c0-130.59 103.66-236.14 232-236.14 76.96 0 139.2 63.34 139.2 141.68 0 78.35-62.24 141.69-139.2 141.69-25.69 0-46.4-21.17-46.4-47.23 0-26.14 20.71-47.23 46.4-47.23 25.64 0 46.4-21.17 46.4-47.23 0-26.14-20.72-47.22-46.4-47.22-77.01 0-139.2 63.34-139.2 141.68 0 78.35 62.14 141.64 139.2 141.64 128.29 0 232-105.59 232-236.14 0-130.59-103.71-236.15-232-236.15-179.62 0-324.85 147.77-324.85 330.61v2.85h-.74l1.52 343.58C52.65 793.77.26 737.98.26 669.71v-539.5C.26 58.45 58.4.26 130.31.26z" fill="#18a497"/></svg>