<?xml version="1.0" encoding="utf-8"?>
<!-- Generator: Adobe Illustrator 25.2.0, SVG Export Plug-In . SVG Version: 6.00 Build 0)  -->
<svg version="1.1" id="Layer_1" xmlns="http://www.w3.org/2000/svg" xmlns:xlink="http://www.w3.org/1999/xlink" x="0px" y="0px"
	 viewBox="0 0 660 2563.4" style="enable-background:new 0 0 660 2563.4;" xml:space="preserve">
<style type="text/css">
	.st0{fill:#c6c6c6;}
</style>
<path class="st0" d="M60,727.5l60-34.6l60-34.6l60-34.6l60-34.6l0,0l60-34.6l0,0l60-34.6l0,0l60-34.6l0,0l60-34.6l60-34.6l60-34.6
	l-60-34.6l0,0l-60-34.6l0,0l-60-34.6l-60-34.6l0,0l-60-34.6l0,0l-60-34.6l0,0l-60-34.6l-60-34.6l-60-34.6L60,34.6l0,0L0,0v69.3v69.3
	v69.3l0,0l0,0v69.3l0,0l0,0v69.3l0,0l0,0v69.3l0,0V485l0,0v69.3v69.3v69.3l0,0v69.3L60,727.5L60,727.5z M120,485v-69.3l0,0v-69.3
	l0,0l0,0v-69.3l0,0l0,0v-69.3l60,34.6l60,34.6l60,34.6l0,0l60,34.6l60,34.6l-60,34.6l0,0l0,0L300,450l0,0l0,0l-60,35l-60,34.6
	l-60,34.6V485z M300,519.6L300,519.6L300,519.6L300,519.6z M360,485L360,485L360,485L360,485z"/>
</svg>
