<?xml version="1.0" encoding="utf-8"?>
<!-- Generator: Adobe Illustrator 25.2.0, SVG Export Plug-In . SVG Version: 6.00 Build 0)  -->
<svg version="1.1" id="Layer_1" xmlns="http://www.w3.org/2000/svg" xmlns:xlink="http://www.w3.org/1999/xlink" x="0px" y="0px"
	 viewBox="0 0 660 2563.4" style="enable-background:new 0 0 660 2563.4;" xml:space="preserve">
<style type="text/css">
	.st0{fill:#242424;}
</style>
<path class="st0" d="M660,1489.6v-69.3l0,0V1351l0,0l0,0l-60,34.6l-60,34.6l0,0l0,0l-60,34.6l0,0l0,0l-60,34.6l0,0l0,0l-60,34.6l0,0
	l-60,34.6l0,0l-60,34.6l-60,34.6l-60,34.6l0,0L60,1697l0,0l-60,35l0,0l60,34.6l0,0l60,34.6l60,34.6l60,34.6l60,34.6l0,0l0,0l60,34.6
	l0,0l0,0l60,34.6l0,0l0,0l60,34.6l0,0l60,34.6l60,34.6l60,34.6l0,0v-69.3l0,0l0,0V1974l0,0l0,0v-69.3v-69.3l0,0v-69.3l0,0v-69.3l0,0
	l0,0v-69.3l0,0l0,0v-69.3l0,0l0,0V1489.6L660,1489.6L660,1489.6z M540,1766.7v69.3v69.3l0,0l-60-34.6l0,0l0,0l-60-34.6l0,0l0,0
	l-60-34.6l0,0l-60-34.6l0,0l-60-34.6l60-34.6l0,0l60-34.6l0,0l60-34.6l0,0l60-34.6l0,0l60-34.6v69.3l0,0v69.3l0,0V1766.7z
	 M540,1489.6L540,1489.6L540,1489.6L540,1489.6z M300,1836L300,1836L300,1836L300,1836z"/>
</svg>
