<?xml version="1.0" encoding="utf-8"?>
<!-- Generator: Adobe Illustrator 25.2.0, SVG Export Plug-In . SVG Version: 6.00 Build 0)  -->
<svg version="1.1" id="Layer_1" xmlns="http://www.w3.org/2000/svg" xmlns:xlink="http://www.w3.org/1999/xlink" x="0px" y="0px"
	 viewBox="0 0 660 2563.4" style="enable-background:new 0 0 660 2563.4;" xml:space="preserve">
<style type="text/css">
	.st0{fill:#242424;}
</style>
<path class="st0" d="M540,2113.1l-60-34.6l-60-34.6l0,0l-60-34.6l0,0l0,0l-60-34.6l0,0l0,0l-60-34.6l-60-34.6l-60-34.6L60,1836
	l-60-34.6v69.3v69.3v69.3l0,0v69.3l0,0v69.3l0,0v69.3l0,0l0,0v69.3l0,0v69.3l0,0v69.3v69.3l0,0v69.3l60-34.6l0,0l60-34.6l60-34.6
	l60-34.6l60-34.6l60-34.6l0,0l60-34.6l0,0l60-34.6l0,0l60-34.6l60-34.6l60-34.6l-60-34.6L540,2113.1z M360,2217L360,2217L360,2217
	l-60,34.6l0,0l0,0l-60,34.6l0,0l-60,34.6l0,0l-60,34.6v-69.3l0,0v-69.3l0,0v-69.3l0,0l0,0v-69.3l0,0l0,0v-69.3l60,34.6l60,34.6
	l60,34.6l0,0l60,34.6l0,0l60,34.6L360,2217z M60,2043.8L60,2043.8L60,2043.8L60,2043.8z M60,2113.1L60,2113.1L60,2113.1L60,2113.1z
	 M60,2182.4L60,2182.4L60,2182.4L60,2182.4z M300,2320.9L300,2320.9L300,2320.9L300,2320.9z"/>
</svg>
