<?xml version="1.0" encoding="utf-8"?>
<!-- Generator: Adobe Illustrator 25.2.0, SVG Export Plug-In . SVG Version: 6.00 Build 0)  -->
<svg version="1.1" id="Layer_1" xmlns="http://www.w3.org/2000/svg" xmlns:xlink="http://www.w3.org/1999/xlink" x="0px" y="0px"
	 viewBox="0 0 660 1143.2" style="enable-background:new 0 0 660 1143.2;" xml:space="preserve">
<style type="text/css">
	.st0{fill:#242424;}
</style>
<polygon class="st0" points="420,727.4 480,762.1 480,831.4 480,831.4 480,900.6 480,900.7 480,969.9 480,969.9 420,935.3 
	420,935.3 420,935.3 360,900.6 360,969.9 360,969.9 420,1004.6 420,1004.6 420,1004.6 480,1039.2 540,1073.8 600,1108.5 660,1143.1 
	660,1143.1 660,1073.9 660,1073.8 600,1039.2 540,1004.6 540,935.3 540,935.3 540,866 540,866 540,796.7 540,727.4 480,692.8 
	480,692.8 420,658.2 360,623.5 360,692.8 360,692.8 "/>
</svg>
