<?xml version="1.0" encoding="utf-8"?>
<!-- Generator: Adobe Illustrator 25.2.0, SVG Export Plug-In . SVG Version: 6.00 Build 0)  -->
<svg version="1.1" id="Layer_1" xmlns="http://www.w3.org/2000/svg" xmlns:xlink="http://www.w3.org/1999/xlink" x="0px" y="0px"
	 viewBox="0 0 660 1143.2" style="enable-background:new 0 0 660 1143.2;" xml:space="preserve">
<style type="text/css">
	.st0{fill:#c6c6c6;}
</style>
<polygon class="st0" points="300,658.4 300,658.4 300,589.1 300,589.1 240,554.5 240,623.7 240,693 180,658.4 120,623.7 60,589.1 
	60,519.8 60,450.5 60,450.5 0,415.9 0,485.2 0,485.2 0,554.5 0,623.7 0,623.8 60,658.4 60,658.4 60,658.4 120,693 120,693 120,693 
	180,727.7 180,727.7 180,727.7 240,762.3 240,762.3 240,762.3 240,831.6 240,831.6 240,900.9 300,935.5 300,935.5 300,866.2 
	300,866.2 300,866.2 300,797 300,797 300,796.9 300,727.7 300,727.7 "/>
</svg>
