<?xml version="1.0" encoding="utf-8"?>
<!-- Generator: Adobe Illustrator 25.2.0, SVG Export Plug-In . SVG Version: 6.00 Build 0)  -->
<svg version="1.1" id="Layer_1" xmlns="http://www.w3.org/2000/svg" xmlns:xlink="http://www.w3.org/1999/xlink" x="0px" y="0px"
	 viewBox="0 0 660 1143.2" style="enable-background:new 0 0 660 1143.2;" xml:space="preserve">
<style type="text/css">
	.st0{fill:#242424;}
</style>
<path class="st0" d="M0,554.1L0,554.1v69.3v69.3l0,0V762l0,0l60,34.6l0,0l0,0l60,34.6l0,0l0,0l60,34.6l60,34.6l60,34.6l0,0v-69.3
	l0,0l0,0v-69.3v-69.3l0,0l-60-34.6l-60-34.6l-60-34.6l-60-34.6l0,0v-69.3l60,34.6l0,0l60,34.6l0,0l60,34.6l60,34.6v-69.3l0,0
	l-60-34.6l0,0l-60-34.6l0,0l-60-34.6l-60-34.6l0,0L0,415.6v69.3l0,0l0,0V554.1z M120,692.7l60,34.6l60,34.6v69.3l-60-34.6l0,0l0,0
	L120,762l0,0l0,0l-60-34.6l0,0v-69.3L120,692.7z"/>
</svg>
