<?xml version="1.0" encoding="utf-8"?>
<!-- Generator: Adobe Illustrator 25.2.0, SVG Export Plug-In . SVG Version: 6.00 Build 0)  -->
<svg version="1.1" id="Layer_1" xmlns="http://www.w3.org/2000/svg" xmlns:xlink="http://www.w3.org/1999/xlink" x="0px" y="0px"
	 viewBox="0 0 660 1143.2" style="enable-background:new 0 0 660 1143.2;" xml:space="preserve">
<style type="text/css">
	.st0{fill:#242424;}
</style>
<polygon class="st0" points="660,657.7 600,623.1 600,553.8 600,484.5 600,415.2 600,345.9 540,311.3 480,276.6 420,242 420,311.3 
	480,345.9 540,380.6 540,449.8 540,519.1 540,519.1 540,588.4 540,588.4 480,553.8 480,553.8 420,519.1 420,519.1 360,484.5 
	360,553.8 360,553.8 420,588.4 420,588.4 480,623.1 540,657.7 540,657.7 600,692.3 600,692.3 660,727 660,727 "/>
</svg>
