<?xml version="1.0" encoding="utf-8"?>
<!-- Generator: Adobe Illustrator 25.2.0, SVG Export Plug-In . SVG Version: 6.00 Build 0)  -->
<svg version="1.1" id="Layer_1" xmlns="http://www.w3.org/2000/svg" xmlns:xlink="http://www.w3.org/1999/xlink" x="0px" y="0px"
	 viewBox="0 0 660 1143.1" style="enable-background:new 0 0 660 1143.1;" xml:space="preserve">
<style type="text/css">
	.st0{fill:#D84B4F;}
</style>
<polygon class="st0" points="360,519.9 420,485.3 480,450.7 540,416 600,381.4 660,346.7 660,277.5 660,277.5 600,312.1 600,242.8 
	600,242.8 600,242.8 600,173.5 600,104.3 600,35 540,69.6 480,104.3 480,104.3 420,138.9 420,138.9 420,208.2 480,173.5 480,173.5 
	540,138.9 540,208.2 540,208.2 540,208.2 540,277.5 540,277.5 540,277.5 540,346.7 480,381.4 420,416 360,450.7 360,450.7 "/>
</svg>
