<?xml version="1.0" encoding="utf-8"?>
<!-- Generator: Adobe Illustrator 25.2.0, SVG Export Plug-In . SVG Version: 6.00 Build 0)  -->
<svg version="1.1" id="Layer_1" xmlns="http://www.w3.org/2000/svg" xmlns:xlink="http://www.w3.org/1999/xlink" x="0px" y="0px"
	 viewBox="0 0 660 1143.1" style="enable-background:new 0 0 660 1143.1;" xml:space="preserve">
<style type="text/css">
	.st0{fill:#D84B4F;}
</style>
<polygon class="st0" points="0,1144.9 60,1110.3 120,1075.7 180,1041 240,1006.4 300,971.7 300,902.5 300,902.5 240,937.1 
	240,867.8 240,867.8 240,867.8 240,798.5 240,729.3 240,660 180,694.6 120,729.3 120,729.3 60,763.9 60,763.9 60,833.2 120,798.5 
	120,798.5 180,763.9 180,833.2 180,833.2 180,833.2 180,902.5 180,902.5 180,902.5 180,971.7 120,1006.4 60,1041 0,1075.7 0,1075.7 
	"/>
</svg>
