<?xml version="1.0" encoding="utf-8"?>
<!-- Generator: Adobe Illustrator 25.2.0, SVG Export Plug-In . SVG Version: 6.00 Build 0)  -->
<svg version="1.1" id="Layer_1" xmlns="http://www.w3.org/2000/svg" xmlns:xlink="http://www.w3.org/1999/xlink" x="0px" y="0px"
	 viewBox="0 0 660 1143.1" style="enable-background:new 0 0 660 1143.1;" xml:space="preserve">
<style type="text/css">
	.st0{fill:#D84B4F;}
</style>
<polygon class="st0" points="360,934.9 420,900.3 480,865.7 540,831 600,796.4 660,761.7 660,692.5 660,692.5 600,727.1 600,657.8 
	600,657.8 600,657.8 600,588.5 600,519.3 600,450 540,484.6 480,519.3 480,519.3 420,553.9 420,553.9 420,623.2 480,588.5 
	480,588.5 540,553.9 540,623.2 540,623.2 540,623.2 540,692.5 540,692.5 540,692.5 540,761.7 480,796.4 420,831 360,865.7 
	360,865.7 "/>
</svg>
