<?xml version="1.0" encoding="utf-8"?>
<!-- Generator: Adobe Illustrator 25.2.0, SVG Export Plug-In . SVG Version: 6.00 Build 0)  -->
<svg version="1.1" id="Layer_1" xmlns="http://www.w3.org/2000/svg" xmlns:xlink="http://www.w3.org/1999/xlink" x="0px" y="0px"
	 viewBox="0 0 660 1143.1" style="enable-background:new 0 0 660 1143.1;" xml:space="preserve">
<style type="text/css">
	.st0{fill:#D84B4F;}
</style>
<polygon class="st0" points="660,692.6 660,623.3 660,623.3 660,623.3 660,554 660,484.8 600,450.1 540,484.8 480,519.4 480,519.4 
	480,519.4 420,554 420,554.1 420,554.1 360,588.7 360,658 420,623.3 420,623.3 480,588.7 480,588.7 540,554.1 540,554 600,519.4 
	600,588.7 600,588.7 600,588.7 540,623.3 540,623.3 540,623.3 480,658 480,658 480,658 420,692.6 420,692.6 420,761.9 480,727.3 
	480,727.2 540,692.6 540,692.6 600,658 600,658 600,658 600,727.3 600,727.3 540,761.9 540,761.9 480,796.5 480,796.5 420,831.2 
	420,831.2 360,865.8 360,935.1 420,900.5 420,900.5 480,865.8 480,865.8 540,831.2 540,831.2 600,796.5 600,796.5 660,761.9 
	660,761.9 660,692.6 "/>
</svg>
