<?xml version="1.0" encoding="utf-8"?>
<!-- Generator: Adobe Illustrator 25.2.0, SVG Export Plug-In . SVG Version: 6.00 Build 0)  -->
<svg version="1.1" id="Layer_1" xmlns="http://www.w3.org/2000/svg" xmlns:xlink="http://www.w3.org/1999/xlink" x="0px" y="0px"
	 viewBox="0 0 660 1143.1" style="enable-background:new 0 0 660 1143.1;" xml:space="preserve">
<style type="text/css">
	.st0{fill:#D84B4F;}
</style>
<polygon class="st0" points="60,831.9 60,831.9 120,797.2 120,797.2 180,762.6 240,727.9 240,797.2 180,831.9 180,831.9 180,901.1 
	240,866.5 240,866.5 240,866.5 240,935.8 240,935.8 240,1005.1 300,970.4 300,970.4 300,901.2 300,901.2 300,901.2 300,831.9 
	300,762.6 300,693.3 240,658.7 180,693.3 120,727.9 60,762.6 60,762.6 60,762.6 0,797.2 0,797.2 0,866.5 "/>
</svg>
