<?xml version="1.0" encoding="utf-8"?>
<!-- Generator: Adobe Illustrator 25.2.0, SVG Export Plug-In . SVG Version: 6.00 Build 0)  -->
<svg version="1.1" id="Layer_1" xmlns="http://www.w3.org/2000/svg" xmlns:xlink="http://www.w3.org/1999/xlink" x="0px" y="0px"
	 viewBox="0 0 660 1143.1" style="enable-background:new 0 0 660 1143.1;" xml:space="preserve">
<style type="text/css">
	.st0{fill:#D84B4F;}
</style>
<polygon class="st0" points="420,623.9 420,623.9 480,589.2 480,589.2 540,554.6 600,519.9 600,589.2 540,623.9 540,623.9 
	540,693.1 600,658.5 600,658.5 600,658.5 600,727.8 600,727.8 600,797.1 660,762.4 660,762.4 660,693.2 660,693.2 660,693.2 
	660,623.9 660,554.6 660,485.3 600,450.7 540,485.3 480,519.9 420,554.6 420,554.6 420,554.6 360,589.2 360,589.2 360,658.5 "/>
</svg>
