<?xml version="1.0" encoding="utf-8"?>
<!-- Generator: Adobe Illustrator 25.2.0, SVG Export Plug-In . SVG Version: 6.00 Build 0)  -->
<svg version="1.1" id="Layer_1" xmlns="http://www.w3.org/2000/svg" xmlns:xlink="http://www.w3.org/1999/xlink" x="0px" y="0px"
	 viewBox="0 0 660 1143.1" style="enable-background:new 0 0 660 1143.1;" xml:space="preserve">
<style type="text/css">
	.st0{fill:#D84B4F;}
</style>
<path class="st0" d="M300,485.3l-60-34.6l0,0l60-34.6v-69.3v-69.3l-60-34.6l0,0l-60,34.6l0,0l-60,34.6l-60,34.6l0,0l0,0L0,381.4
	v69.3l60,34.6l0,0l0,0l0,0L0,519.9v69.3v69.3l60,34.6l0,0l60-34.6l0,0l60-34.6l0,0l60-34.6l0,0l60-34.6V485.3L300,485.3L300,485.3z
	 M60,416L60,416L60,416l60-34.6l0,0l60-34.6l60-34.6v69.3L180,416l0,0l-60,34.6l0,0L60,416z M180,554.6l-60,34.6l0,0l-60,34.6v-69.3
	l0,0l60-34.6l0,0l60-34.6l0,0l0,0l60,34.6L180,554.6L180,554.6z"/>
</svg>
