<?xml version="1.0" encoding="utf-8"?>
<!-- Generator: Adobe Illustrator 25.2.0, SVG Export Plug-In . SVG Version: 6.00 Build 0)  -->
<svg version="1.1" id="Layer_1" xmlns="http://www.w3.org/2000/svg" xmlns:xlink="http://www.w3.org/1999/xlink" x="0px" y="0px"
	 viewBox="0 0 660 1143.1" style="enable-background:new 0 0 660 1143.1;" xml:space="preserve">
<style type="text/css">
	.st0{fill:#D84B4F;}
</style>
<path class="st0" d="M660,277.3l-60-34.6l0,0l60-34.6v-69.3V69.5l-60-34.6l0,0l-60,34.6l0,0l-60,34.6l-60,34.6l0,0l0,0l-60,34.6
	v69.3l60,34.6l0,0l0,0l0,0l-60,34.6v69.3v69.3l60,34.6l0,0l60-34.6l0,0l60-34.6l0,0l60-34.6l0,0l60-34.6V277.3L660,277.3L660,277.3z
	 M420,208L420,208L420,208l60-34.6l0,0l60-34.6l60-34.6v69.3L540,208l0,0l-60,34.6l0,0L420,208z M540,346.6l-60,34.6l0,0l-60,34.6
	v-69.3l0,0l60-34.6l0,0l60-34.6l0,0l0,0l60,34.6L540,346.6L540,346.6z"/>
</svg>
