<?xml version="1.0" encoding="utf-8"?>
<!-- Generator: Adobe Illustrator 25.2.0, SVG Export Plug-In . SVG Version: 6.00 Build 0)  -->
<svg version="1.1" id="Layer_1" xmlns="http://www.w3.org/2000/svg" xmlns:xlink="http://www.w3.org/1999/xlink" x="0px" y="0px"
	 viewBox="0 0 660 1143.1" style="enable-background:new 0 0 660 1143.1;" xml:space="preserve">
<style type="text/css">
	.st0{fill:#c6c6c6;}
</style>
<polygon class="st0" points="479.8,380.7 419.8,415.4 359.8,450 359.8,450 359.8,519.3 419.8,484.7 479.8,450 539.8,415.4 
	599.8,380.7 659.8,346.1 659.8,276.8 659.8,276.8 599.8,311.5 599.8,242.2 599.8,242.2 599.8,242.2 599.8,172.9 599.8,103.6 
	599.8,34.3 539.8,69 479.8,103.6 479.8,103.6 419.8,138.2 419.8,138.3 419.8,207.5 479.8,172.9 479.8,172.9 539.8,138.2 
	539.8,207.5 539.8,207.5 539.8,207.5 539.8,276.8 539.8,276.8 539.8,276.8 539.8,346.1 "/>
</svg>
