<?xml version="1.0" encoding="utf-8"?>
<!-- Generator: Adobe Illustrator 25.2.0, SVG Export Plug-In . SVG Version: 6.00 Build 0)  -->
<svg version="1.1" id="Layer_1" xmlns="http://www.w3.org/2000/svg" xmlns:xlink="http://www.w3.org/1999/xlink" x="0px" y="0px"
	 viewBox="0 0 660 1143.2" style="enable-background:new 0 0 660 1143.2;" xml:space="preserve">
<style type="text/css">
	.st0{fill:#D84B4F;}
</style>
<polygon class="st0" points="600,727.5 540,762.1 540,762.1 480,796.7 480,796.7 480,796.7 420,831.4 420,831.4 360,866 300,900.7 
	240,935.3 240,935.3 180,969.9 180,970 180,970 120,1004.6 120,1004.6 120,1004.6 60,1039.2 0,1073.9 0,1143.2 60,1108.5 
	120,1073.9 120,1073.9 180,1039.2 180,1039.2 240,1004.6 240,1004.6 300,970 300,969.9 360,935.3 420,900.7 480,866 540,831.4 
	540,831.4 600,796.7 600,796.7 660,762.1 660,762.1 660,692.8 "/>
</svg>
