<?xml version="1.0" encoding="utf-8"?>
<!-- Generator: Adobe Illustrator 25.2.0, SVG Export Plug-In . SVG Version: 6.00 Build 0)  -->
<svg version="1.1" id="Layer_1" xmlns="http://www.w3.org/2000/svg" xmlns:xlink="http://www.w3.org/1999/xlink" x="0px" y="0px"
	 viewBox="0 0 66 58.9" style="enable-background:new 0 0 66 58.9;" xml:space="preserve">
<style type="text/css">
	.st0{fill:#9ed84b;}
</style>
<polygon class="st0" points="60,10.4 54,13.9 54,13.9 54,13.9 48,17.3 48,17.3 42,20.8 42,20.8 36,24.2 36,24.2 30,27.7 30,27.7 
	24,31.2 18,34.6 18,34.6 18,34.6 12,38.1 12,38.1 12,38.1 6,41.6 6,41.6 6,41.6 0,45 0,45 0,38.1 0,38.1 0,38.1 6,34.6 6,34.6 
	6,34.6 12,31.2 12,31.2 18,27.7 18,27.7 24,24.2 24,24.2 30,20.8 30,20.8 36,17.3 36,17.3 42,13.9 42,13.9 48,10.4 48,10.4 54,6.9 
	54,6.9 60,3.5 60,3.5 66,0 66,6.9 "/>
</svg>
