<?xml version="1.0" encoding="utf-8"?>
<!-- Generator: Adobe Illustrator 25.2.0, SVG Export Plug-In . SVG Version: 6.00 Build 0)  -->
<svg version="1.1" id="Layer_1" xmlns="http://www.w3.org/2000/svg" xmlns:xlink="http://www.w3.org/1999/xlink" x="0px" y="0px"
	 viewBox="0 0 66 58.9" style="enable-background:new 0 0 66 58.9;" xml:space="preserve">
<style type="text/css">
	.st0{fill:#9ed84b;}
</style>
<polygon class="st0" points="0,52 6,48.5 6,48.5 6,48.5 12,45 12,45 12,45 18,41.6 18,41.6 24,38.1 30,34.6 36,31.2 36,31.2 
	42,27.7 42,27.7 48,24.2 48,24.2 54,20.8 54,20.8 60,17.3 60,17.3 66,13.9 66,13.9 66,20.8 60,24.2 60,24.2 54,27.7 54,27.7 
	48,31.2 48,31.2 42,34.6 42,34.6 36,38.1 30,41.6 24,45 18,48.5 18,48.5 18,48.5 12,52 12,52 12,52 6,55.4 6,55.4 6,55.4 0,58.9 
	0,58.9 0,52 "/>
</svg>
