<?xml version="1.0" encoding="UTF-8" standalone="no"?>
<!-- Generator: Adobe Illustrator 25.2.0, SVG Export Plug-In . SVG Version: 6.00 Build 0)  -->

<svg
   version="1.1"
   id="Layer_1"
   x="0px"
   y="0px"
   viewBox="0 0 66 58.8"
   style="enable-background:new 0 0 66 58.8;"
   xml:space="preserve"
   sodipodi:docname="bwa3.svg"
   inkscape:version="1.2.1 (9c6d41e410, 2022-07-14)"
   xmlns:inkscape="http://www.inkscape.org/namespaces/inkscape"
   xmlns:sodipodi="http://sodipodi.sourceforge.net/DTD/sodipodi-0.dtd"
   xmlns="http://www.w3.org/2000/svg"
   xmlns:svg="http://www.w3.org/2000/svg"><defs
   id="defs9" /><sodipodi:namedview
   id="namedview7"
   pagecolor="#242424"
   bordercolor="#242424"
   borderopacity="0.25"
   inkscape:showpageshadow="2"
   inkscape:pageopacity="0.0"
   inkscape:pagecheckerboard="0"
   inkscape:deskcolor="#242424"
   showgrid="false"
   inkscape:zoom="14.863946"
   inkscape:cx="33.032952"
   inkscape:cy="24.085126"
   inkscape:window-width="1806"
   inkscape:window-height="1044"
   inkscape:window-x="93"
   inkscape:window-y="15"
   inkscape:window-maximized="1"
   inkscape:current-layer="Layer_1" />
<style
   type="text/css"
   id="style2">
	.st0{fill:#242424;}
</style>
<path
   class="st0"
   d="m 66,45 c 0,-0.6 0,-6.9 0,-6.9 v 0 l -6,-3.5 v 0 l -6,-3.5 v 0 C 38.2,22 21.8,12.5 6,3.4 v 0 L 0,0 v 0 6.9 0 0 6.9 0 0 6.9 l 6,3.5 v 0 c 13.7,7.9 28.3,16.3 42,24.2 v 0 l 6,3.5 v 0 l 6,3.5 v 0 l 6,3.5 v 0 c 0,0 0,-6.8 0,-6.9 0,-0.6 0,-6.9 0,-7 z"
   id="path4" />
</svg>
