<?xml version="1.0" encoding="utf-8"?>
<!-- Generator: Adobe Illustrator 25.2.0, SVG Export Plug-In . SVG Version: 6.00 Build 0)  -->
<svg version="1.1" id="Layer_1" xmlns="http://www.w3.org/2000/svg" xmlns:xlink="http://www.w3.org/1999/xlink" x="0px" y="0px"
	 viewBox="0 0 660 588.9" style="enable-background:new 0 0 660 588.9;" xml:space="preserve">
<style type="text/css">
	.st0{fill:#d8af4b;}
</style>
<polygon class="st0" points="60,103.9 120,138.6 120,138.6 120,138.6 180,173.2 180,173.2 240,207.8 240,207.8 300,242.5 300,242.5 
	360,277.1 360,277.1 420,311.8 480,346.4 480,346.4 480,346.4 540,381 540,381 540,381.1 600,415.7 600,415.7 600,415.7 660,450.3 
	660,450.3 660,381.1 660,381 660,381 600,346.4 600,346.4 600,346.4 540,311.8 540,311.8 480,277.1 480,277.1 420,242.5 420,242.5 
	360,207.8 360,207.8 300,173.2 300,173.2 240,138.6 240,138.6 180,103.9 180,103.9 120,69.3 120,69.3 60,34.6 60,34.6 0,0 0,69.3 
	"/>
</svg>
