<?xml version="1.0" encoding="utf-8"?>
<!-- Generator: Adobe Illustrator 25.2.0, SVG Export Plug-In . SVG Version: 6.00 Build 0)  -->
<svg version="1.1" id="Layer_1" xmlns="http://www.w3.org/2000/svg" xmlns:xlink="http://www.w3.org/1999/xlink" x="0px" y="0px"
	 viewBox="0 0 660 588.9" style="enable-background:new 0 0 660 588.9;" xml:space="preserve">
<style type="text/css">
	.st0{fill:#D84B4F;}
</style>
<polygon class="st0" points="660,519.6 660,519.6 600,485 600,485 600,485 540,450.3 540,450.3 540,450.3 480,415.7 480,415.7 
	420,381 360,346.4 300,311.8 300,311.8 240,277.1 240,277.1 180,242.5 180,242.5 120,207.8 120,207.8 60,173.2 60,173.2 0,138.6 
	0,138.6 0,207.8 60,242.5 60,242.5 120,277.1 120,277.1 180,311.8 180,311.8 240,346.4 240,346.4 300,381 360,415.7 420,450.3 
	480,485 480,485 480,485 540,519.6 540,519.6 540,519.6 600,554.3 600,554.2 600,554.3 660,588.9 660,588.9 "/>
</svg>
