<?xml version="1.0" encoding="utf-8"?>
<!-- Generator: Adobe Illustrator 25.2.0, SVG Export Plug-In . SVG Version: 6.00 Build 0)  -->
<svg version="1.1" id="Layer_1" xmlns="http://www.w3.org/2000/svg" xmlns:xlink="http://www.w3.org/1999/xlink" x="0px" y="0px"
	 viewBox="0 0 660 1143.1" style="enable-background:new 0 0 660 1143.1;" xml:space="preserve">
<style type="text/css">
	.st0{fill:#9ed84b;}
</style>
<polygon id="_x31_" class="st0" points="60,1039 0,1073.7 0,1073.7 0,1142.9 60,1108.3 120,1073.7 180,1039 240,1004.4 300,969.7 
	300,900.5 300,900.5 240,935.1 180,969.7 180,900.5 180,900.5 180,900.5 180,831.2 180,831.2 180,831.2 180,761.9 180,692.6 
	120,727.3 120,727.3 60,761.9 60,761.9 60,761.9 0,796.5 0,796.5 0,865.8 60,831.2 60,831.2 120,796.5 120,796.5 120,865.8 
	120,865.8 120,865.8 120,935.1 120,935.1 120,1004.4 "/>
</svg>
