<?xml version="1.0" encoding="utf-8"?>
<!-- Generator: Adobe Illustrator 25.2.0, SVG Export Plug-In . SVG Version: 6.00 Build 0)  -->
<svg version="1.1" id="Layer_1" xmlns="http://www.w3.org/2000/svg" xmlns:xlink="http://www.w3.org/1999/xlink" x="0px" y="0px"
	 viewBox="0 0 660 1143.1" style="enable-background:new 0 0 660 1143.1;" xml:space="preserve">
<style type="text/css">
	.st0{fill:#9ed84b;}
</style>
<polygon id="_x33_" class="st0" points="659.8,277.1 659.8,207.8 659.8,207.8 659.8,207.8 659.8,138.5 659.8,69.3 659.8,0 
	599.8,34.6 539.8,69.3 479.8,103.9 479.8,103.9 479.8,103.9 419.8,138.5 419.8,138.6 419.8,138.6 359.8,173.2 359.8,242.5 
	419.8,207.8 419.8,207.8 479.8,173.2 479.8,173.2 539.8,138.6 539.8,138.5 599.8,103.9 599.8,173.2 599.8,173.2 599.8,173.2 
	539.8,207.8 539.8,207.8 539.8,207.8 479.8,242.5 479.8,242.5 479.8,242.5 419.8,277.1 419.8,277.1 419.8,346.4 479.8,311.8 
	479.8,311.8 539.8,277.1 539.8,277.1 599.8,242.5 599.8,242.5 599.8,242.5 599.8,311.8 599.8,311.8 539.8,346.4 539.8,346.4 
	479.8,381 479.8,381 419.8,415.7 419.8,415.7 359.8,450.3 359.8,519.6 419.8,485 419.8,485 479.8,450.3 479.8,450.3 539.8,415.7 
	539.8,415.7 599.8,381 599.8,381 659.8,346.4 659.8,346.4 659.8,277.1 "/>
</svg>
