<?xml version="1.0" encoding="utf-8"?>
<!-- Generator: Adobe Illustrator 25.2.0, SVG Export Plug-In . SVG Version: 6.00 Build 0)  -->
<svg version="1.1" id="Layer_1" xmlns="http://www.w3.org/2000/svg" xmlns:xlink="http://www.w3.org/1999/xlink" x="0px" y="0px"
	 viewBox="0 0 660 1143.1" style="enable-background:new 0 0 660 1143.1;" xml:space="preserve">
<style type="text/css">
	.st0{fill:#D84B4F;}
</style>
<polygon id="_x37__1_" class="st0" points="419.8,208 419.8,208 479.8,173.4 479.8,173.4 539.8,138.7 599.8,104.1 599.8,173.4 
	539.8,208 539.8,208 539.8,277.3 599.8,242.6 599.8,242.6 599.8,242.6 599.8,311.9 599.8,311.9 599.8,381.2 659.8,346.6 
	659.8,346.6 659.8,277.3 659.8,277.3 659.8,277.3 659.8,208 659.8,138.7 659.8,69.4 659.8,0.2 599.8,34.8 539.8,69.4 479.8,104.1 
	419.8,138.7 419.8,138.7 419.8,138.7 359.8,173.4 359.8,173.4 359.8,242.6 "/>
</svg>
