<?xml version="1.0" encoding="utf-8"?>
<!-- Generator: Adobe Illustrator 25.2.0, SVG Export Plug-In . SVG Version: 6.00 Build 0)  -->
<svg version="1.1" id="Layer_1" xmlns="http://www.w3.org/2000/svg" xmlns:xlink="http://www.w3.org/1999/xlink" x="0px" y="0px"
	 viewBox="0 0 660 1143.1" style="enable-background:new 0 0 660 1143.1;" xml:space="preserve">
<style type="text/css">
	.st0{fill:#9ed84b;}
</style>
<polygon id="_x37__1_" class="st0" points="59.8,831 59.8,831 119.8,796.4 119.8,796.4 179.8,761.7 239.8,727.1 239.8,796.4 
	179.8,831 179.8,831 179.8,900.3 239.8,865.6 239.8,865.6 239.8,865.6 239.8,934.9 239.8,934.9 239.8,1004.2 299.8,969.6 
	299.8,969.6 299.8,900.3 299.8,900.3 299.8,900.3 299.8,831 299.8,761.7 299.8,692.4 299.8,623.2 239.8,657.8 179.8,692.4 
	119.8,727.1 59.8,761.7 59.8,761.7 59.8,761.7 -0.2,796.4 -0.2,796.4 -0.2,865.6 "/>
</svg>
