<?xml version="1.0" encoding="utf-8"?>
<!-- Generator: Adobe Illustrator 25.2.0, SVG Export Plug-In . SVG Version: 6.00 Build 0)  -->
<svg version="1.1" id="Layer_1" xmlns="http://www.w3.org/2000/svg" xmlns:xlink="http://www.w3.org/1999/xlink" x="0px" y="0px"
	 viewBox="0 0 660 1143.1" style="enable-background:new 0 0 660 1143.1;" xml:space="preserve">
<style type="text/css">
	.st0{fill:#9ed84b;}
</style>
<path id="_x38_" class="st0" d="M660,0.2l-60,34.6l0,0l-60,34.6l0,0L480,104l-60,34.6l0,0l0,0l-60,34.6v69.3v69.3v69.3v69.3v69.3
	l60-34.6l0,0l60-34.6l0,0l60-34.6l0,0l60-34.6l0,0l60-34.6v-69.3l0,0v-69.3v-69.3V69.5l0,0V0.2z M600,242.7V312l0,0l-60,34.6l0,0
	l-60,34.6l0,0l-60,34.6v-69.3l0,0l60-34.6l0,0l60-34.6l0,0L600,242.7L600,242.7L600,242.7z M600,173.4L540,208l0,0l-60,34.6l0,0
	l-60,34.6l0,0l0,0l0,0v-69.3l0,0l0,0l60-34.6l0,0l60-34.6l60-34.6V173.4z"/>
</svg>
