<?xml version="1.0" encoding="utf-8"?>
<!-- Generator: Adobe Illustrator 25.2.0, SVG Export Plug-In . SVG Version: 6.00 Build 0)  -->
<svg version="1.1" id="Layer_1" xmlns="http://www.w3.org/2000/svg" xmlns:xlink="http://www.w3.org/1999/xlink" x="0px" y="0px"
	 viewBox="0 0 660 1143.1" style="enable-background:new 0 0 660 1143.1;" xml:space="preserve">
<style type="text/css">
	.st0{fill:#D84B4F;}
</style>
<polygon class="st0" points="119.8,588.7 59.8,623.4 -0.2,658 -0.2,658 -0.2,727.3 59.8,692.7 119.8,658 179.8,623.4 239.8,588.7 
	299.8,554.1 299.8,484.8 299.8,484.8 239.8,519.5 239.8,450.2 239.8,450.2 239.8,450.2 239.8,380.9 239.8,311.6 239.8,242.3 
	179.8,277 119.8,311.6 119.8,311.6 59.8,346.2 59.8,346.3 59.8,415.5 119.8,380.9 119.8,380.9 179.8,346.2 179.8,415.5 179.8,415.5 
	179.8,415.5 179.8,484.8 179.8,484.8 179.8,484.8 179.8,554.1 "/>
</svg>
