<?xml version="1.0" encoding="utf-8"?>
<!-- Generator: Adobe Illustrator 25.2.0, SVG Export Plug-In . SVG Version: 6.00 Build 0)  -->
<svg version="1.1" id="Layer_1" xmlns="http://www.w3.org/2000/svg" xmlns:xlink="http://www.w3.org/1999/xlink" x="0px" y="0px"
	 viewBox="0 0 780 5542.3" style="enable-background:new 0 0 780 5542.3;" xml:space="preserve">
<style type="text/css">
	.st0{fill:#141414;}
</style>
<polygon class="st0" points="780,1489.3 780,1489.3 780,1489.3 780,1420 780,1350.7 780,1281.5 780,1212.2 780,1212.2 780,1142.9 
	780,1142.9 780,1073.6 780,1073.6 780,1004.3 780,1004.3 780,935 780,865.8 780,865.8 780,796.5 780,796.5 780,727.5 780,727.5 
	780,658.2 780,588.9 780,588.9 780,519.6 780,519.6 780,450.3 780,450.3 780,450.3 720,415.7 720,415.7 720,415.7 660,381.1 
	660,381 600,346.4 600,346.4 540,311.8 540,311.8 480,277.1 480,277.1 420,242.5 420,242.5 360,207.8 360,207.8 300,173.2 
	300,173.2 240,138.6 240,138.6 180,103.9 180,103.9 120,69.3 120,69.3 120,69.3 60,34.6 60,34.6 0,0 0,69.3 0,69.3 0,138.6 0,138.6 
	0,207.8 0,207.8 0,276.9 0,276.9 0,346.1 0,415.4 0,484.7 0,554 0,554 0,623.3 0,623.3 0,692.6 0,692.6 0,761.8 0,761.8 0,761.8 
	0,831.1 0,831.1 0,900.4 0,900.4 0,969.7 0,1039 0,1039 0,1108.2 0,1108.3 0,1177.5 0,1177.5 0,1246.8 0,1316.1 0,1385.4 0,1454.7 
	0,1454.7 0,1454.7 0,1523.9 0,1523.9 0,1524 0,1593.2 0,1593.2 0,1662.5 0,1662.5 0,1731.8 0,1801.1 0,1870.3 0,1939.6 0,1939.6 
	0,2008.9 0,2008.9 0,2078.2 0,2078.2 0,2078.2 0,2147.5 0,2147.5 0,2216.8 0,2216.8 0,2286 0,2355.3 0,2355.3 0,2424.6 0,2424.6 
	0,2493.9 0,2493.9 0,2563.2 0,2563.2 0,2632.5 0,2701.7 0,2771 0,2840.3 0,2840.3 0,2840.3 0,2909.6 0,2909.6 0,2909.6 0,2978.9 
	0,2978.9 0,3048.1 0,3117.4 0,3186.7 0,3256 0,3256 0,3325.3 0,3325.3 0,3394.6 0,3394.6 0,3463.8 0,3463.8 0,3533.1 0,3533.1 
	0,3602.4 0,3671.7 0,3741 0,3741 0,3810.2 0,3810.3 0,3879.5 0,3879.5 0,3948.8 0,4018.1 0,4087.4 0,4156.7 0,4156.7 0,4156.7 
	0,4225.9 0,4225.9 0,4226 0,4295.2 0,4295.2 0,4364.5 0,4433.8 0,4503.1 0,4572.3 0,4641.6 0,4641.6 0,4710.9 0,4710.9 0,4710.9 
	0,4710.9 0,4710.9 0,4780.2 0,4849.5 0,4918.7 0,4988 0,5057.3 0,5057.3 0,5057.3 0,5126.6 0,5126.6 0,5126.6 0,5195.9 0,5265.1 
	0,5334.4 0,5403.7 0,5473 0,5542.3 60,5507.6 120,5473 180,5438.4 180,5438.3 240,5403.7 240,5403.7 300,5369.1 300,5369.1 
	360,5334.4 360,5334.4 420,5299.8 420,5299.8 480,5265.1 480,5265.1 540,5230.5 600,5195.9 660,5161.2 720,5126.6 720,5126.6 
	780,5091.9 780,5091.9 780,5022.7 780,4953.4 780,4884.1 780,4814.8 780,4745.5 780,4676.3 780,4676.2 780,4607 780,4607 
	780,4537.7 780,4468.4 780,4399.1 780,4399.1 780,4329.8 780,4329.8 780,4260.6 780,4260.6 780,4191.3 780,4191.3 780,4191.3 
	780,4122 780,4052.7 780,3983.5 780,3914.2 780,3844.9 780,3844.9 780,3775.6 780,3775.6 780,3706.3 780,3706.3 780,3637 
	780,3567.8 780,3567.8 780,3498.5 780,3498.5 780,3429.2 780,3429.2 780,3429.2 780,3359.9 780,3359.9 780,3359.9 780,3290.6 
	780,3290.6 780,3290.6 780,3221.3 780,3152.1 780,3082.8 780,3013.5 780,2944.2 780,2944.2 780,2875 780,2874.9 780,2874.9 
	780,2805.7 780,2805.7 780,2805.7 780,2736.4 780,2667.1 780,2597.8 780,2528.5 780,2528.5 780,2459.3 780,2459.2 780,2390 
	780,2390 780,2320.7 780,2251.4 780,2182.1 780,2182.1 780,2112.8 780,2112.8 780,2112.8 780,2043.6 780,2043.6 780,2043.6 
	780,1974.3 780,1974.3 780,1974.3 780,1905 780,1905 780,1905 780,1835.7 780,1766.4 780,1697.1 780,1627.9 780,1627.9 780,1558.6 
	780,1558.6 780,1558.6 "/>
</svg>
