<?xml version="1.0" encoding="utf-8"?>
<!-- Generator: Adobe Illustrator 25.2.0, SVG Export Plug-In . SVG Version: 6.00 Build 0)  -->
<svg version="1.1" id="Layer_1" xmlns="http://www.w3.org/2000/svg" xmlns:xlink="http://www.w3.org/1999/xlink" x="0px" y="0px"
	 viewBox="0 0 78 298.1" style="enable-background:new 0 0 78 298.1;" xml:space="preserve">
<style type="text/css">
	.st0{fill:#141414;}
</style>
<polygon class="st0" points="72,3.5 66,6.9 60,10.4 54,13.9 48,17.3 42,20.8 36,24.2 30,27.7 24,31.2 18,34.6 12,38.1 6,41.6 0,45 
	0,52 0,58.9 0,65.8 0,72.4 0,77.9 0,84.9 0,91.8 0,98.7 0,104.1 0,105.7 0,112.6 0,119.5 0,126.4 0,133.4 0,140.3 0,147.2 0,154.2 
	0,161.1 0,168 0,174.9 0,181.9 0,188.8 0,195.7 0,202.7 0,209.6 0,216.5 0,223.4 0,230.4 0,237.3 0,244.2 0,251.1 0,253.1 0,298.1 
	78,298.1 78,253.1 78,247.7 78,240.8 78,233.8 78,226.9 78,220 78,213 78,206.1 78,199.2 78,192.3 78,185.3 78,178.4 78,171.5 
	78,164.5 78,157.6 78,150.7 78,143.8 78,136.8 78,129.9 78,123 78,116.1 78,109.1 78,102.2 78,95.3 78,88.3 78,81.4 78,74.5 
	78,67.6 78,60.6 78,53.7 78,46.8 78,39.8 78,32.9 78,26.7 78,20.8 78,13.9 78,6.9 78,0 "/>
</svg>
