<?xml version="1.0" encoding="utf-8"?>
<!-- Generator: Adobe Illustrator 25.2.0, SVG Export Plug-In . SVG Version: 6.00 Build 0)  -->
<svg version="1.1" id="Layer_1" xmlns="http://www.w3.org/2000/svg" xmlns:xlink="http://www.w3.org/1999/xlink" x="0px" y="0px"
	 viewBox="0 0 660 1143.2" style="enable-background:new 0 0 660 1143.2;" xml:space="preserve">
<style type="text/css">
	.st0{fill:#c6c6c6;}
</style>
<polygon class="st0" points="60,520 120,554.6 180,589.3 240,623.9 240,693.2 240,693.2 180,658.5 120,623.9 60,589.3 60,658.5 
	60,658.5 120,693.2 120,693.2 120,693.2 180,727.8 180,727.8 240,762.5 240,762.5 240,831.7 180,797.1 180,797.1 120,762.5 
	120,762.5 120,762.5 60,727.8 60,727.8 60,727.8 0,693.2 0,762.5 0,762.5 60,797.1 60,797.1 60,797.1 120,831.7 120,831.8 
	180,866.4 240,901 300,935.7 300,935.7 300,866.4 300,866.4 300,866.4 300,797.1 300,797.1 300,797.1 300,727.8 300,727.8 
	300,658.5 300,658.5 300,589.3 300,589.3 240,554.6 180,520 180,520 120,485.3 120,485.3 60,450.7 0,416.1 0,485.3 0,485.3 "/>
</svg>
