<?xml version="1.0" encoding="utf-8"?>
<!-- Generator: Adobe Illustrator 25.2.0, SVG Export Plug-In . SVG Version: 6.00 Build 0)  -->
<svg version="1.1" id="Layer_1" xmlns="http://www.w3.org/2000/svg" xmlns:xlink="http://www.w3.org/1999/xlink" x="0px" y="0px"
	 viewBox="0 0 660 1143.2" style="enable-background:new 0 0 660 1143.2;" xml:space="preserve">
<style type="text/css">
	.st0{fill:#242424;}
</style>
<polygon class="st0" points="300,242.4 300,242.4 300,173.1 300,173.1 240,138.5 240,207.7 240,277 180,242.4 120,207.7 60,173.1 
	60,103.8 60,34.5 60,34.5 0,-0.1 0,69.2 0,69.2 0,138.5 0,207.7 0,207.8 60,242.4 60,242.4 60,242.4 120,277 120,277 120,277 
	180,311.7 180,311.7 180,311.7 240,346.3 240,346.3 240,346.3 240,415.6 240,415.6 240,484.9 300,519.5 300,519.5 300,450.2 
	300,450.2 300,450.2 300,381 300,381 300,380.9 300,311.7 300,311.7 "/>
</svg>
