<?xml version="1.0" encoding="utf-8"?>
<!-- Generator: Adobe Illustrator 25.2.0, SVG Export Plug-In . SVG Version: 6.00 Build 0)  -->
<svg version="1.1" id="Layer_1" xmlns="http://www.w3.org/2000/svg" xmlns:xlink="http://www.w3.org/1999/xlink" x="0px" y="0px"
	 viewBox="0 0 660 1143.1" style="enable-background:new 0 0 660 1143.1;" xml:space="preserve">
<style type="text/css">
	.st0{fill:#242424;}
</style>
<polygon id="_x34_" class="st0" points="360,311.4 360,380.7 420,346 420,346 480,311.4 480,311.4 540,276.8 540,276.8 600,242.1 
	600,242.1 600,242.1 600,311.4 600,311.4 600,380.7 660,346 660,276.8 660,276.8 660,207.5 660,207.5 660,138.2 660,68.9 660,-0.4 
	600,34.3 600,34.3 600,103.6 600,172.8 600,172.8 540,207.5 540,207.5 480,242.1 480,242.1 420,276.8 420,276.8 420,276.8 
	420,276.8 420,207.5 420,207.5 420,207.5 420,138.2 420,138.2 360,172.8 360,242.1 "/>
</svg>
