<?xml version="1.0" encoding="utf-8"?>
<!-- Generator: Adobe Illustrator 25.2.0, SVG Export Plug-In . SVG Version: 6.00 Build 0)  -->
<svg version="1.1" id="Layer_1" xmlns="http://www.w3.org/2000/svg" xmlns:xlink="http://www.w3.org/1999/xlink" x="0px" y="0px"
	 viewBox="0 0 660 1143.1" style="enable-background:new 0 0 660 1143.1;" xml:space="preserve">
<style type="text/css">
	.st0{fill:#242424;}
</style>
<polygon id="_x35_" class="st0" points="360,658.3 360,727.6 360,796.8 420,762.2 420,762.2 480,727.6 540,692.9 600,658.3 
	600,658.3 600,727.6 540,762.2 480,796.8 420,831.5 420,831.5 360,866.1 360,866.1 360,935.4 420,900.8 480,866.1 540,831.5 
	600,796.8 660,762.2 660,692.9 660,692.9 660,623.6 660,623.6 660,623.6 660,554.4 660,554.4 600,589 600,589 540,623.6 540,623.6 
	480,658.3 480,658.3 420,692.9 420,623.6 420,623.6 480,589 480,589 540,554.4 540,554.4 600,519.7 600,519.7 660,485.1 660,415.8 
	600,450.4 540,485.1 540,485.1 540,485.1 480,519.7 480,519.7 480,519.7 420,554.4 420,554.4 360,589 360,589 "/>
</svg>
