<?xml version="1.0" encoding="utf-8"?>
<!-- Generator: Adobe Illustrator 25.2.0, SVG Export Plug-In . SVG Version: 6.00 Build 0)  -->
<svg version="1.1" id="Layer_1" xmlns="http://www.w3.org/2000/svg" xmlns:xlink="http://www.w3.org/1999/xlink" x="0px" y="0px"
	 viewBox="0 0 660 1143.1" style="enable-background:new 0 0 660 1143.1;" xml:space="preserve">
<style type="text/css">
	.st0{fill:#242424;}
</style>
<path id="_x38_" class="st0" d="M300,623.2l-60,34.6l0,0l-60,34.6l0,0L120,727l-60,34.6l0,0l0,0L0,796.4v69.3V935v69.3v69.3v69.3
	l60-34.6l0,0l60-34.6l0,0l60-34.6l0,0l60-34.6l0,0l60-34.6v-69.3l0,0v-69.3V762v-69.3l0,0V623.2z M240,865.7V935l0,0l-60,34.6l0,0
	l-60,34.6l0,0l-60,34.6v-69.3l0,0l60-34.6l0,0l60-34.6l0,0L240,865.7L240,865.7L240,865.7z M240,796.4L180,831l0,0l-60,34.6l0,0
	l-60,34.6l0,0l0,0l0,0v-69.3l0,0l0,0l60-34.6l0,0l60-34.6l60-34.6V796.4z"/>
</svg>
