<?xml version="1.0" encoding="utf-8"?>
<!-- Generator: Adobe Illustrator 25.2.0, SVG Export Plug-In . SVG Version: 6.00 Build 0)  -->
<svg version="1.1" id="Layer_1" xmlns="http://www.w3.org/2000/svg" xmlns:xlink="http://www.w3.org/1999/xlink" x="0px" y="0px"
	 viewBox="0 0 660 1143.1" style="enable-background:new 0 0 660 1143.1;" xml:space="preserve">
<style type="text/css">
	.st0{fill:#242424;}
</style>
<path id="_x39_" class="st0" d="M660,623.2L660,623.2L660,623.2v-69.3v-69.3v-69.3L600,450l-60,34.6l0,0l-60,34.6l0,0l0,0l-60,34.6
	l0,0l0,0l-60,34.6l0,0v69.3l0,0V727v69.3l60-34.6l60-34.6l60-34.6l0,0l60-34.6l0,0v69.3l-60,34.6l-60,34.6L420,831l-60,34.6l0,0
	v69.3l60-34.6l60-34.6l60-34.6l60-34.6l60-34.6v-69.3l0,0l0,0V623.2z M420,692.5L420,692.5v-69.3l0,0l0,0l60-34.6l0,0l60-34.6l0,0
	l60-34.6v69.3l0,0l-60,34.6l0,0l-60,34.6l0,0L420,692.5L420,692.5L420,692.5z"/>
</svg>
