<?xml version="1.0" encoding="utf-8"?>
<!-- Generator: Adobe Illustrator 25.2.0, SVG Export Plug-In . SVG Version: 6.00 Build 0)  -->
<svg version="1.1" id="Layer_1" xmlns="http://www.w3.org/2000/svg" xmlns:xlink="http://www.w3.org/1999/xlink" x="0px" y="0px"
	 viewBox="0 0 660 1143.2" style="enable-background:new 0 0 660 1143.2;" xml:space="preserve">
<style type="text/css">
	.st0{fill:#D84B4F;}
</style>
<polygon class="st0" points="0,208.1 0,277.3 0,277.3 0,277.3 0,346.6 0,346.6 60,381.3 60,381.3 120,415.9 120,415.9 180,450.5 
	240,485.2 300,519.8 300,519.8 300,450.5 300,450.5 240,415.9 180,381.3 180,381.3 120,346.6 120,346.6 60,312 60,312 60,312 
	60,242.7 120,277.3 120,277.3 180,312 180,312 240,346.6 240,346.6 300,381.3 300,381.3 300,312 300,312 300,312 300,242.7 
	300,242.7 300,242.7 300,173.4 300,173.4 240,138.8 180,104.1 120,69.5 60,34.8 60,34.8 0,0.2 0,69.5 60,104.1 120,138.8 180,173.4 
	240,208.1 240,277.3 180,242.7 120,208 60,173.4 0,138.8 0,208 "/>
</svg>
