<?xml version="1.0" encoding="utf-8"?>
<!-- Generator: Adobe Illustrator 25.2.0, SVG Export Plug-In . SVG Version: 6.00 Build 0)  -->
<svg version="1.1" id="Layer_1" xmlns="http://www.w3.org/2000/svg" xmlns:xlink="http://www.w3.org/1999/xlink" x="0px" y="0px"
	 viewBox="0 0 660 1143.2" style="enable-background:new 0 0 660 1143.2;" xml:space="preserve">
<style type="text/css">
	.st0{fill:#D84B4F;}
</style>
<polygon class="st0" points="420,312 480,346.6 540,381.3 600,415.9 600,485.2 600,485.2 540,450.5 480,415.9 420,381.3 420,450.5 
	420,450.5 480,485.2 480,485.2 480,485.2 540,519.8 540,519.8 600,554.5 600,554.5 600,623.7 540,589.1 540,589.1 480,554.5 
	480,554.5 480,554.5 420,519.8 420,519.8 420,519.8 360,485.2 360,554.5 360,554.5 420,589.1 420,589.1 420,589.1 480,623.7 
	480,623.8 540,658.4 600,693 660,727.7 660,727.7 660,658.4 660,658.4 660,658.4 660,589.1 660,589.1 660,589.1 660,519.8 
	660,519.8 660,450.5 660,450.5 660,381.3 660,381.3 600,346.6 540,312 540,312 480,277.3 480,277.3 420,242.7 360,208.1 360,277.3 
	360,277.3 "/>
</svg>
