<?xml version="1.0" encoding="utf-8"?>
<!-- Generator: Adobe Illustrator 25.2.0, SVG Export Plug-In . SVG Version: 6.00 Build 0)  -->
<svg version="1.1" id="Layer_1" xmlns="http://www.w3.org/2000/svg" xmlns:xlink="http://www.w3.org/1999/xlink" x="0px" y="0px"
	 viewBox="0 0 660 1143.2" style="enable-background:new 0 0 660 1143.2;" xml:space="preserve">
<style type="text/css">
	.st0{fill:#9ed84b;}
</style>
<polygon class="st0" points="300,311.5 300,311.5 240,276.9 180,242.2 120,207.6 60,172.9 60,103.7 120,138.3 180,172.9 240,207.6 
	300,242.2 300,242.2 300,173 300,172.9 240,138.3 180,103.7 120,69 60,34.4 60,34.4 60,34.4 0,-0.2 0,69 0,69 0,138.3 0,207.6 
	60,242.2 120,276.9 180,311.5 240,346.2 240,415.4 180,380.8 180,380.8 120,346.2 120,346.2 60,311.5 60,311.5 0,276.9 0,346.1 
	0,346.2 0,346.2 60,380.8 60,380.8 120,415.4 120,415.4 180,450.1 240,484.7 300,519.4 300,519.4 300,450.1 300,450.1 300,450.1 
	300,380.8 300,380.8 "/>
</svg>
