<?xml version="1.0" encoding="utf-8"?>
<!-- Generator: Adobe Illustrator 25.2.0, SVG Export Plug-In . SVG Version: 6.00 Build 0)  -->
<svg version="1.1" id="Layer_1" xmlns="http://www.w3.org/2000/svg" xmlns:xlink="http://www.w3.org/1999/xlink" x="0px" y="0px"
	 viewBox="0 0 660 1143.2" style="enable-background:new 0 0 660 1143.2;" xml:space="preserve">
<style type="text/css">
	.st0{fill:#9ed84b;}
</style>
<polygon class="st0" points="660,935.5 660,935.5 600,900.9 540,866.2 480,831.6 420,796.9 420,727.7 480,762.3 540,796.9 
	600,831.6 660,866.2 660,866.2 660,797 660,796.9 600,762.3 540,727.7 480,693 420,658.4 420,658.4 420,658.4 360,623.8 360,693 
	360,693 360,762.3 360,831.6 420,866.2 480,900.9 540,935.5 600,970.2 600,1039.4 540,1004.8 540,1004.8 480,970.2 480,970.2 
	420,935.5 420,935.5 360,900.9 360,970.1 360,970.2 360,970.2 420,1004.8 420,1004.8 480,1039.4 480,1039.4 540,1074.1 600,1108.7 
	660,1143.4 660,1143.4 660,1074.1 660,1074.1 660,1074.1 660,1004.8 660,1004.8 "/>
</svg>
