<?xml version="1.0" encoding="utf-8"?>
<!-- Generator: Adobe Illustrator 25.2.0, SVG Export Plug-In . SVG Version: 6.00 Build 0)  -->
<svg version="1.1" id="Layer" xmlns="http://www.w3.org/2000/svg" xmlns:xlink="http://www.w3.org/1999/xlink" x="0px" y="0px"
	 viewBox="0 0 22 22" style="enable-background:new 0 0 22 22;" xml:space="preserve">
<style type="text/css">
	.st0{fill:url(#SVGID_1_);}
	.st1{fill:url(#SVGID_2_);}
	.st2{fill:url(#SVGID_3_);}
	.st3{fill:url(#SVGID_4_);}
	.st4{fill:url(#SVGID_5_);}
	.st5{fill:url(#SVGID_6_);}
	.st6{fill:url(#SVGID_7_);}
	.st7{fill:url(#SVGID_8_);}
	.st8{fill:url(#SVGID_9_);}
</style>
<linearGradient id="SVGID_1_" gradientUnits="userSpaceOnUse" x1="-28.7418" y1="18.75" x2="25.1799" y2="18.75">
	<stop  offset="0.2" style="stop-color:#2AC68E"/>
	<stop  offset="0.8" style="stop-color:#3DDDD8"/>
</linearGradient>
<path class="st0" d="M6.5,21.3v-5.2c0-0.4-0.3-0.7-0.6-0.7H0.6c-0.4,0-0.6,0.3-0.6,0.7v5.2C0,21.7,0.3,22,0.6,22h5.2
	C6.2,22,6.5,21.7,6.5,21.3z"/>
<linearGradient id="SVGID_2_" gradientUnits="userSpaceOnUse" x1="-28.7418" y1="3.25" x2="25.1799" y2="3.25">
	<stop  offset="0.2" style="stop-color:#2AC68E"/>
	<stop  offset="0.8" style="stop-color:#3DDDD8"/>
</linearGradient>
<path class="st1" d="M0.6,6.5h5.2c0.4,0,0.6-0.3,0.6-0.7V0.7C6.5,0.3,6.2,0,5.9,0H0.6C0.3,0,0,0.3,0,0.7v5.2C0,6.2,0.3,6.5,0.6,6.5z
	"/>
<linearGradient id="SVGID_3_" gradientUnits="userSpaceOnUse" x1="-28.7418" y1="3.25" x2="25.1799" y2="3.25">
	<stop  offset="0.2" style="stop-color:#2AC68E"/>
	<stop  offset="0.8" style="stop-color:#3DDDD8"/>
</linearGradient>
<path class="st2" d="M7.8,0.7v5.2c0,0.4,0.3,0.7,0.6,0.7h5.2c0.4,0,0.6-0.3,0.6-0.7V0.7C14.2,0.3,14,0,13.6,0H8.4
	C8,0,7.8,0.3,7.8,0.7z"/>
<linearGradient id="SVGID_4_" gradientUnits="userSpaceOnUse" x1="-28.7418" y1="18.75" x2="25.1799" y2="18.75">
	<stop  offset="0.2" style="stop-color:#2AC68E"/>
	<stop  offset="0.8" style="stop-color:#3DDDD8"/>
</linearGradient>
<path class="st3" d="M14.2,21.3v-5.2c0-0.4-0.3-0.7-0.6-0.7H8.4c-0.4,0-0.6,0.3-0.6,0.7v5.2C7.8,21.7,8,22,8.4,22h5.2
	C14,22,14.2,21.7,14.2,21.3z"/>
<linearGradient id="SVGID_5_" gradientUnits="userSpaceOnUse" x1="-28.7418" y1="11" x2="25.1799" y2="11">
	<stop  offset="0.2" style="stop-color:#2AC68E"/>
	<stop  offset="0.8" style="stop-color:#3DDDD8"/>
</linearGradient>
<path class="st4" d="M21.4,7.8h-5.2c-0.4,0-0.6,0.3-0.6,0.7v5.2c0,0.4,0.3,0.7,0.6,0.7h5.2c0.4,0,0.6-0.3,0.6-0.7V8.4
	C22,8,21.7,7.8,21.4,7.8z"/>
<linearGradient id="SVGID_6_" gradientUnits="userSpaceOnUse" x1="-28.7418" y1="11" x2="25.1799" y2="11">
	<stop  offset="0.2" style="stop-color:#2AC68E"/>
	<stop  offset="0.8" style="stop-color:#3DDDD8"/>
</linearGradient>
<path class="st5" d="M0.6,14.2h5.2c0.4,0,0.6-0.3,0.6-0.7V8.4c0-0.4-0.3-0.7-0.6-0.7H0.6C0.3,7.8,0,8,0,8.4v5.2
	C0,14,0.3,14.2,0.6,14.2z"/>
<linearGradient id="SVGID_7_" gradientUnits="userSpaceOnUse" x1="-28.7418" y1="11" x2="25.1799" y2="11">
	<stop  offset="0.2" style="stop-color:#2AC68E"/>
	<stop  offset="0.8" style="stop-color:#3DDDD8"/>
</linearGradient>
<path class="st6" d="M13.6,7.8H8.4C8,7.8,7.8,8,7.8,8.4v5.2c0,0.4,0.3,0.7,0.6,0.7h5.2c0.4,0,0.6-0.3,0.6-0.7V8.4
	C14.2,8,14,7.8,13.6,7.8z"/>
<linearGradient id="SVGID_8_" gradientUnits="userSpaceOnUse" x1="-28.7418" y1="3.25" x2="25.1799" y2="3.25">
	<stop  offset="0.2" style="stop-color:#2AC68E"/>
	<stop  offset="0.8" style="stop-color:#3DDDD8"/>
</linearGradient>
<path class="st7" d="M21.4,0h-5.2c-0.4,0-0.6,0.3-0.6,0.7v5.2c0,0.4,0.3,0.7,0.6,0.7h5.2c0.4,0,0.6-0.3,0.6-0.7V0.7
	C22,0.3,21.7,0,21.4,0z"/>
<linearGradient id="SVGID_9_" gradientUnits="userSpaceOnUse" x1="-28.7418" y1="18.75" x2="25.1799" y2="18.75">
	<stop  offset="0.2" style="stop-color:#2AC68E"/>
	<stop  offset="0.8" style="stop-color:#3DDDD8"/>
</linearGradient>
<path class="st8" d="M21.4,15.5h-5.2c-0.4,0-0.6,0.3-0.6,0.7v5.2c0,0.4,0.3,0.7,0.6,0.7h5.2c0.4,0,0.6-0.3,0.6-0.7v-5.2
	C22,15.8,21.7,15.5,21.4,15.5z"/>
</svg>
