<?xml version="1.0" encoding="utf-8"?>
<!-- Generator: Adobe Illustrator 25.2.0, SVG Export Plug-In . SVG Version: 6.00 Build 0)  -->
<svg version="1.1" id="Layer_1" xmlns="http://www.w3.org/2000/svg" xmlns:xlink="http://www.w3.org/1999/xlink" x="0px" y="0px"
	 viewBox="0 0 660 2563.4" style="enable-background:new 0 0 660 2563.4;" xml:space="preserve">
<style type="text/css">
	.st0{fill:#D84B4F;}
</style>
<path class="st0" d="M60,866l60,34.6l60,34.6l0,0l60,34.6l0,0l60,34.6l0,0l60,34.6l0,0l60,34.6l0,0l60,34.6l0,0l60,34.6l60,34.6
	l60,34.6l0,0v-69.3l0,0l0,0v-69.3l0,0l0,0v-69.3l0,0l0,0v-69.3l0,0l0,0v-69.3l0,0l0,0v-69.3l0,0l0,0v-69.3l0,0l0,0v-69.3l0,0l0,0
	v-69.3l0,0l0,0V519l0,0v-69.3l0,0L600,485l0,0l-60,34.6l0,0l-60,34.6l0,0l-60,34.6l0,0l-60,34.6l0,0L300,658l0,0l-60,34.6l-60,34.6
	l-60,34.6l0,0l0,0l-60,34.6l0,0l0,0l-60,35l0,0L60,866L60,866z M300,796.7L300,796.7l60-34.6l0,0l60-34.6l0,0l60-34.6l60-34.6v69.3
	v69.3v69.3v69.3v69.3l0,0L480,970l0,0l-60-34.6l0,0l-60-34.6l0,0L300,866l0,0l-60-34.6L300,796.7z M300,935.3L300,935.3L300,935.3
	L300,935.3z M180,796.7L180,796.7L180,796.7L180,796.7z M120,831.4L120,831.4L120,831.4L120,831.4z"/>
</svg>
