<?xml version="1.0" encoding="UTF-8" standalone="no"?>
<!-- Generator: Adobe Illustrator 25.2.0, SVG Export Plug-In . SVG Version: 6.00 Build 0)  -->

<svg
   version="1.1"
   id="Layer_1"
   x="0px"
   y="0px"
   viewBox="0 0 660 2563.4"
   style="enable-background:new 0 0 660 2563.4;"
   xml:space="preserve"
   sodipodi:docname="p1.svg"
   inkscape:version="1.2.1 (9c6d41e410, 2022-07-14)"
   xmlns:inkscape="http://www.inkscape.org/namespaces/inkscape"
   xmlns:sodipodi="http://sodipodi.sourceforge.net/DTD/sodipodi-0.dtd"
   xmlns="http://www.w3.org/2000/svg"
   xmlns:svg="http://www.w3.org/2000/svg"><defs
   id="defs168" /><sodipodi:namedview
   id="namedview166"
   pagecolor="#ffffff"
   bordercolor="#000000"
   borderopacity="0.25"
   inkscape:showpageshadow="2"
   inkscape:pageopacity="0.0"
   inkscape:pagecheckerboard="0"
   inkscape:deskcolor="#d1d1d1"
   showgrid="false"
   inkscape:zoom="0.34095343"
   inkscape:cx="332.89004"
   inkscape:cy="1047.0638"
   inkscape:window-width="929"
   inkscape:window-height="1044"
   inkscape:window-x="93"
   inkscape:window-y="15"
   inkscape:window-maximized="1"
   inkscape:current-layer="Layer_1" />
<style
   type="text/css"
   id="style161">
	.st0{fill:#242424;}
</style>
<path
   id="path163"
   style="fill:#242424;fill-opacity:1"
   class="st0"
   d="M 660 0 L 600 34.599609 L 540 70.099609 L 480 104.69922 L 420 139.30078 L 360 173.90039 L 300 208.5 L 240 243.09961 L 180 277.69922 L 120 312.30078 L 60 346.90039 L 0 381.5 L 60 416.09961 L 120 450.69922 L 180 485.30078 L 240 519.90039 L 300 554.5 L 360 589.09961 L 420 623.69922 L 480 658.30078 L 540 692.90039 L 600 727.5 L 660 762.19922 L 660 692.90039 L 660 623.59961 L 660 554.30078 L 660 485 L 660 415.80078 L 660 346.5 L 660 277.19922 L 660 207.90039 L 660 138.59961 L 660 69.300781 L 660 0 z " />
</svg>
