<?xml version="1.0" encoding="UTF-8" standalone="no"?>
<!-- Generator: Adobe Illustrator 25.2.0, SVG Export Plug-In . SVG Version: 6.00 Build 0)  -->

<svg
   version="1.1"
   id="Layer_1"
   x="0px"
   y="0px"
   viewBox="0 0 660 2563.4"
   style="enable-background:new 0 0 660 2563.4;"
   xml:space="preserve"
   sodipodi:docname="p2.svg"
   inkscape:version="1.2.1 (9c6d41e410, 2022-07-14)"
   xmlns:inkscape="http://www.inkscape.org/namespaces/inkscape"
   xmlns:sodipodi="http://sodipodi.sourceforge.net/DTD/sodipodi-0.dtd"
   xmlns="http://www.w3.org/2000/svg"
   xmlns:svg="http://www.w3.org/2000/svg"><defs
   id="defs9" /><sodipodi:namedview
   id="namedview7"
   pagecolor="#ffffff"
   bordercolor="#000000"
   borderopacity="0.25"
   inkscape:showpageshadow="2"
   inkscape:pageopacity="0.0"
   inkscape:pagecheckerboard="0"
   inkscape:deskcolor="#d1d1d1"
   showgrid="false"
   inkscape:zoom="0.34095343"
   inkscape:cx="332.89004"
   inkscape:cy="1284.6329"
   inkscape:window-width="929"
   inkscape:window-height="1044"
   inkscape:window-x="93"
   inkscape:window-y="15"
   inkscape:window-maximized="1"
   inkscape:current-layer="Layer_1" />
<style
   type="text/css"
   id="style2">
	.st0{fill:#D84B4F;}
</style>
<path
   id="path4"
   class="st0"
   d="M 0 449.69922 L 0 519 L 0 588.30078 L 0 657.59961 L 0 726.90039 L 0 796.19922 L 0 865.5 L 0 934.80078 L 0 1004.0996 L 0 1073.4004 L 0 1142.6992 L 0 1212 L 60 1177.4004 L 120 1142.8008 L 180 1108.1992 L 240 1073.5996 L 300 1039 L 360 1004.4004 L 420 969.80078 L 480 935.19922 L 540 900.59961 L 600 866 L 660 831.40039 L 600 796.40039 L 540 761.80078 L 480 727.19922 L 420 692.59961 L 360 658 L 300 623.40039 L 240 588.80078 L 180 554.19922 L 120 519.59961 L 60 485 L 0 449.69922 z " />
</svg>
