<?xml version="1.0" encoding="utf-8"?>
<!-- Generator: Adobe Illustrator 25.2.0, SVG Export Plug-In . SVG Version: 6.00 Build 0)  -->
<svg version="1.1" id="Layer_1" xmlns="http://www.w3.org/2000/svg" xmlns:xlink="http://www.w3.org/1999/xlink" x="0px" y="0px"
	 viewBox="0 0 660 1143.1" style="enable-background:new 0 0 660 1143.1;" xml:space="preserve">
<style type="text/css">
	.st0{fill:#c6c6c6;}
</style>
<polygon class="st0" points="119.8,1004.7 59.8,1039.4 -0.2,1074 -0.2,1074 -0.2,1143.3 59.8,1108.7 119.8,1074 179.8,1039.4 
	239.8,1004.7 299.8,970.1 299.8,900.8 299.8,900.8 239.8,935.5 239.8,866.2 239.8,866.2 239.8,866.2 239.8,796.9 239.8,727.6 
	239.8,658.3 179.8,693 119.8,727.6 119.8,727.6 59.8,762.2 59.8,762.3 59.8,831.5 119.8,796.9 119.8,796.9 179.8,762.2 179.8,831.5 
	179.8,831.5 179.8,831.5 179.8,900.8 179.8,900.8 179.8,900.8 179.8,970.1 "/>
</svg>
