<?xml version="1.0" encoding="utf-8"?>
<!-- Generator: Adobe Illustrator 25.2.0, SVG Export Plug-In . SVG Version: 6.00 Build 0)  -->
<svg version="1.1" id="Layer" xmlns="http://www.w3.org/2000/svg" xmlns:xlink="http://www.w3.org/1999/xlink" x="0px" y="0px"
	 viewBox="0 0 22 22" style="enable-background:new 0 0 22 22;" xml:space="preserve">
<style type="text/css">
	.st0{fill:url(#SVGID_1_);}
	.st1{fill:url(#SVGID_2_);}
	.st2{fill:url(#SVGID_3_);}
	.st3{fill:url(#SVGID_4_);}
</style>
<g>
	
		<linearGradient id="SVGID_1_" gradientUnits="userSpaceOnUse" x1="-1.0598" y1="-43.7452" x2="23.9402" y2="-43.7452" gradientTransform="matrix(1 0 0 -1 -0.5191 -32.7452)">
		<stop  offset="0.2" style="stop-color:#F85858"/>
		<stop  offset="0.8" style="stop-color:#F076AB"/>
	</linearGradient>
	<path class="st0" d="M7.9,0H2C0.9,0,0,0.9,0,2v18c0,1.1,0.9,2,2,2h5.9c1.1,0,2-0.9,2-2V2C9.9,0.9,9,0,7.9,0z"/>
	
		<linearGradient id="SVGID_2_" gradientUnits="userSpaceOnUse" x1="-1.0598" y1="-35.6452" x2="23.9402" y2="-35.6452" gradientTransform="matrix(1 0 0 -1 -0.5191 -32.7452)">
		<stop  offset="0.2" style="stop-color:#F85858"/>
		<stop  offset="0.8" style="stop-color:#F076AB"/>
	</linearGradient>
	<path class="st1" d="M21,0h-7.9c-0.6,0-1,0.4-1,1v3.8c0,0.6,0.4,1,1,1H21c0.6,0,1-0.4,1-1V1C22,0.4,21.6,0,21,0z"/>
	
		<linearGradient id="SVGID_3_" gradientUnits="userSpaceOnUse" x1="-1.0598" y1="-43.7452" x2="23.9402" y2="-43.7452" gradientTransform="matrix(1 0 0 -1 -0.5191 -32.7452)">
		<stop  offset="0.2" style="stop-color:#F85858"/>
		<stop  offset="0.8" style="stop-color:#F076AB"/>
	</linearGradient>
	<path class="st2" d="M21,8.1h-7.9c-0.6,0-1,0.4-1,1v3.8c0,0.6,0.4,1,1,1H21c0.6,0,1-0.4,1-1V9.1C22,8.6,21.6,8.1,21,8.1z"/>
	
		<linearGradient id="SVGID_4_" gradientUnits="userSpaceOnUse" x1="-1.0598" y1="-51.8452" x2="23.9402" y2="-51.8452" gradientTransform="matrix(1 0 0 -1 -0.5191 -32.7452)">
		<stop  offset="0.2" style="stop-color:#F85858"/>
		<stop  offset="0.8" style="stop-color:#F076AB"/>
	</linearGradient>
	<path class="st3" d="M21,16.2h-7.9c-0.6,0-1,0.4-1,1V21c0,0.6,0.4,1,1,1H21c0.6,0,1-0.4,1-1v-3.8C22,16.7,21.6,16.2,21,16.2z"/>
</g>
</svg>
