<?xml version="1.0" encoding="utf-8"?>
<!-- Generator: Adobe Illustrator 25.2.0, SVG Export Plug-In . SVG Version: 6.00 Build 0)  -->
<svg version="1.1" id="Layer" xmlns="http://www.w3.org/2000/svg" xmlns:xlink="http://www.w3.org/1999/xlink" x="0px" y="0px"
	 viewBox="0 0 22 22" style="enable-background:new 0 0 22 22;" xml:space="preserve">
<style type="text/css">
	.st0{fill:url(#SVGID_1_);}
	.st1{fill:url(#SVGID_2_);}
	.st2{fill:url(#SVGID_3_);}
</style>
<g>
	
		<linearGradient id="SVGID_1_" gradientUnits="userSpaceOnUse" x1="-0.5066" y1="259.2774" x2="24.4934" y2="259.2774" gradientTransform="matrix(1 0 0 1 -1.0191 -242.2452)">
		<stop  offset="0.2" style="stop-color:#F85858"/>
		<stop  offset="0.8" style="stop-color:#F076AB"/>
	</linearGradient>
	<path class="st0" d="M21,12.1h-8.2c-0.6,0-1,0.4-1,1V21c0,0.6,0.4,1,1,1H21c0.6,0,1-0.4,1-1v-7.9C22,12.5,21.6,12.1,21,12.1z"/>
	
		<linearGradient id="SVGID_2_" gradientUnits="userSpaceOnUse" x1="-0.5066" y1="247.3134" x2="24.4934" y2="247.3134" gradientTransform="matrix(1 0 0 1 -1.0191 -242.2452)">
		<stop  offset="0.2" style="stop-color:#F85858"/>
		<stop  offset="0.8" style="stop-color:#F076AB"/>
	</linearGradient>
	<path class="st1" d="M21,0.1h-8.2c-0.6,0-1,0.4-1,1V9c0,0.6,0.4,1,1,1H21c0.6,0,1-0.4,1-1V1.1C22,0.5,21.6,0.1,21,0.1z"/>
	
		<linearGradient id="SVGID_3_" gradientUnits="userSpaceOnUse" x1="-1.0598" y1="67.7452" x2="23.9402" y2="67.7452" gradientTransform="matrix(1 0 0 1 -0.5191 -56.7452)">
		<stop  offset="0.2" style="stop-color:#F85858"/>
		<stop  offset="0.8" style="stop-color:#F076AB"/>
	</linearGradient>
	<path class="st2" d="M7.9,0H2C0.9,0,0,0.9,0,2v18c0,1.1,0.9,2,2,2h5.9c1.1,0,2-0.9,2-2V2C9.9,0.9,9,0,7.9,0z"/>
</g>
</svg>
