<?xml version="1.0" encoding="utf-8"?>
<!-- Generator: Adobe Illustrator 25.2.0, SVG Export Plug-In . SVG Version: 6.00 Build 0)  -->
<svg version="1.1" id="Layer_1" xmlns="http://www.w3.org/2000/svg" xmlns:xlink="http://www.w3.org/1999/xlink" x="0px" y="0px"
	 viewBox="0 0 660 2563.4" style="enable-background:new 0 0 660 2563.4;" xml:space="preserve">
<style type="text/css">
	.st0{fill:#9ed84b;}
</style>
<path class="st0" d="M600,727.5l60,34.6v-69.3l0,0v-69.3v-69.3v-69.3l0,0v-69.3l0,0v-69.3l0,0l0,0V277l0,0v-69.3l0,0v-69.3V69.1V0
	l-60,34.6l-60,34.6l-60,34.6l0,0l0,0l-60,34.6l0,0l0,0L360,173l0,0l0,0l-60,34.6l-60,34.6l-60,34.6l-60,34.6l0,0L60,346l0,0L0,381.1
	l60,34.6l0,0l60,34.6l0,0l60,34.6l0,0l60,34.6l0,0l60,34.6l60,34.6l60,34.6l60,34.6l60,34.6l0,0L600,727.5z M600,658.2l-60-34.6l0,0
	L480,589l-60-34.6l-60-34.6l0,0L300,485l0,0l-60-34.6l0,0l-60-34.6l-60-34.6l60-34.6l60-34.6l60-34.6l60-34.6l0,0l60-34.6l0,0l0,0
	l60-34.6l0,0l0,0l60-34.6l60-34.6v69.3V243l0,0l0,0v69.3l0,0v69.3l0,0v69.3l0,0v69.3l0,0v69.3V658.2z"/>
</svg>
