<?xml version="1.0" encoding="utf-8"?>
<!-- Generator: Adobe Illustrator 25.2.0, SVG Export Plug-In . SVG Version: 6.00 Build 0)  -->
<svg version="1.1" id="Layer_1" xmlns="http://www.w3.org/2000/svg" xmlns:xlink="http://www.w3.org/1999/xlink" x="0px" y="0px"
	 viewBox="0 0 660 2563.4" style="enable-background:new 0 0 660 2563.4;" xml:space="preserve">
<style type="text/css">
	.st0{fill:#d8af4b;}
</style>
<path class="st0" d="M60,1385.6L0,1351v69.3v69.3l0,0l0,0v69.3l0,0l0,0v69.3l0,0l0,0v69.3l0,0l0,0v69.3l0,0l0,0v69.3l0,0v69.3v69.3
	l0,0v69.3l0,0v69.3l0,0l60-34.6l0,0l0,0l60-34.6l0,0l0,0l60-34.6l60-34.6l60-34.6l0,0l60-34.6l0,0l60-34.6l0,0l60-34.6l0,0l60-34.6
	l0,0l60-34.6l0,0l60-34.6l0,0l-60-34.6l0,0l-60-34.6l0,0l-60-34.6l0,0l-60-34.6l0,0l-60-34.6l0,0l-60-34.6l-60-34.6l-60-34.6
	l-60-34.6l0,0l0,0L60,1385.6z M60,1454.9L60,1454.9l60,34.6l0,0l60,34.6l60,34.6l60,34.6l60,34.6l60,34.6l0,0l60,34.6l0,0l60,34.6
	l-60,34.6l0,0l-60,34.6l0,0l-60,34.6l0,0l-60,34.6l0,0l-60,34.6l0,0l-60,34.6l-60,34.6l0,0l-60,34.6l0,0l0,0v-69.3l0,0v-69.3v-69.3
	l0,0l0,0v-69.3l0,0l0,0V1662l0,0v-69.3l0,0v-69.3l0,0V1454.9L60,1454.9z"/>
</svg>
