<svg xmlns="http://www.w3.org/2000/svg" viewBox="0 0 75 75"><defs><style>.cls-1,.cls-2{fill:#090b0c;stroke:#090b0c;stroke-miterlimit:10;}.cls-1{stroke-width:2px;}</style></defs><g id="Layer_2" data-name="Layer 2"><g id="Layer_1-2" data-name="Layer 1"><polyline class="cls-1" points="37.5 75 37.5 71 37.5 68.5"/><polyline class="cls-1" points="37.5 65.4 37.5 37.5 37.5 9.6"/><polyline class="cls-1" points="37.5 6.5 37.5 4 37.5 0"/><polyline class="cls-1" points="23.55 13.34 37.5 37.5 51.45 61.66"/><polyline class="cls-1" points="53 64.35 54.25 66.51 56.25 69.98"/><polyline class="cls-1" points="22 10.65 20.75 8.49 18.75 5.02"/><polyline class="cls-1" points="13.34 23.55 37.5 37.5 61.66 51.45"/><polyline class="cls-1" points="64.35 53 66.51 54.25 69.98 56.25"/><polyline class="cls-1" points="10.65 22 8.49 20.75 5.02 18.75"/><polyline class="cls-1" points="9.6 37.5 37.5 37.5 65.4 37.5"/><polyline class="cls-1" points="68.5 37.5 71 37.5 75 37.5"/><polyline class="cls-1" points="6.5 37.5 4 37.5 0 37.5"/><polyline class="cls-1" points="13.34 51.45 37.5 37.5 61.66 23.55"/><polyline class="cls-1" points="64.35 22 66.51 20.75 69.98 18.75"/><polyline class="cls-1" points="10.65 53 8.49 54.25 5.02 56.25"/><polyline class="cls-1" points="23.55 61.66 37.5 37.5 51.45 13.34"/><polyline class="cls-1" points="53 10.65 54.25 8.49 56.25 5.02"/><polyline class="cls-1" points="22 64.35 20.75 66.51 18.75 69.98"/><path class="cls-2" d="M37.5,9.6V37.5L40.41,9.75A27.926,27.926,0,0,0,37.5,9.6Zm5.8.61a24.69,24.69,0,0,0-2.88-.46h-.01A27.926,27.926,0,0,0,37.5,9.6V37.5l8.62-26.54A26.565,26.565,0,0,0,43.3,10.21Zm5.55,1.8a27.257,27.257,0,0,0-5.55-1.8,24.69,24.69,0,0,0-2.88-.46h-.01A27.926,27.926,0,0,0,37.5,9.6V37.5L51.45,13.34A25.45,25.45,0,0,0,48.85,12.01Zm5.05,2.92a24.42,24.42,0,0,0-2.45-1.59,25.45,25.45,0,0,0-2.6-1.33,27.257,27.257,0,0,0-5.55-1.8,24.69,24.69,0,0,0-2.88-.46h-.01A27.926,27.926,0,0,0,37.5,9.6V37.5L56.17,16.77A24.989,24.989,0,0,0,53.9,14.93Zm4.33,3.9a28.6,28.6,0,0,0-2.06-2.06,24.989,24.989,0,0,0-2.27-1.84,24.42,24.42,0,0,0-2.45-1.59,25.45,25.45,0,0,0-2.6-1.33,27.257,27.257,0,0,0-5.55-1.8,24.69,24.69,0,0,0-2.88-.46h-.01A27.926,27.926,0,0,0,37.5,9.6V37.5L60.07,21.1A24.989,24.989,0,0,0,58.23,18.83Zm3.43,4.72a24.42,24.42,0,0,0-1.59-2.45,24.989,24.989,0,0,0-1.84-2.27,28.6,28.6,0,0,0-2.06-2.06,24.989,24.989,0,0,0-2.27-1.84,24.42,24.42,0,0,0-2.45-1.59,25.45,25.45,0,0,0-2.6-1.33,27.257,27.257,0,0,0-5.55-1.8,24.69,24.69,0,0,0-2.88-.46h-.01A27.926,27.926,0,0,0,37.5,9.6V37.5L62.99,26.15A25.45,25.45,0,0,0,61.66,23.55Zm3.13,8.15a27.257,27.257,0,0,0-1.8-5.55,25.45,25.45,0,0,0-1.33-2.6,24.42,24.42,0,0,0-1.59-2.45,24.989,24.989,0,0,0-1.84-2.27,28.6,28.6,0,0,0-2.06-2.06,24.989,24.989,0,0,0-2.27-1.84,24.42,24.42,0,0,0-2.45-1.59,25.45,25.45,0,0,0-2.6-1.33,27.257,27.257,0,0,0-5.55-1.8,24.69,24.69,0,0,0-2.88-.46h-.01A27.926,27.926,0,0,0,37.5,9.6V37.5l27.75-2.91v-.01A24.69,24.69,0,0,0,64.79,31.7Zm.46,2.89v-.01a24.69,24.69,0,0,0-.46-2.88,27.257,27.257,0,0,0-1.8-5.55,25.45,25.45,0,0,0-1.33-2.6,24.42,24.42,0,0,0-1.59-2.45,24.989,24.989,0,0,0-1.84-2.27,28.6,28.6,0,0,0-2.06-2.06,24.989,24.989,0,0,0-2.27-1.84,24.42,24.42,0,0,0-2.45-1.59,25.45,25.45,0,0,0-2.6-1.33,27.257,27.257,0,0,0-5.55-1.8,24.69,24.69,0,0,0-2.88-.46h-.01A27.926,27.926,0,0,0,37.5,9.6V37.5H65.4A27.926,27.926,0,0,0,65.25,34.59Zm0,0v-.01a24.69,24.69,0,0,0-.46-2.88,27.257,27.257,0,0,0-1.8-5.55,25.45,25.45,0,0,0-1.33-2.6,24.42,24.42,0,0,0-1.59-2.45,24.989,24.989,0,0,0-1.84-2.27,28.6,28.6,0,0,0-2.06-2.06,24.989,24.989,0,0,0-2.27-1.84,24.42,24.42,0,0,0-2.45-1.59,25.45,25.45,0,0,0-2.6-1.33,27.257,27.257,0,0,0-5.55-1.8,24.69,24.69,0,0,0-2.88-.46h-.01A27.926,27.926,0,0,0,37.5,9.6V37.5l27.29,5.8a24.69,24.69,0,0,0,.46-2.88v-.01a28.3,28.3,0,0,0,0-5.82Zm0,0v-.01a24.69,24.69,0,0,0-.46-2.88,27.257,27.257,0,0,0-1.8-5.55,25.45,25.45,0,0,0-1.33-2.6,24.42,24.42,0,0,0-1.59-2.45,24.989,24.989,0,0,0-1.84-2.27,28.6,28.6,0,0,0-2.06-2.06,24.989,24.989,0,0,0-2.27-1.84,24.42,24.42,0,0,0-2.45-1.59,25.45,25.45,0,0,0-2.6-1.33,27.257,27.257,0,0,0-5.55-1.8,24.69,24.69,0,0,0-2.88-.46h-.01A27.926,27.926,0,0,0,37.5,9.6V37.5L62.99,48.85a27.257,27.257,0,0,0,1.8-5.55,24.69,24.69,0,0,0,.46-2.88v-.01a28.3,28.3,0,0,0,0-5.82Zm0,0v-.01a24.69,24.69,0,0,0-.46-2.88,27.257,27.257,0,0,0-1.8-5.55,25.45,25.45,0,0,0-1.33-2.6,24.42,24.42,0,0,0-1.59-2.45,24.989,24.989,0,0,0-1.84-2.27,28.6,28.6,0,0,0-2.06-2.06,24.989,24.989,0,0,0-2.27-1.84,24.42,24.42,0,0,0-2.45-1.59,25.45,25.45,0,0,0-2.6-1.33,27.257,27.257,0,0,0-5.55-1.8,24.69,24.69,0,0,0-2.88-.46h-.01A27.926,27.926,0,0,0,37.5,9.6V37.5L60.07,53.9a24.42,24.42,0,0,0,1.59-2.45,25.45,25.45,0,0,0,1.33-2.6,27.257,27.257,0,0,0,1.8-5.55,24.69,24.69,0,0,0,.46-2.88v-.01a28.3,28.3,0,0,0,0-5.82Zm0,0v-.01a24.69,24.69,0,0,0-.46-2.88,27.257,27.257,0,0,0-1.8-5.55,25.45,25.45,0,0,0-1.33-2.6,24.42,24.42,0,0,0-1.59-2.45,24.989,24.989,0,0,0-1.84-2.27,28.6,28.6,0,0,0-2.06-2.06,24.989,24.989,0,0,0-2.27-1.84,24.42,24.42,0,0,0-2.45-1.59,25.45,25.45,0,0,0-2.6-1.33,27.257,27.257,0,0,0-5.55-1.8,24.69,24.69,0,0,0-2.88-.46h-.01A27.926,27.926,0,0,0,37.5,9.6V37.5L56.17,58.23a28.6,28.6,0,0,0,2.06-2.06,24.989,24.989,0,0,0,1.84-2.27,24.42,24.42,0,0,0,1.59-2.45,25.45,25.45,0,0,0,1.33-2.6,27.257,27.257,0,0,0,1.8-5.55,24.69,24.69,0,0,0,.46-2.88v-.01a28.3,28.3,0,0,0,0-5.82Zm0,0v-.01a24.69,24.69,0,0,0-.46-2.88,27.257,27.257,0,0,0-1.8-5.55,25.45,25.45,0,0,0-1.33-2.6,24.42,24.42,0,0,0-1.59-2.45,24.989,24.989,0,0,0-1.84-2.27,28.6,28.6,0,0,0-2.06-2.06,24.989,24.989,0,0,0-2.27-1.84,24.42,24.42,0,0,0-2.45-1.59,25.45,25.45,0,0,0-2.6-1.33,27.257,27.257,0,0,0-5.55-1.8,24.69,24.69,0,0,0-2.88-.46h-.01A27.926,27.926,0,0,0,37.5,9.6V37.5L51.45,61.66a24.42,24.42,0,0,0,2.45-1.59,24.989,24.989,0,0,0,2.27-1.84,28.6,28.6,0,0,0,2.06-2.06,24.989,24.989,0,0,0,1.84-2.27,24.42,24.42,0,0,0,1.59-2.45,25.45,25.45,0,0,0,1.33-2.6,27.257,27.257,0,0,0,1.8-5.55,24.69,24.69,0,0,0,.46-2.88v-.01a28.3,28.3,0,0,0,0-5.82Zm0,0v-.01a24.69,24.69,0,0,0-.46-2.88,27.257,27.257,0,0,0-1.8-5.55,25.45,25.45,0,0,0-1.33-2.6,24.42,24.42,0,0,0-1.59-2.45,24.989,24.989,0,0,0-1.84-2.27,28.6,28.6,0,0,0-2.06-2.06,24.989,24.989,0,0,0-2.27-1.84,24.42,24.42,0,0,0-2.45-1.59,25.45,25.45,0,0,0-2.6-1.33,27.257,27.257,0,0,0-5.55-1.8,24.69,24.69,0,0,0-2.88-.46h-.01A27.926,27.926,0,0,0,37.5,9.6V37.5l8.62,26.54a26.5,26.5,0,0,0,2.73-1.05,25.45,25.45,0,0,0,2.6-1.33,24.42,24.42,0,0,0,2.45-1.59,24.989,24.989,0,0,0,2.27-1.84,28.6,28.6,0,0,0,2.06-2.06,24.989,24.989,0,0,0,1.84-2.27,24.42,24.42,0,0,0,1.59-2.45,25.45,25.45,0,0,0,1.33-2.6,27.257,27.257,0,0,0,1.8-5.55,24.69,24.69,0,0,0,.46-2.88v-.01a28.3,28.3,0,0,0,0-5.82Zm0,0v-.01a24.69,24.69,0,0,0-.46-2.88,27.257,27.257,0,0,0-1.8-5.55,25.45,25.45,0,0,0-1.33-2.6,24.42,24.42,0,0,0-1.59-2.45,24.989,24.989,0,0,0-1.84-2.27,28.6,28.6,0,0,0-2.06-2.06,24.989,24.989,0,0,0-2.27-1.84,24.42,24.42,0,0,0-2.45-1.59,25.45,25.45,0,0,0-2.6-1.33,27.257,27.257,0,0,0-5.55-1.8,24.69,24.69,0,0,0-2.88-.46h-.01A27.926,27.926,0,0,0,37.5,9.6V37.5l2.92,27.75a24.69,24.69,0,0,0,2.88-.46,27.257,27.257,0,0,0,5.55-1.8,25.45,25.45,0,0,0,2.6-1.33,24.42,24.42,0,0,0,2.45-1.59,24.989,24.989,0,0,0,2.27-1.84,28.6,28.6,0,0,0,2.06-2.06,24.989,24.989,0,0,0,1.84-2.27,24.42,24.42,0,0,0,1.59-2.45,25.45,25.45,0,0,0,1.33-2.6,27.257,27.257,0,0,0,1.8-5.55,24.69,24.69,0,0,0,.46-2.88v-.01a28.3,28.3,0,0,0,0-5.82Zm0,0v-.01a24.69,24.69,0,0,0-.46-2.88,27.257,27.257,0,0,0-1.8-5.55,25.45,25.45,0,0,0-1.33-2.6,24.42,24.42,0,0,0-1.59-2.45,24.989,24.989,0,0,0-1.84-2.27,28.6,28.6,0,0,0-2.06-2.06,24.989,24.989,0,0,0-2.27-1.84,24.42,24.42,0,0,0-2.45-1.59,25.45,25.45,0,0,0-2.6-1.33,27.257,27.257,0,0,0-5.55-1.8,24.69,24.69,0,0,0-2.88-.46h-.01A27.926,27.926,0,0,0,37.5,9.6V37.5L34.59,65.25a28.4,28.4,0,0,0,5.83,0,24.69,24.69,0,0,0,2.88-.46,27.257,27.257,0,0,0,5.55-1.8,25.45,25.45,0,0,0,2.6-1.33,24.42,24.42,0,0,0,2.45-1.59,24.989,24.989,0,0,0,2.27-1.84,28.6,28.6,0,0,0,2.06-2.06,24.989,24.989,0,0,0,1.84-2.27,24.42,24.42,0,0,0,1.59-2.45,25.45,25.45,0,0,0,1.33-2.6,27.257,27.257,0,0,0,1.8-5.55,24.69,24.69,0,0,0,.46-2.88v-.01a28.3,28.3,0,0,0,0-5.82Zm0,0v-.01a24.69,24.69,0,0,0-.46-2.88,27.257,27.257,0,0,0-1.8-5.55,25.45,25.45,0,0,0-1.33-2.6,24.42,24.42,0,0,0-1.59-2.45,24.989,24.989,0,0,0-1.84-2.27,28.6,28.6,0,0,0-2.06-2.06,24.989,24.989,0,0,0-2.27-1.84,24.42,24.42,0,0,0-2.45-1.59,25.45,25.45,0,0,0-2.6-1.33,27.257,27.257,0,0,0-5.55-1.8,24.69,24.69,0,0,0-2.88-.46h-.01A27.926,27.926,0,0,0,37.5,9.6V37.5L28.88,64.04a26.565,26.565,0,0,0,2.82.75,24.69,24.69,0,0,0,2.88.46h.01a28.4,28.4,0,0,0,5.83,0,24.69,24.69,0,0,0,2.88-.46,27.257,27.257,0,0,0,5.55-1.8,25.45,25.45,0,0,0,2.6-1.33,24.42,24.42,0,0,0,2.45-1.59,24.989,24.989,0,0,0,2.27-1.84,28.6,28.6,0,0,0,2.06-2.06,24.989,24.989,0,0,0,1.84-2.27,24.42,24.42,0,0,0,1.59-2.45,25.45,25.45,0,0,0,1.33-2.6,27.257,27.257,0,0,0,1.8-5.55,24.69,24.69,0,0,0,.46-2.88v-.01a28.3,28.3,0,0,0,0-5.82Zm0,0v-.01a24.69,24.69,0,0,0-.46-2.88,27.257,27.257,0,0,0-1.8-5.55,25.45,25.45,0,0,0-1.33-2.6,24.42,24.42,0,0,0-1.59-2.45,24.989,24.989,0,0,0-1.84-2.27,28.6,28.6,0,0,0-2.06-2.06,24.989,24.989,0,0,0-2.27-1.84,24.42,24.42,0,0,0-2.45-1.59,25.45,25.45,0,0,0-2.6-1.33,27.257,27.257,0,0,0-5.55-1.8,24.69,24.69,0,0,0-2.88-.46h-.01A27.926,27.926,0,0,0,37.5,9.6V37.5L23.55,61.66a25.45,25.45,0,0,0,2.6,1.33,27.257,27.257,0,0,0,5.55,1.8,24.69,24.69,0,0,0,2.88.46h.01a28.4,28.4,0,0,0,5.83,0,24.69,24.69,0,0,0,2.88-.46,27.257,27.257,0,0,0,5.55-1.8,25.45,25.45,0,0,0,2.6-1.33,24.42,24.42,0,0,0,2.45-1.59,24.989,24.989,0,0,0,2.27-1.84,28.6,28.6,0,0,0,2.06-2.06,24.989,24.989,0,0,0,1.84-2.27,24.42,24.42,0,0,0,1.59-2.45,25.45,25.45,0,0,0,1.33-2.6,27.257,27.257,0,0,0,1.8-5.55,24.69,24.69,0,0,0,.46-2.88v-.01a28.3,28.3,0,0,0,0-5.82Zm0,0v-.01a24.69,24.69,0,0,0-.46-2.88,27.257,27.257,0,0,0-1.8-5.55,25.45,25.45,0,0,0-1.33-2.6,24.42,24.42,0,0,0-1.59-2.45,24.989,24.989,0,0,0-1.84-2.27,28.6,28.6,0,0,0-2.06-2.06,24.989,24.989,0,0,0-2.27-1.84,24.42,24.42,0,0,0-2.45-1.59,25.45,25.45,0,0,0-2.6-1.33,27.257,27.257,0,0,0-5.55-1.8,24.69,24.69,0,0,0-2.88-.46h-.01A27.926,27.926,0,0,0,37.5,9.6V37.5L18.83,58.23a24.989,24.989,0,0,0,2.27,1.84,24.42,24.42,0,0,0,2.45,1.59,25.45,25.45,0,0,0,2.6,1.33,27.257,27.257,0,0,0,5.55,1.8,24.69,24.69,0,0,0,2.88.46h.01a28.4,28.4,0,0,0,5.83,0,24.69,24.69,0,0,0,2.88-.46,27.257,27.257,0,0,0,5.55-1.8,25.45,25.45,0,0,0,2.6-1.33,24.42,24.42,0,0,0,2.45-1.59,24.989,24.989,0,0,0,2.27-1.84,28.6,28.6,0,0,0,2.06-2.06,24.989,24.989,0,0,0,1.84-2.27,24.42,24.42,0,0,0,1.59-2.45,25.45,25.45,0,0,0,1.33-2.6,27.257,27.257,0,0,0,1.8-5.55,24.69,24.69,0,0,0,.46-2.88v-.01a28.3,28.3,0,0,0,0-5.82Zm0,0v-.01a24.69,24.69,0,0,0-.46-2.88,27.257,27.257,0,0,0-1.8-5.55,25.45,25.45,0,0,0-1.33-2.6,24.42,24.42,0,0,0-1.59-2.45,24.989,24.989,0,0,0-1.84-2.27,28.6,28.6,0,0,0-2.06-2.06,24.989,24.989,0,0,0-2.27-1.84,24.42,24.42,0,0,0-2.45-1.59,25.45,25.45,0,0,0-2.6-1.33,27.257,27.257,0,0,0-5.55-1.8,24.69,24.69,0,0,0-2.88-.46h-.01A27.926,27.926,0,0,0,37.5,9.6V37.5L14.93,53.9a24.989,24.989,0,0,0,1.84,2.27,28.6,28.6,0,0,0,2.06,2.06,24.989,24.989,0,0,0,2.27,1.84,24.42,24.42,0,0,0,2.45,1.59,25.45,25.45,0,0,0,2.6,1.33,27.257,27.257,0,0,0,5.55,1.8,24.69,24.69,0,0,0,2.88.46h.01a28.4,28.4,0,0,0,5.83,0,24.69,24.69,0,0,0,2.88-.46,27.257,27.257,0,0,0,5.55-1.8,25.45,25.45,0,0,0,2.6-1.33,24.42,24.42,0,0,0,2.45-1.59,24.989,24.989,0,0,0,2.27-1.84,28.6,28.6,0,0,0,2.06-2.06,24.989,24.989,0,0,0,1.84-2.27,24.42,24.42,0,0,0,1.59-2.45,25.45,25.45,0,0,0,1.33-2.6,27.257,27.257,0,0,0,1.8-5.55,24.69,24.69,0,0,0,.46-2.88v-.01a28.3,28.3,0,0,0,0-5.82Zm0,0v-.01a24.69,24.69,0,0,0-.46-2.88,27.257,27.257,0,0,0-1.8-5.55,25.45,25.45,0,0,0-1.33-2.6,24.42,24.42,0,0,0-1.59-2.45,24.989,24.989,0,0,0-1.84-2.27,28.6,28.6,0,0,0-2.06-2.06,24.989,24.989,0,0,0-2.27-1.84,24.42,24.42,0,0,0-2.45-1.59,25.45,25.45,0,0,0-2.6-1.33,27.257,27.257,0,0,0-5.55-1.8,24.69,24.69,0,0,0-2.88-.46h-.01A27.926,27.926,0,0,0,37.5,9.6V37.5L12.01,48.85a25.45,25.45,0,0,0,1.33,2.6,24.42,24.42,0,0,0,1.59,2.45,24.989,24.989,0,0,0,1.84,2.27,28.6,28.6,0,0,0,2.06,2.06,24.989,24.989,0,0,0,2.27,1.84,24.42,24.42,0,0,0,2.45,1.59,25.45,25.45,0,0,0,2.6,1.33,27.257,27.257,0,0,0,5.55,1.8,24.69,24.69,0,0,0,2.88.46h.01a28.4,28.4,0,0,0,5.83,0,24.69,24.69,0,0,0,2.88-.46,27.257,27.257,0,0,0,5.55-1.8,25.45,25.45,0,0,0,2.6-1.33,24.42,24.42,0,0,0,2.45-1.59,24.989,24.989,0,0,0,2.27-1.84,28.6,28.6,0,0,0,2.06-2.06,24.989,24.989,0,0,0,1.84-2.27,24.42,24.42,0,0,0,1.59-2.45,25.45,25.45,0,0,0,1.33-2.6,27.257,27.257,0,0,0,1.8-5.55,24.69,24.69,0,0,0,.46-2.88v-.01a28.3,28.3,0,0,0,0-5.82Zm0,0v-.01a24.69,24.69,0,0,0-.46-2.88,27.257,27.257,0,0,0-1.8-5.55,25.45,25.45,0,0,0-1.33-2.6,24.42,24.42,0,0,0-1.59-2.45,24.989,24.989,0,0,0-1.84-2.27,28.6,28.6,0,0,0-2.06-2.06,24.989,24.989,0,0,0-2.27-1.84,24.42,24.42,0,0,0-2.45-1.59,25.45,25.45,0,0,0-2.6-1.33,27.257,27.257,0,0,0-5.55-1.8,24.69,24.69,0,0,0-2.88-.46h-.01A27.926,27.926,0,0,0,37.5,9.6V37.5L10.21,43.3a27.257,27.257,0,0,0,1.8,5.55,25.45,25.45,0,0,0,1.33,2.6,24.42,24.42,0,0,0,1.59,2.45,24.989,24.989,0,0,0,1.84,2.27,28.6,28.6,0,0,0,2.06,2.06,24.989,24.989,0,0,0,2.27,1.84,24.42,24.42,0,0,0,2.45,1.59,25.45,25.45,0,0,0,2.6,1.33,27.257,27.257,0,0,0,5.55,1.8,24.69,24.69,0,0,0,2.88.46h.01a28.4,28.4,0,0,0,5.83,0,24.69,24.69,0,0,0,2.88-.46,27.257,27.257,0,0,0,5.55-1.8,25.45,25.45,0,0,0,2.6-1.33,24.42,24.42,0,0,0,2.45-1.59,24.989,24.989,0,0,0,2.27-1.84,28.6,28.6,0,0,0,2.06-2.06,24.989,24.989,0,0,0,1.84-2.27,24.42,24.42,0,0,0,1.59-2.45,25.45,25.45,0,0,0,1.33-2.6,27.257,27.257,0,0,0,1.8-5.55,24.69,24.69,0,0,0,.46-2.88v-.01a28.3,28.3,0,0,0,0-5.82Zm0,0v-.01a24.69,24.69,0,0,0-.46-2.88,27.257,27.257,0,0,0-1.8-5.55,25.45,25.45,0,0,0-1.33-2.6,24.42,24.42,0,0,0-1.59-2.45,24.989,24.989,0,0,0-1.84-2.27,28.6,28.6,0,0,0-2.06-2.06,24.989,24.989,0,0,0-2.27-1.84,24.42,24.42,0,0,0-2.45-1.59,25.45,25.45,0,0,0-2.6-1.33,27.257,27.257,0,0,0-5.55-1.8,24.69,24.69,0,0,0-2.88-.46h-.01A27.926,27.926,0,0,0,37.5,9.6V37.5H9.6a27.926,27.926,0,0,0,.15,2.91v.01a24.69,24.69,0,0,0,.46,2.88,27.257,27.257,0,0,0,1.8,5.55,25.45,25.45,0,0,0,1.33,2.6,24.42,24.42,0,0,0,1.59,2.45,24.989,24.989,0,0,0,1.84,2.27,28.6,28.6,0,0,0,2.06,2.06,24.989,24.989,0,0,0,2.27,1.84,24.42,24.42,0,0,0,2.45,1.59,25.45,25.45,0,0,0,2.6,1.33,27.257,27.257,0,0,0,5.55,1.8,24.69,24.69,0,0,0,2.88.46h.01a28.4,28.4,0,0,0,5.83,0,24.69,24.69,0,0,0,2.88-.46,27.257,27.257,0,0,0,5.55-1.8,25.45,25.45,0,0,0,2.6-1.33,24.42,24.42,0,0,0,2.45-1.59,24.989,24.989,0,0,0,2.27-1.84,28.6,28.6,0,0,0,2.06-2.06,24.989,24.989,0,0,0,1.84-2.27,24.42,24.42,0,0,0,1.59-2.45,25.45,25.45,0,0,0,1.33-2.6,27.257,27.257,0,0,0,1.8-5.55,24.69,24.69,0,0,0,.46-2.88v-.01a28.3,28.3,0,0,0,0-5.82Zm0,0v-.01a24.69,24.69,0,0,0-.46-2.88,27.257,27.257,0,0,0-1.8-5.55,25.45,25.45,0,0,0-1.33-2.6,24.42,24.42,0,0,0-1.59-2.45,24.989,24.989,0,0,0-1.84-2.27,28.6,28.6,0,0,0-2.06-2.06,24.989,24.989,0,0,0-2.27-1.84,24.42,24.42,0,0,0-2.45-1.59,25.45,25.45,0,0,0-2.6-1.33,27.257,27.257,0,0,0-5.55-1.8,24.69,24.69,0,0,0-2.88-.46h-.01A27.926,27.926,0,0,0,37.5,9.6V37.5L10.21,31.7a24.69,24.69,0,0,0-.46,2.88v.01a28.3,28.3,0,0,0,0,5.82v.01a24.69,24.69,0,0,0,.46,2.88,27.257,27.257,0,0,0,1.8,5.55,25.45,25.45,0,0,0,1.33,2.6,24.42,24.42,0,0,0,1.59,2.45,24.989,24.989,0,0,0,1.84,2.27,28.6,28.6,0,0,0,2.06,2.06,24.989,24.989,0,0,0,2.27,1.84,24.42,24.42,0,0,0,2.45,1.59,25.45,25.45,0,0,0,2.6,1.33,27.257,27.257,0,0,0,5.55,1.8,24.69,24.69,0,0,0,2.88.46h.01a28.4,28.4,0,0,0,5.83,0,24.69,24.69,0,0,0,2.88-.46,27.257,27.257,0,0,0,5.55-1.8,25.45,25.45,0,0,0,2.6-1.33,24.42,24.42,0,0,0,2.45-1.59,24.989,24.989,0,0,0,2.27-1.84,28.6,28.6,0,0,0,2.06-2.06,24.989,24.989,0,0,0,1.84-2.27,24.42,24.42,0,0,0,1.59-2.45,25.45,25.45,0,0,0,1.33-2.6,27.257,27.257,0,0,0,1.8-5.55,24.69,24.69,0,0,0,.46-2.88v-.01a28.3,28.3,0,0,0,0-5.82Zm0,0v-.01a24.69,24.69,0,0,0-.46-2.88,27.257,27.257,0,0,0-1.8-5.55,25.45,25.45,0,0,0-1.33-2.6,24.42,24.42,0,0,0-1.59-2.45,24.989,24.989,0,0,0-1.84-2.27,28.6,28.6,0,0,0-2.06-2.06,24.989,24.989,0,0,0-2.27-1.84,24.42,24.42,0,0,0-2.45-1.59,25.45,25.45,0,0,0-2.6-1.33,27.257,27.257,0,0,0-5.55-1.8,24.69,24.69,0,0,0-2.88-.46h-.01A27.926,27.926,0,0,0,37.5,9.6V37.5L12.01,26.15a27.257,27.257,0,0,0-1.8,5.55,24.69,24.69,0,0,0-.46,2.88v.01a28.3,28.3,0,0,0,0,5.82v.01a24.69,24.69,0,0,0,.46,2.88,27.257,27.257,0,0,0,1.8,5.55,25.45,25.45,0,0,0,1.33,2.6,24.42,24.42,0,0,0,1.59,2.45,24.989,24.989,0,0,0,1.84,2.27,28.6,28.6,0,0,0,2.06,2.06,24.989,24.989,0,0,0,2.27,1.84,24.42,24.42,0,0,0,2.45,1.59,25.45,25.45,0,0,0,2.6,1.33,27.257,27.257,0,0,0,5.55,1.8,24.69,24.69,0,0,0,2.88.46h.01a28.4,28.4,0,0,0,5.83,0,24.69,24.69,0,0,0,2.88-.46,27.257,27.257,0,0,0,5.55-1.8,25.45,25.45,0,0,0,2.6-1.33,24.42,24.42,0,0,0,2.45-1.59,24.989,24.989,0,0,0,2.27-1.84,28.6,28.6,0,0,0,2.06-2.06,24.989,24.989,0,0,0,1.84-2.27,24.42,24.42,0,0,0,1.59-2.45,25.45,25.45,0,0,0,1.33-2.6,27.257,27.257,0,0,0,1.8-5.55,24.69,24.69,0,0,0,.46-2.88v-.01a28.3,28.3,0,0,0,0-5.82Zm0,0v-.01a24.69,24.69,0,0,0-.46-2.88,27.257,27.257,0,0,0-1.8-5.55,25.45,25.45,0,0,0-1.33-2.6,24.42,24.42,0,0,0-1.59-2.45,24.989,24.989,0,0,0-1.84-2.27,28.6,28.6,0,0,0-2.06-2.06,24.989,24.989,0,0,0-2.27-1.84,24.42,24.42,0,0,0-2.45-1.59,25.45,25.45,0,0,0-2.6-1.33,27.257,27.257,0,0,0-5.55-1.8,24.69,24.69,0,0,0-2.88-.46h-.01A27.926,27.926,0,0,0,37.5,9.6V37.5L14.93,21.1a24.42,24.42,0,0,0-1.59,2.45,25.45,25.45,0,0,0-1.33,2.6,27.257,27.257,0,0,0-1.8,5.55,24.69,24.69,0,0,0-.46,2.88v.01a28.3,28.3,0,0,0,0,5.82v.01a24.69,24.69,0,0,0,.46,2.88,27.257,27.257,0,0,0,1.8,5.55,25.45,25.45,0,0,0,1.33,2.6,24.42,24.42,0,0,0,1.59,2.45,24.989,24.989,0,0,0,1.84,2.27,28.6,28.6,0,0,0,2.06,2.06,24.989,24.989,0,0,0,2.27,1.84,24.42,24.42,0,0,0,2.45,1.59,25.45,25.45,0,0,0,2.6,1.33,27.257,27.257,0,0,0,5.55,1.8,24.69,24.69,0,0,0,2.88.46h.01a28.4,28.4,0,0,0,5.83,0,24.69,24.69,0,0,0,2.88-.46,27.257,27.257,0,0,0,5.55-1.8,25.45,25.45,0,0,0,2.6-1.33,24.42,24.42,0,0,0,2.45-1.59,24.989,24.989,0,0,0,2.27-1.84,28.6,28.6,0,0,0,2.06-2.06,24.989,24.989,0,0,0,1.84-2.27,24.42,24.42,0,0,0,1.59-2.45,25.45,25.45,0,0,0,1.33-2.6,27.257,27.257,0,0,0,1.8-5.55,24.69,24.69,0,0,0,.46-2.88v-.01a28.3,28.3,0,0,0,0-5.82Zm0,0v-.01a24.69,24.69,0,0,0-.46-2.88,27.257,27.257,0,0,0-1.8-5.55,25.45,25.45,0,0,0-1.33-2.6,24.42,24.42,0,0,0-1.59-2.45,24.989,24.989,0,0,0-1.84-2.27,28.6,28.6,0,0,0-2.06-2.06,24.989,24.989,0,0,0-2.27-1.84,24.42,24.42,0,0,0-2.45-1.59,25.45,25.45,0,0,0-2.6-1.33,27.257,27.257,0,0,0-5.55-1.8,24.69,24.69,0,0,0-2.88-.46h-.01A27.926,27.926,0,0,0,37.5,9.6V37.5L18.83,16.77a28.6,28.6,0,0,0-2.06,2.06,24.989,24.989,0,0,0-1.84,2.27,24.42,24.42,0,0,0-1.59,2.45,25.45,25.45,0,0,0-1.33,2.6,27.257,27.257,0,0,0-1.8,5.55,24.69,24.69,0,0,0-.46,2.88v.01a28.3,28.3,0,0,0,0,5.82v.01a24.69,24.69,0,0,0,.46,2.88,27.257,27.257,0,0,0,1.8,5.55,25.45,25.45,0,0,0,1.33,2.6,24.42,24.42,0,0,0,1.59,2.45,24.989,24.989,0,0,0,1.84,2.27,28.6,28.6,0,0,0,2.06,2.06,24.989,24.989,0,0,0,2.27,1.84,24.42,24.42,0,0,0,2.45,1.59,25.45,25.45,0,0,0,2.6,1.33,27.257,27.257,0,0,0,5.55,1.8,24.69,24.69,0,0,0,2.88.46h.01a28.4,28.4,0,0,0,5.83,0,24.69,24.69,0,0,0,2.88-.46,27.257,27.257,0,0,0,5.55-1.8,25.45,25.45,0,0,0,2.6-1.33,24.42,24.42,0,0,0,2.45-1.59,24.989,24.989,0,0,0,2.27-1.84,28.6,28.6,0,0,0,2.06-2.06,24.989,24.989,0,0,0,1.84-2.27,24.42,24.42,0,0,0,1.59-2.45,25.45,25.45,0,0,0,1.33-2.6,27.257,27.257,0,0,0,1.8-5.55,24.69,24.69,0,0,0,.46-2.88v-.01a28.3,28.3,0,0,0,0-5.82Zm0,0v-.01a24.69,24.69,0,0,0-.46-2.88,27.257,27.257,0,0,0-1.8-5.55,25.45,25.45,0,0,0-1.33-2.6,24.42,24.42,0,0,0-1.59-2.45,24.989,24.989,0,0,0-1.84-2.27,28.6,28.6,0,0,0-2.06-2.06,24.989,24.989,0,0,0-2.27-1.84,24.42,24.42,0,0,0-2.45-1.59,25.45,25.45,0,0,0-2.6-1.33,27.257,27.257,0,0,0-5.55-1.8,24.69,24.69,0,0,0-2.88-.46h-.01A27.926,27.926,0,0,0,37.5,9.6V37.5L23.55,13.34a24.42,24.42,0,0,0-2.45,1.59,24.989,24.989,0,0,0-2.27,1.84,28.6,28.6,0,0,0-2.06,2.06,24.989,24.989,0,0,0-1.84,2.27,24.42,24.42,0,0,0-1.59,2.45,25.45,25.45,0,0,0-1.33,2.6,27.257,27.257,0,0,0-1.8,5.55,24.69,24.69,0,0,0-.46,2.88v.01a28.3,28.3,0,0,0,0,5.82v.01a24.69,24.69,0,0,0,.46,2.88,27.257,27.257,0,0,0,1.8,5.55,25.45,25.45,0,0,0,1.33,2.6,24.42,24.42,0,0,0,1.59,2.45,24.989,24.989,0,0,0,1.84,2.27,28.6,28.6,0,0,0,2.06,2.06,24.989,24.989,0,0,0,2.27,1.84,24.42,24.42,0,0,0,2.45,1.59,25.45,25.45,0,0,0,2.6,1.33,27.257,27.257,0,0,0,5.55,1.8,24.69,24.69,0,0,0,2.88.46h.01a28.4,28.4,0,0,0,5.83,0,24.69,24.69,0,0,0,2.88-.46,27.257,27.257,0,0,0,5.55-1.8,25.45,25.45,0,0,0,2.6-1.33,24.42,24.42,0,0,0,2.45-1.59,24.989,24.989,0,0,0,2.27-1.84,28.6,28.6,0,0,0,2.06-2.06,24.989,24.989,0,0,0,1.84-2.27,24.42,24.42,0,0,0,1.59-2.45,25.45,25.45,0,0,0,1.33-2.6,27.257,27.257,0,0,0,1.8-5.55,24.69,24.69,0,0,0,.46-2.88v-.01a28.3,28.3,0,0,0,0-5.82Zm0,0v-.01a24.69,24.69,0,0,0-.46-2.88,27.257,27.257,0,0,0-1.8-5.55,25.45,25.45,0,0,0-1.33-2.6,24.42,24.42,0,0,0-1.59-2.45,24.989,24.989,0,0,0-1.84-2.27,28.6,28.6,0,0,0-2.06-2.06,24.989,24.989,0,0,0-2.27-1.84,24.42,24.42,0,0,0-2.45-1.59,25.45,25.45,0,0,0-2.6-1.33,27.257,27.257,0,0,0-5.55-1.8,24.69,24.69,0,0,0-2.88-.46h-.01a28.4,28.4,0,0,0-5.83,0,24.69,24.69,0,0,0-2.88.46,27.257,27.257,0,0,0-5.55,1.8,25.45,25.45,0,0,0-2.6,1.33,24.42,24.42,0,0,0-2.45,1.59,24.989,24.989,0,0,0-2.27,1.84,28.6,28.6,0,0,0-2.06,2.06,24.989,24.989,0,0,0-1.84,2.27,24.42,24.42,0,0,0-1.59,2.45,25.45,25.45,0,0,0-1.33,2.6,27.257,27.257,0,0,0-1.8,5.55,24.69,24.69,0,0,0-.46,2.88v.01a28.3,28.3,0,0,0,0,5.82v.01a24.69,24.69,0,0,0,.46,2.88,27.257,27.257,0,0,0,1.8,5.55,25.45,25.45,0,0,0,1.33,2.6,24.42,24.42,0,0,0,1.59,2.45,24.989,24.989,0,0,0,1.84,2.27,28.6,28.6,0,0,0,2.06,2.06,24.989,24.989,0,0,0,2.27,1.84,24.42,24.42,0,0,0,2.45,1.59,25.45,25.45,0,0,0,2.6,1.33,27.257,27.257,0,0,0,5.55,1.8,24.69,24.69,0,0,0,2.88.46h.01a28.4,28.4,0,0,0,5.83,0,24.69,24.69,0,0,0,2.88-.46,27.257,27.257,0,0,0,5.55-1.8,25.45,25.45,0,0,0,2.6-1.33,24.42,24.42,0,0,0,2.45-1.59,24.989,24.989,0,0,0,2.27-1.84,28.6,28.6,0,0,0,2.06-2.06,24.989,24.989,0,0,0,1.84-2.27,24.42,24.42,0,0,0,1.59-2.45,25.45,25.45,0,0,0,1.33-2.6,27.257,27.257,0,0,0,1.8-5.55,24.69,24.69,0,0,0,.46-2.88v-.01a28.3,28.3,0,0,0,0-5.82Zm0,0v-.01a24.69,24.69,0,0,0-.46-2.88,27.257,27.257,0,0,0-1.8-5.55,25.45,25.45,0,0,0-1.33-2.6,24.42,24.42,0,0,0-1.59-2.45,24.989,24.989,0,0,0-1.84-2.27,28.6,28.6,0,0,0-2.06-2.06,24.989,24.989,0,0,0-2.27-1.84,24.42,24.42,0,0,0-2.45-1.59,25.45,25.45,0,0,0-2.6-1.33,27.257,27.257,0,0,0-5.55-1.8,24.69,24.69,0,0,0-2.88-.46h-.01a28.4,28.4,0,0,0-5.83,0,24.69,24.69,0,0,0-2.88.46,27.257,27.257,0,0,0-5.55,1.8,25.45,25.45,0,0,0-2.6,1.33,24.42,24.42,0,0,0-2.45,1.59,24.989,24.989,0,0,0-2.27,1.84,28.6,28.6,0,0,0-2.06,2.06,24.989,24.989,0,0,0-1.84,2.27,24.42,24.42,0,0,0-1.59,2.45,25.45,25.45,0,0,0-1.33,2.6,27.257,27.257,0,0,0-1.8,5.55,24.69,24.69,0,0,0-.46,2.88v.01a28.3,28.3,0,0,0,0,5.82v.01a24.69,24.69,0,0,0,.46,2.88,27.257,27.257,0,0,0,1.8,5.55,25.45,25.45,0,0,0,1.33,2.6,24.42,24.42,0,0,0,1.59,2.45,24.989,24.989,0,0,0,1.84,2.27,28.6,28.6,0,0,0,2.06,2.06,24.989,24.989,0,0,0,2.27,1.84,24.42,24.42,0,0,0,2.45,1.59,25.45,25.45,0,0,0,2.6,1.33,27.257,27.257,0,0,0,5.55,1.8,24.69,24.69,0,0,0,2.88.46h.01a28.4,28.4,0,0,0,5.83,0,24.69,24.69,0,0,0,2.88-.46,27.257,27.257,0,0,0,5.55-1.8,25.45,25.45,0,0,0,2.6-1.33,24.42,24.42,0,0,0,2.45-1.59,24.989,24.989,0,0,0,2.27-1.84,28.6,28.6,0,0,0,2.06-2.06,24.989,24.989,0,0,0,1.84-2.27,24.42,24.42,0,0,0,1.59-2.45,25.45,25.45,0,0,0,1.33-2.6,27.257,27.257,0,0,0,1.8-5.55,24.69,24.69,0,0,0,.46-2.88v-.01a28.3,28.3,0,0,0,0-5.82ZM70.82,34a32.587,32.587,0,0,0-.55-3.47,29.508,29.508,0,0,0-.91-3.38,28.831,28.831,0,0,0-1.26-3.28,30.492,30.492,0,0,0-1.59-3.12,30.191,30.191,0,0,0-1.91-2.94,34.091,34.091,0,0,0-2.2-2.73c-.79-.86-1.62-1.69-2.48-2.48a34.091,34.091,0,0,0-2.73-2.2,30.191,30.191,0,0,0-2.94-1.91A30.492,30.492,0,0,0,51.13,6.9a28.831,28.831,0,0,0-3.28-1.26,29.508,29.508,0,0,0-3.38-.91A32.587,32.587,0,0,0,41,4.18a34.118,34.118,0,0,0-7,0,32.587,32.587,0,0,0-3.47.55,29.508,29.508,0,0,0-3.38.91A28.831,28.831,0,0,0,23.87,6.9a30.492,30.492,0,0,0-3.12,1.59,30.191,30.191,0,0,0-2.94,1.91,34.091,34.091,0,0,0-2.73,2.2c-.86.79-1.69,1.62-2.48,2.48a34.091,34.091,0,0,0-2.2,2.73,30.191,30.191,0,0,0-1.91,2.94A30.492,30.492,0,0,0,6.9,23.87a28.831,28.831,0,0,0-1.26,3.28,29.508,29.508,0,0,0-.91,3.38A32.587,32.587,0,0,0,4.18,34a34.118,34.118,0,0,0,0,7,32.587,32.587,0,0,0,.55,3.47,29.508,29.508,0,0,0,.91,3.38A28.831,28.831,0,0,0,6.9,51.13a30.492,30.492,0,0,0,1.59,3.12,30.191,30.191,0,0,0,1.91,2.94,34.091,34.091,0,0,0,2.2,2.73c.79.86,1.62,1.69,2.48,2.48a34.091,34.091,0,0,0,2.73,2.2,30.191,30.191,0,0,0,2.94,1.91,30.492,30.492,0,0,0,3.12,1.59,28.831,28.831,0,0,0,3.28,1.26,29.508,29.508,0,0,0,3.38.91,32.587,32.587,0,0,0,3.47.55,34.118,34.118,0,0,0,7,0,32.587,32.587,0,0,0,3.47-.55,29.508,29.508,0,0,0,3.38-.91,28.831,28.831,0,0,0,3.28-1.26,30.492,30.492,0,0,0,3.12-1.59,30.191,30.191,0,0,0,2.94-1.91,34.091,34.091,0,0,0,2.73-2.2c.86-.79,1.69-1.62,2.48-2.48a34.091,34.091,0,0,0,2.2-2.73,30.191,30.191,0,0,0,1.91-2.94,30.492,30.492,0,0,0,1.59-3.12,28.831,28.831,0,0,0,1.26-3.28,29.508,29.508,0,0,0,.91-3.38A32.587,32.587,0,0,0,70.82,41a34.118,34.118,0,0,0,0-7Zm-2.49,6.74a30.653,30.653,0,0,1-.5,3.21c-.23,1.06-.51,2.11-.84,3.13a31.8,31.8,0,0,1-1.17,3.04A29.976,29.976,0,0,1,64.35,53a28.8,28.8,0,0,1-1.77,2.72,29.153,29.153,0,0,1-2.04,2.52,31.193,31.193,0,0,1-2.3,2.3,29.153,29.153,0,0,1-2.52,2.04A28.8,28.8,0,0,1,53,64.35a29.976,29.976,0,0,1-2.88,1.47,31.8,31.8,0,0,1-3.04,1.17c-1.02.33-2.07.61-3.13.84a30.653,30.653,0,0,1-3.21.5,30.96,30.96,0,0,1-6.48,0,30.653,30.653,0,0,1-3.21-.5c-1.06-.23-2.11-.51-3.13-.84a31.8,31.8,0,0,1-3.04-1.17A29.976,29.976,0,0,1,22,64.35a28.8,28.8,0,0,1-2.72-1.77,29.153,29.153,0,0,1-2.52-2.04,31.193,31.193,0,0,1-2.3-2.3,29.153,29.153,0,0,1-2.04-2.52A28.8,28.8,0,0,1,10.65,53a29.976,29.976,0,0,1-1.47-2.88,31.8,31.8,0,0,1-1.17-3.04c-.33-1.02-.61-2.07-.84-3.13a30.653,30.653,0,0,1-.5-3.21,30.96,30.96,0,0,1,0-6.48,30.653,30.653,0,0,1,.5-3.21c.23-1.06.51-2.11.84-3.13a31.8,31.8,0,0,1,1.17-3.04A29.976,29.976,0,0,1,10.65,22a28.8,28.8,0,0,1,1.77-2.72,29.153,29.153,0,0,1,2.04-2.52,31.193,31.193,0,0,1,2.3-2.3,29.153,29.153,0,0,1,2.52-2.04A28.8,28.8,0,0,1,22,10.65a29.976,29.976,0,0,1,2.88-1.47,31.8,31.8,0,0,1,3.04-1.17c1.02-.33,2.07-.61,3.13-.84a30.653,30.653,0,0,1,3.21-.5,30.96,30.96,0,0,1,6.48,0,30.653,30.653,0,0,1,3.21.5c1.06.23,2.11.51,3.13.84a31.8,31.8,0,0,1,3.04,1.17A29.976,29.976,0,0,1,53,10.65a28.8,28.8,0,0,1,2.72,1.77,29.153,29.153,0,0,1,2.52,2.04,31.193,31.193,0,0,1,2.3,2.3,29.153,29.153,0,0,1,2.04,2.52A28.8,28.8,0,0,1,64.35,22a29.976,29.976,0,0,1,1.47,2.88,31.8,31.8,0,0,1,1.17,3.04c.33,1.02.61,2.07.84,3.13a30.653,30.653,0,0,1,.5,3.21,30.96,30.96,0,0,1,0,6.48Zm-3.08-6.16a24.69,24.69,0,0,0-.46-2.88,27.257,27.257,0,0,0-1.8-5.55,25.45,25.45,0,0,0-1.33-2.6,24.42,24.42,0,0,0-1.59-2.45,24.989,24.989,0,0,0-1.84-2.27,28.6,28.6,0,0,0-2.06-2.06,24.989,24.989,0,0,0-2.27-1.84,24.42,24.42,0,0,0-2.45-1.59,25.45,25.45,0,0,0-2.6-1.33,27.257,27.257,0,0,0-5.55-1.8,24.69,24.69,0,0,0-2.88-.46h-.01a28.4,28.4,0,0,0-5.83,0,24.69,24.69,0,0,0-2.88.46,27.257,27.257,0,0,0-5.55,1.8,25.45,25.45,0,0,0-2.6,1.33,24.42,24.42,0,0,0-2.45,1.59,24.989,24.989,0,0,0-2.27,1.84,28.6,28.6,0,0,0-2.06,2.06,24.989,24.989,0,0,0-1.84,2.27,24.42,24.42,0,0,0-1.59,2.45,25.45,25.45,0,0,0-1.33,2.6,27.257,27.257,0,0,0-1.8,5.55,24.69,24.69,0,0,0-.46,2.88v.01a28.3,28.3,0,0,0,0,5.82v.01a24.69,24.69,0,0,0,.46,2.88,27.257,27.257,0,0,0,1.8,5.55,25.45,25.45,0,0,0,1.33,2.6,24.42,24.42,0,0,0,1.59,2.45,24.989,24.989,0,0,0,1.84,2.27,28.6,28.6,0,0,0,2.06,2.06,24.989,24.989,0,0,0,2.27,1.84,24.42,24.42,0,0,0,2.45,1.59,25.45,25.45,0,0,0,2.6,1.33,27.257,27.257,0,0,0,5.55,1.8,24.69,24.69,0,0,0,2.88.46h.01a28.4,28.4,0,0,0,5.83,0,24.69,24.69,0,0,0,2.88-.46,27.257,27.257,0,0,0,5.55-1.8,25.45,25.45,0,0,0,2.6-1.33,24.42,24.42,0,0,0,2.45-1.59,24.989,24.989,0,0,0,2.27-1.84,28.6,28.6,0,0,0,2.06-2.06,24.989,24.989,0,0,0,1.84-2.27,24.42,24.42,0,0,0,1.59-2.45,25.45,25.45,0,0,0,1.33-2.6,27.257,27.257,0,0,0,1.8-5.55,24.69,24.69,0,0,0,.46-2.88v-.01a28.3,28.3,0,0,0,0-5.82Zm0,.01v-.01a24.69,24.69,0,0,0-.46-2.88,27.257,27.257,0,0,0-1.8-5.55,25.45,25.45,0,0,0-1.33-2.6,24.42,24.42,0,0,0-1.59-2.45,24.989,24.989,0,0,0-1.84-2.27,28.6,28.6,0,0,0-2.06-2.06,24.989,24.989,0,0,0-2.27-1.84,24.42,24.42,0,0,0-2.45-1.59,25.45,25.45,0,0,0-2.6-1.33,27.257,27.257,0,0,0-5.55-1.8,24.69,24.69,0,0,0-2.88-.46h-.01A27.926,27.926,0,0,0,37.5,9.6V37.5L26.15,12.01a25.45,25.45,0,0,0-2.6,1.33,24.42,24.42,0,0,0-2.45,1.59,24.989,24.989,0,0,0-2.27,1.84,28.6,28.6,0,0,0-2.06,2.06,24.989,24.989,0,0,0-1.84,2.27,24.42,24.42,0,0,0-1.59,2.45,25.45,25.45,0,0,0-1.33,2.6,27.257,27.257,0,0,0-1.8,5.55,24.69,24.69,0,0,0-.46,2.88v.01a28.3,28.3,0,0,0,0,5.82v.01a24.69,24.69,0,0,0,.46,2.88,27.257,27.257,0,0,0,1.8,5.55,25.45,25.45,0,0,0,1.33,2.6,24.42,24.42,0,0,0,1.59,2.45,24.989,24.989,0,0,0,1.84,2.27,28.6,28.6,0,0,0,2.06,2.06,24.989,24.989,0,0,0,2.27,1.84,24.42,24.42,0,0,0,2.45,1.59,25.45,25.45,0,0,0,2.6,1.33,27.257,27.257,0,0,0,5.55,1.8,24.69,24.69,0,0,0,2.88.46h.01a28.4,28.4,0,0,0,5.83,0,24.69,24.69,0,0,0,2.88-.46,27.257,27.257,0,0,0,5.55-1.8,25.45,25.45,0,0,0,2.6-1.33,24.42,24.42,0,0,0,2.45-1.59,24.989,24.989,0,0,0,2.27-1.84,28.6,28.6,0,0,0,2.06-2.06,24.989,24.989,0,0,0,1.84-2.27,24.42,24.42,0,0,0,1.59-2.45,25.45,25.45,0,0,0,1.33-2.6,27.257,27.257,0,0,0,1.8-5.55,24.69,24.69,0,0,0,.46-2.88v-.01a28.3,28.3,0,0,0,0-5.82Zm0,0v-.01a24.69,24.69,0,0,0-.46-2.88,27.257,27.257,0,0,0-1.8-5.55,25.45,25.45,0,0,0-1.33-2.6,24.42,24.42,0,0,0-1.59-2.45,24.989,24.989,0,0,0-1.84-2.27,28.6,28.6,0,0,0-2.06-2.06,24.989,24.989,0,0,0-2.27-1.84,24.42,24.42,0,0,0-2.45-1.59,25.45,25.45,0,0,0-2.6-1.33,27.257,27.257,0,0,0-5.55-1.8,24.69,24.69,0,0,0-2.88-.46h-.01A27.926,27.926,0,0,0,37.5,9.6V37.5L21.1,14.93a24.989,24.989,0,0,0-2.27,1.84,28.6,28.6,0,0,0-2.06,2.06,24.989,24.989,0,0,0-1.84,2.27,24.42,24.42,0,0,0-1.59,2.45,25.45,25.45,0,0,0-1.33,2.6,27.257,27.257,0,0,0-1.8,5.55,24.69,24.69,0,0,0-.46,2.88v.01a28.3,28.3,0,0,0,0,5.82v.01a24.69,24.69,0,0,0,.46,2.88,27.257,27.257,0,0,0,1.8,5.55,25.45,25.45,0,0,0,1.33,2.6,24.42,24.42,0,0,0,1.59,2.45,24.989,24.989,0,0,0,1.84,2.27,28.6,28.6,0,0,0,2.06,2.06,24.989,24.989,0,0,0,2.27,1.84,24.42,24.42,0,0,0,2.45,1.59,25.45,25.45,0,0,0,2.6,1.33,27.257,27.257,0,0,0,5.55,1.8,24.69,24.69,0,0,0,2.88.46h.01a28.4,28.4,0,0,0,5.83,0,24.69,24.69,0,0,0,2.88-.46,27.257,27.257,0,0,0,5.55-1.8,25.45,25.45,0,0,0,2.6-1.33,24.42,24.42,0,0,0,2.45-1.59,24.989,24.989,0,0,0,2.27-1.84,28.6,28.6,0,0,0,2.06-2.06,24.989,24.989,0,0,0,1.84-2.27,24.42,24.42,0,0,0,1.59-2.45,25.45,25.45,0,0,0,1.33-2.6,27.257,27.257,0,0,0,1.8-5.55,24.69,24.69,0,0,0,.46-2.88v-.01a28.3,28.3,0,0,0,0-5.82Zm0,0v-.01a24.69,24.69,0,0,0-.46-2.88,27.257,27.257,0,0,0-1.8-5.55,25.45,25.45,0,0,0-1.33-2.6,24.42,24.42,0,0,0-1.59-2.45,24.989,24.989,0,0,0-1.84-2.27,28.6,28.6,0,0,0-2.06-2.06,24.989,24.989,0,0,0-2.27-1.84,24.42,24.42,0,0,0-2.45-1.59,25.45,25.45,0,0,0-2.6-1.33,27.257,27.257,0,0,0-5.55-1.8,24.69,24.69,0,0,0-2.88-.46h-.01A27.926,27.926,0,0,0,37.5,9.6V37.5L16.77,18.83a24.989,24.989,0,0,0-1.84,2.27,24.42,24.42,0,0,0-1.59,2.45,25.45,25.45,0,0,0-1.33,2.6,27.257,27.257,0,0,0-1.8,5.55,24.69,24.69,0,0,0-.46,2.88v.01a28.3,28.3,0,0,0,0,5.82v.01a24.69,24.69,0,0,0,.46,2.88,27.257,27.257,0,0,0,1.8,5.55,25.45,25.45,0,0,0,1.33,2.6,24.42,24.42,0,0,0,1.59,2.45,24.989,24.989,0,0,0,1.84,2.27,28.6,28.6,0,0,0,2.06,2.06,24.989,24.989,0,0,0,2.27,1.84,24.42,24.42,0,0,0,2.45,1.59,25.45,25.45,0,0,0,2.6,1.33,27.257,27.257,0,0,0,5.55,1.8,24.69,24.69,0,0,0,2.88.46h.01a28.4,28.4,0,0,0,5.83,0,24.69,24.69,0,0,0,2.88-.46,27.257,27.257,0,0,0,5.55-1.8,25.45,25.45,0,0,0,2.6-1.33,24.42,24.42,0,0,0,2.45-1.59,24.989,24.989,0,0,0,2.27-1.84,28.6,28.6,0,0,0,2.06-2.06,24.989,24.989,0,0,0,1.84-2.27,24.42,24.42,0,0,0,1.59-2.45,25.45,25.45,0,0,0,1.33-2.6,27.257,27.257,0,0,0,1.8-5.55,24.69,24.69,0,0,0,.46-2.88v-.01a28.3,28.3,0,0,0,0-5.82Zm0,0v-.01a24.69,24.69,0,0,0-.46-2.88,27.257,27.257,0,0,0-1.8-5.55,25.45,25.45,0,0,0-1.33-2.6,24.42,24.42,0,0,0-1.59-2.45,24.989,24.989,0,0,0-1.84-2.27,28.6,28.6,0,0,0-2.06-2.06,24.989,24.989,0,0,0-2.27-1.84,24.42,24.42,0,0,0-2.45-1.59,25.45,25.45,0,0,0-2.6-1.33,27.257,27.257,0,0,0-5.55-1.8,24.69,24.69,0,0,0-2.88-.46h-.01A27.926,27.926,0,0,0,37.5,9.6V37.5L13.34,23.55a25.45,25.45,0,0,0-1.33,2.6,27.257,27.257,0,0,0-1.8,5.55,24.69,24.69,0,0,0-.46,2.88v.01a28.3,28.3,0,0,0,0,5.82v.01a24.69,24.69,0,0,0,.46,2.88,27.257,27.257,0,0,0,1.8,5.55,25.45,25.45,0,0,0,1.33,2.6,24.42,24.42,0,0,0,1.59,2.45,24.989,24.989,0,0,0,1.84,2.27,28.6,28.6,0,0,0,2.06,2.06,24.989,24.989,0,0,0,2.27,1.84,24.42,24.42,0,0,0,2.45,1.59,25.45,25.45,0,0,0,2.6,1.33,27.257,27.257,0,0,0,5.55,1.8,24.69,24.69,0,0,0,2.88.46h.01a28.4,28.4,0,0,0,5.83,0,24.69,24.69,0,0,0,2.88-.46,27.257,27.257,0,0,0,5.55-1.8,25.45,25.45,0,0,0,2.6-1.33,24.42,24.42,0,0,0,2.45-1.59,24.989,24.989,0,0,0,2.27-1.84,28.6,28.6,0,0,0,2.06-2.06,24.989,24.989,0,0,0,1.84-2.27,24.42,24.42,0,0,0,1.59-2.45,25.45,25.45,0,0,0,1.33-2.6,27.257,27.257,0,0,0,1.8-5.55,24.69,24.69,0,0,0,.46-2.88v-.01a28.3,28.3,0,0,0,0-5.82Zm0,0v-.01a24.69,24.69,0,0,0-.46-2.88,27.257,27.257,0,0,0-1.8-5.55,25.45,25.45,0,0,0-1.33-2.6,24.42,24.42,0,0,0-1.59-2.45,24.989,24.989,0,0,0-1.84-2.27,28.6,28.6,0,0,0-2.06-2.06,24.989,24.989,0,0,0-2.27-1.84,24.42,24.42,0,0,0-2.45-1.59,25.45,25.45,0,0,0-2.6-1.33,27.257,27.257,0,0,0-5.55-1.8,24.69,24.69,0,0,0-2.88-.46h-.01A27.926,27.926,0,0,0,37.5,9.6V37.5L10.96,28.88a26.565,26.565,0,0,0-.75,2.82,24.69,24.69,0,0,0-.46,2.88v.01a28.3,28.3,0,0,0,0,5.82v.01a24.69,24.69,0,0,0,.46,2.88,27.257,27.257,0,0,0,1.8,5.55,25.45,25.45,0,0,0,1.33,2.6,24.42,24.42,0,0,0,1.59,2.45,24.989,24.989,0,0,0,1.84,2.27,28.6,28.6,0,0,0,2.06,2.06,24.989,24.989,0,0,0,2.27,1.84,24.42,24.42,0,0,0,2.45,1.59,25.45,25.45,0,0,0,2.6,1.33,27.257,27.257,0,0,0,5.55,1.8,24.69,24.69,0,0,0,2.88.46h.01a28.4,28.4,0,0,0,5.83,0,24.69,24.69,0,0,0,2.88-.46,27.257,27.257,0,0,0,5.55-1.8,25.45,25.45,0,0,0,2.6-1.33,24.42,24.42,0,0,0,2.45-1.59,24.989,24.989,0,0,0,2.27-1.84,28.6,28.6,0,0,0,2.06-2.06,24.989,24.989,0,0,0,1.84-2.27,24.42,24.42,0,0,0,1.59-2.45,25.45,25.45,0,0,0,1.33-2.6,27.257,27.257,0,0,0,1.8-5.55,24.69,24.69,0,0,0,.46-2.88v-.01a28.3,28.3,0,0,0,0-5.82Zm0,0v-.01a24.69,24.69,0,0,0-.46-2.88,27.257,27.257,0,0,0-1.8-5.55,25.45,25.45,0,0,0-1.33-2.6,24.42,24.42,0,0,0-1.59-2.45,24.989,24.989,0,0,0-1.84-2.27,28.6,28.6,0,0,0-2.06-2.06,24.989,24.989,0,0,0-2.27-1.84,24.42,24.42,0,0,0-2.45-1.59,25.45,25.45,0,0,0-2.6-1.33,27.257,27.257,0,0,0-5.55-1.8,24.69,24.69,0,0,0-2.88-.46h-.01A27.926,27.926,0,0,0,37.5,9.6V37.5L9.75,34.59a28.3,28.3,0,0,0,0,5.82v.01a24.69,24.69,0,0,0,.46,2.88,27.257,27.257,0,0,0,1.8,5.55,25.45,25.45,0,0,0,1.33,2.6,24.42,24.42,0,0,0,1.59,2.45,24.989,24.989,0,0,0,1.84,2.27,28.6,28.6,0,0,0,2.06,2.06,24.989,24.989,0,0,0,2.27,1.84,24.42,24.42,0,0,0,2.45,1.59,25.45,25.45,0,0,0,2.6,1.33,27.257,27.257,0,0,0,5.55,1.8,24.69,24.69,0,0,0,2.88.46h.01a28.4,28.4,0,0,0,5.83,0,24.69,24.69,0,0,0,2.88-.46,27.257,27.257,0,0,0,5.55-1.8,25.45,25.45,0,0,0,2.6-1.33,24.42,24.42,0,0,0,2.45-1.59,24.989,24.989,0,0,0,2.27-1.84,28.6,28.6,0,0,0,2.06-2.06,24.989,24.989,0,0,0,1.84-2.27,24.42,24.42,0,0,0,1.59-2.45,25.45,25.45,0,0,0,1.33-2.6,27.257,27.257,0,0,0,1.8-5.55,24.69,24.69,0,0,0,.46-2.88v-.01a28.3,28.3,0,0,0,0-5.82Zm0,0v-.01a24.69,24.69,0,0,0-.46-2.88,27.257,27.257,0,0,0-1.8-5.55,25.45,25.45,0,0,0-1.33-2.6,24.42,24.42,0,0,0-1.59-2.45,24.989,24.989,0,0,0-1.84-2.27,28.6,28.6,0,0,0-2.06-2.06,24.989,24.989,0,0,0-2.27-1.84,24.42,24.42,0,0,0-2.45-1.59,25.45,25.45,0,0,0-2.6-1.33,27.257,27.257,0,0,0-5.55-1.8,24.69,24.69,0,0,0-2.88-.46h-.01A27.926,27.926,0,0,0,37.5,9.6V37.5L9.75,40.41v.01a24.69,24.69,0,0,0,.46,2.88,27.257,27.257,0,0,0,1.8,5.55,25.45,25.45,0,0,0,1.33,2.6,24.42,24.42,0,0,0,1.59,2.45,24.989,24.989,0,0,0,1.84,2.27,28.6,28.6,0,0,0,2.06,2.06,24.989,24.989,0,0,0,2.27,1.84,24.42,24.42,0,0,0,2.45,1.59,25.45,25.45,0,0,0,2.6,1.33,27.257,27.257,0,0,0,5.55,1.8,24.69,24.69,0,0,0,2.88.46h.01a28.4,28.4,0,0,0,5.83,0,24.69,24.69,0,0,0,2.88-.46,27.257,27.257,0,0,0,5.55-1.8,25.45,25.45,0,0,0,2.6-1.33,24.42,24.42,0,0,0,2.45-1.59,24.989,24.989,0,0,0,2.27-1.84,28.6,28.6,0,0,0,2.06-2.06,24.989,24.989,0,0,0,1.84-2.27,24.42,24.42,0,0,0,1.59-2.45,25.45,25.45,0,0,0,1.33-2.6,27.257,27.257,0,0,0,1.8-5.55,24.69,24.69,0,0,0,.46-2.88v-.01a28.3,28.3,0,0,0,0-5.82Zm0,0v-.01a24.69,24.69,0,0,0-.46-2.88,27.257,27.257,0,0,0-1.8-5.55,25.45,25.45,0,0,0-1.33-2.6,24.42,24.42,0,0,0-1.59-2.45,24.989,24.989,0,0,0-1.84-2.27,28.6,28.6,0,0,0-2.06-2.06,24.989,24.989,0,0,0-2.27-1.84,24.42,24.42,0,0,0-2.45-1.59,25.45,25.45,0,0,0-2.6-1.33,27.257,27.257,0,0,0-5.55-1.8,24.69,24.69,0,0,0-2.88-.46h-.01A27.926,27.926,0,0,0,37.5,9.6V37.5L10.96,46.12a26.5,26.5,0,0,0,1.05,2.73,25.45,25.45,0,0,0,1.33,2.6,24.42,24.42,0,0,0,1.59,2.45,24.989,24.989,0,0,0,1.84,2.27,28.6,28.6,0,0,0,2.06,2.06,24.989,24.989,0,0,0,2.27,1.84,24.42,24.42,0,0,0,2.45,1.59,25.45,25.45,0,0,0,2.6,1.33,27.257,27.257,0,0,0,5.55,1.8,24.69,24.69,0,0,0,2.88.46h.01a28.4,28.4,0,0,0,5.83,0,24.69,24.69,0,0,0,2.88-.46,27.257,27.257,0,0,0,5.55-1.8,25.45,25.45,0,0,0,2.6-1.33,24.42,24.42,0,0,0,2.45-1.59,24.989,24.989,0,0,0,2.27-1.84,28.6,28.6,0,0,0,2.06-2.06,24.989,24.989,0,0,0,1.84-2.27,24.42,24.42,0,0,0,1.59-2.45,25.45,25.45,0,0,0,1.33-2.6,27.257,27.257,0,0,0,1.8-5.55,24.69,24.69,0,0,0,.46-2.88v-.01a28.3,28.3,0,0,0,0-5.82Zm0,0v-.01a24.69,24.69,0,0,0-.46-2.88,27.257,27.257,0,0,0-1.8-5.55,25.45,25.45,0,0,0-1.33-2.6,24.42,24.42,0,0,0-1.59-2.45,24.989,24.989,0,0,0-1.84-2.27,28.6,28.6,0,0,0-2.06-2.06,24.989,24.989,0,0,0-2.27-1.84,24.42,24.42,0,0,0-2.45-1.59,25.45,25.45,0,0,0-2.6-1.33,27.257,27.257,0,0,0-5.55-1.8,24.69,24.69,0,0,0-2.88-.46h-.01A27.926,27.926,0,0,0,37.5,9.6V37.5L13.34,51.45a24.42,24.42,0,0,0,1.59,2.45,24.989,24.989,0,0,0,1.84,2.27,28.6,28.6,0,0,0,2.06,2.06,24.989,24.989,0,0,0,2.27,1.84,24.42,24.42,0,0,0,2.45,1.59,25.45,25.45,0,0,0,2.6,1.33,27.257,27.257,0,0,0,5.55,1.8,24.69,24.69,0,0,0,2.88.46h.01a28.4,28.4,0,0,0,5.83,0,24.69,24.69,0,0,0,2.88-.46,27.257,27.257,0,0,0,5.55-1.8,25.45,25.45,0,0,0,2.6-1.33,24.42,24.42,0,0,0,2.45-1.59,24.989,24.989,0,0,0,2.27-1.84,28.6,28.6,0,0,0,2.06-2.06,24.989,24.989,0,0,0,1.84-2.27,24.42,24.42,0,0,0,1.59-2.45,25.45,25.45,0,0,0,1.33-2.6,27.257,27.257,0,0,0,1.8-5.55,24.69,24.69,0,0,0,.46-2.88v-.01a28.3,28.3,0,0,0,0-5.82Zm0,0v-.01a24.69,24.69,0,0,0-.46-2.88,27.257,27.257,0,0,0-1.8-5.55,25.45,25.45,0,0,0-1.33-2.6,24.42,24.42,0,0,0-1.59-2.45,24.989,24.989,0,0,0-1.84-2.27,28.6,28.6,0,0,0-2.06-2.06,24.989,24.989,0,0,0-2.27-1.84,24.42,24.42,0,0,0-2.45-1.59,25.45,25.45,0,0,0-2.6-1.33,27.257,27.257,0,0,0-5.55-1.8,24.69,24.69,0,0,0-2.88-.46h-.01A27.926,27.926,0,0,0,37.5,9.6V37.5L16.77,56.17a28.6,28.6,0,0,0,2.06,2.06,24.989,24.989,0,0,0,2.27,1.84,24.42,24.42,0,0,0,2.45,1.59,25.45,25.45,0,0,0,2.6,1.33,27.257,27.257,0,0,0,5.55,1.8,24.69,24.69,0,0,0,2.88.46h.01a28.4,28.4,0,0,0,5.83,0,24.69,24.69,0,0,0,2.88-.46,27.257,27.257,0,0,0,5.55-1.8,25.45,25.45,0,0,0,2.6-1.33,24.42,24.42,0,0,0,2.45-1.59,24.989,24.989,0,0,0,2.27-1.84,28.6,28.6,0,0,0,2.06-2.06,24.989,24.989,0,0,0,1.84-2.27,24.42,24.42,0,0,0,1.59-2.45,25.45,25.45,0,0,0,1.33-2.6,27.257,27.257,0,0,0,1.8-5.55,24.69,24.69,0,0,0,.46-2.88v-.01a28.3,28.3,0,0,0,0-5.82Zm0,0v-.01a24.69,24.69,0,0,0-.46-2.88,27.257,27.257,0,0,0-1.8-5.55,25.45,25.45,0,0,0-1.33-2.6,24.42,24.42,0,0,0-1.59-2.45,24.989,24.989,0,0,0-1.84-2.27,28.6,28.6,0,0,0-2.06-2.06,24.989,24.989,0,0,0-2.27-1.84,24.42,24.42,0,0,0-2.45-1.59,25.45,25.45,0,0,0-2.6-1.33,27.257,27.257,0,0,0-5.55-1.8,24.69,24.69,0,0,0-2.88-.46h-.01A27.926,27.926,0,0,0,37.5,9.6V37.5L21.1,60.07a24.42,24.42,0,0,0,2.45,1.59,25.45,25.45,0,0,0,2.6,1.33,27.257,27.257,0,0,0,5.55,1.8,24.69,24.69,0,0,0,2.88.46h.01a28.4,28.4,0,0,0,5.83,0,24.69,24.69,0,0,0,2.88-.46,27.257,27.257,0,0,0,5.55-1.8,25.45,25.45,0,0,0,2.6-1.33,24.42,24.42,0,0,0,2.45-1.59,24.989,24.989,0,0,0,2.27-1.84,28.6,28.6,0,0,0,2.06-2.06,24.989,24.989,0,0,0,1.84-2.27,24.42,24.42,0,0,0,1.59-2.45,25.45,25.45,0,0,0,1.33-2.6,27.257,27.257,0,0,0,1.8-5.55,24.69,24.69,0,0,0,.46-2.88v-.01a28.3,28.3,0,0,0,0-5.82Zm0,0v-.01a24.69,24.69,0,0,0-.46-2.88,27.257,27.257,0,0,0-1.8-5.55,25.45,25.45,0,0,0-1.33-2.6,24.42,24.42,0,0,0-1.59-2.45,24.989,24.989,0,0,0-1.84-2.27,28.6,28.6,0,0,0-2.06-2.06,24.989,24.989,0,0,0-2.27-1.84,24.42,24.42,0,0,0-2.45-1.59,25.45,25.45,0,0,0-2.6-1.33,27.257,27.257,0,0,0-5.55-1.8,24.69,24.69,0,0,0-2.88-.46h-.01A27.926,27.926,0,0,0,37.5,9.6V37.5L26.15,62.99a27.257,27.257,0,0,0,5.55,1.8,24.69,24.69,0,0,0,2.88.46h.01a28.4,28.4,0,0,0,5.83,0,24.69,24.69,0,0,0,2.88-.46,27.257,27.257,0,0,0,5.55-1.8,25.45,25.45,0,0,0,2.6-1.33,24.42,24.42,0,0,0,2.45-1.59,24.989,24.989,0,0,0,2.27-1.84,28.6,28.6,0,0,0,2.06-2.06,24.989,24.989,0,0,0,1.84-2.27,24.42,24.42,0,0,0,1.59-2.45,25.45,25.45,0,0,0,1.33-2.6,27.257,27.257,0,0,0,1.8-5.55,24.69,24.69,0,0,0,.46-2.88v-.01a28.3,28.3,0,0,0,0-5.82Zm0,0v-.01a24.69,24.69,0,0,0-.46-2.88,27.257,27.257,0,0,0-1.8-5.55,25.45,25.45,0,0,0-1.33-2.6,24.42,24.42,0,0,0-1.59-2.45,24.989,24.989,0,0,0-1.84-2.27,28.6,28.6,0,0,0-2.06-2.06,24.989,24.989,0,0,0-2.27-1.84,24.42,24.42,0,0,0-2.45-1.59,25.45,25.45,0,0,0-2.6-1.33,27.257,27.257,0,0,0-5.55-1.8,24.69,24.69,0,0,0-2.88-.46h-.01A27.926,27.926,0,0,0,37.5,9.6V37.5L31.7,64.79a24.69,24.69,0,0,0,2.88.46h.01a28.4,28.4,0,0,0,5.83,0,24.69,24.69,0,0,0,2.88-.46,27.257,27.257,0,0,0,5.55-1.8,25.45,25.45,0,0,0,2.6-1.33,24.42,24.42,0,0,0,2.45-1.59,24.989,24.989,0,0,0,2.27-1.84,28.6,28.6,0,0,0,2.06-2.06,24.989,24.989,0,0,0,1.84-2.27,24.42,24.42,0,0,0,1.59-2.45,25.45,25.45,0,0,0,1.33-2.6,27.257,27.257,0,0,0,1.8-5.55,24.69,24.69,0,0,0,.46-2.88v-.01a28.3,28.3,0,0,0,0-5.82Zm0,0v-.01a24.69,24.69,0,0,0-.46-2.88,27.257,27.257,0,0,0-1.8-5.55,25.45,25.45,0,0,0-1.33-2.6,24.42,24.42,0,0,0-1.59-2.45,24.989,24.989,0,0,0-1.84-2.27,28.6,28.6,0,0,0-2.06-2.06,24.989,24.989,0,0,0-2.27-1.84,24.42,24.42,0,0,0-2.45-1.59,25.45,25.45,0,0,0-2.6-1.33,27.257,27.257,0,0,0-5.55-1.8,24.69,24.69,0,0,0-2.88-.46h-.01A27.926,27.926,0,0,0,37.5,9.6V65.4a28.119,28.119,0,0,0,2.92-.15,24.69,24.69,0,0,0,2.88-.46,27.257,27.257,0,0,0,5.55-1.8,25.45,25.45,0,0,0,2.6-1.33,24.42,24.42,0,0,0,2.45-1.59,24.989,24.989,0,0,0,2.27-1.84,28.6,28.6,0,0,0,2.06-2.06,24.989,24.989,0,0,0,1.84-2.27,24.42,24.42,0,0,0,1.59-2.45,25.45,25.45,0,0,0,1.33-2.6,27.257,27.257,0,0,0,1.8-5.55,24.69,24.69,0,0,0,.46-2.88v-.01a28.3,28.3,0,0,0,0-5.82Zm0,0v-.01a24.69,24.69,0,0,0-.46-2.88,27.257,27.257,0,0,0-1.8-5.55,25.45,25.45,0,0,0-1.33-2.6,24.42,24.42,0,0,0-1.59-2.45,24.989,24.989,0,0,0-1.84-2.27,28.6,28.6,0,0,0-2.06-2.06,24.989,24.989,0,0,0-2.27-1.84,24.42,24.42,0,0,0-2.45-1.59,25.45,25.45,0,0,0-2.6-1.33,27.257,27.257,0,0,0-5.55-1.8,24.69,24.69,0,0,0-2.88-.46h-.01A27.926,27.926,0,0,0,37.5,9.6V37.5l5.8,27.29a27.257,27.257,0,0,0,5.55-1.8,25.45,25.45,0,0,0,2.6-1.33,24.42,24.42,0,0,0,2.45-1.59,24.989,24.989,0,0,0,2.27-1.84,28.6,28.6,0,0,0,2.06-2.06,24.989,24.989,0,0,0,1.84-2.27,24.42,24.42,0,0,0,1.59-2.45,25.45,25.45,0,0,0,1.33-2.6,27.257,27.257,0,0,0,1.8-5.55,24.69,24.69,0,0,0,.46-2.88v-.01a28.3,28.3,0,0,0,0-5.82Zm0,0v-.01a24.69,24.69,0,0,0-.46-2.88,27.257,27.257,0,0,0-1.8-5.55,25.45,25.45,0,0,0-1.33-2.6,24.42,24.42,0,0,0-1.59-2.45,24.989,24.989,0,0,0-1.84-2.27,28.6,28.6,0,0,0-2.06-2.06,24.989,24.989,0,0,0-2.27-1.84,24.42,24.42,0,0,0-2.45-1.59,25.45,25.45,0,0,0-2.6-1.33,27.257,27.257,0,0,0-5.55-1.8,24.69,24.69,0,0,0-2.88-.46h-.01A27.926,27.926,0,0,0,37.5,9.6V37.5L48.85,62.99a25.45,25.45,0,0,0,2.6-1.33,24.42,24.42,0,0,0,2.45-1.59,24.989,24.989,0,0,0,2.27-1.84,28.6,28.6,0,0,0,2.06-2.06,24.989,24.989,0,0,0,1.84-2.27,24.42,24.42,0,0,0,1.59-2.45,25.45,25.45,0,0,0,1.33-2.6,27.257,27.257,0,0,0,1.8-5.55,24.69,24.69,0,0,0,.46-2.88v-.01a28.3,28.3,0,0,0,0-5.82Zm0,0v-.01a24.69,24.69,0,0,0-.46-2.88,27.257,27.257,0,0,0-1.8-5.55,25.45,25.45,0,0,0-1.33-2.6,24.42,24.42,0,0,0-1.59-2.45,24.989,24.989,0,0,0-1.84-2.27,28.6,28.6,0,0,0-2.06-2.06,24.989,24.989,0,0,0-2.27-1.84,24.42,24.42,0,0,0-2.45-1.59,25.45,25.45,0,0,0-2.6-1.33,27.257,27.257,0,0,0-5.55-1.8,24.69,24.69,0,0,0-2.88-.46h-.01A27.926,27.926,0,0,0,37.5,9.6V37.5L53.9,60.07a24.989,24.989,0,0,0,2.27-1.84,28.6,28.6,0,0,0,2.06-2.06,24.989,24.989,0,0,0,1.84-2.27,24.42,24.42,0,0,0,1.59-2.45,25.45,25.45,0,0,0,1.33-2.6,27.257,27.257,0,0,0,1.8-5.55,24.69,24.69,0,0,0,.46-2.88v-.01a28.3,28.3,0,0,0,0-5.82Zm0,0v-.01a24.69,24.69,0,0,0-.46-2.88,27.257,27.257,0,0,0-1.8-5.55,25.45,25.45,0,0,0-1.33-2.6,24.42,24.42,0,0,0-1.59-2.45,24.989,24.989,0,0,0-1.84-2.27,28.6,28.6,0,0,0-2.06-2.06,24.989,24.989,0,0,0-2.27-1.84,24.42,24.42,0,0,0-2.45-1.59,25.45,25.45,0,0,0-2.6-1.33,27.257,27.257,0,0,0-5.55-1.8,24.69,24.69,0,0,0-2.88-.46h-.01A27.926,27.926,0,0,0,37.5,9.6V37.5L58.23,56.17a24.989,24.989,0,0,0,1.84-2.27,24.42,24.42,0,0,0,1.59-2.45,25.45,25.45,0,0,0,1.33-2.6,27.257,27.257,0,0,0,1.8-5.55,24.69,24.69,0,0,0,.46-2.88v-.01a28.3,28.3,0,0,0,0-5.82Zm0,0v-.01a24.69,24.69,0,0,0-.46-2.88,27.257,27.257,0,0,0-1.8-5.55,25.45,25.45,0,0,0-1.33-2.6,24.42,24.42,0,0,0-1.59-2.45,24.989,24.989,0,0,0-1.84-2.27,28.6,28.6,0,0,0-2.06-2.06,24.989,24.989,0,0,0-2.27-1.84,24.42,24.42,0,0,0-2.45-1.59,25.45,25.45,0,0,0-2.6-1.33,27.257,27.257,0,0,0-5.55-1.8,24.69,24.69,0,0,0-2.88-.46h-.01A27.926,27.926,0,0,0,37.5,9.6V37.5L61.66,51.45a25.45,25.45,0,0,0,1.33-2.6,27.257,27.257,0,0,0,1.8-5.55,24.69,24.69,0,0,0,.46-2.88v-.01a28.3,28.3,0,0,0,0-5.82Zm0,0v-.01a24.69,24.69,0,0,0-.46-2.88,27.257,27.257,0,0,0-1.8-5.55,25.45,25.45,0,0,0-1.33-2.6,24.42,24.42,0,0,0-1.59-2.45,24.989,24.989,0,0,0-1.84-2.27,28.6,28.6,0,0,0-2.06-2.06,24.989,24.989,0,0,0-2.27-1.84,24.42,24.42,0,0,0-2.45-1.59,25.45,25.45,0,0,0-2.6-1.33,27.257,27.257,0,0,0-5.55-1.8,24.69,24.69,0,0,0-2.88-.46h-.01A27.926,27.926,0,0,0,37.5,9.6V37.5l26.54,8.62a26.565,26.565,0,0,0,.75-2.82,24.69,24.69,0,0,0,.46-2.88v-.01a28.3,28.3,0,0,0,0-5.82Zm0,0v-.01a24.69,24.69,0,0,0-.46-2.88,27.257,27.257,0,0,0-1.8-5.55,25.45,25.45,0,0,0-1.33-2.6,24.42,24.42,0,0,0-1.59-2.45,24.989,24.989,0,0,0-1.84-2.27,28.6,28.6,0,0,0-2.06-2.06,24.989,24.989,0,0,0-2.27-1.84,24.42,24.42,0,0,0-2.45-1.59,25.45,25.45,0,0,0-2.6-1.33,27.257,27.257,0,0,0-5.55-1.8,24.69,24.69,0,0,0-2.88-.46h-.01A27.926,27.926,0,0,0,37.5,9.6V37.5l27.75,2.91a28.3,28.3,0,0,0,0-5.82Zm0,0v-.01a24.69,24.69,0,0,0-.46-2.88,27.257,27.257,0,0,0-1.8-5.55,25.45,25.45,0,0,0-1.33-2.6,24.42,24.42,0,0,0-1.59-2.45,24.989,24.989,0,0,0-1.84-2.27,28.6,28.6,0,0,0-2.06-2.06,24.989,24.989,0,0,0-2.27-1.84,24.42,24.42,0,0,0-2.45-1.59,25.45,25.45,0,0,0-2.6-1.33,27.257,27.257,0,0,0-5.55-1.8,24.69,24.69,0,0,0-2.88-.46h-.01A27.926,27.926,0,0,0,37.5,9.6V37.5H65.4A27.926,27.926,0,0,0,65.25,34.59Zm-2.26-8.44a25.45,25.45,0,0,0-1.33-2.6,24.42,24.42,0,0,0-1.59-2.45,24.989,24.989,0,0,0-1.84-2.27,28.6,28.6,0,0,0-2.06-2.06,24.989,24.989,0,0,0-2.27-1.84,24.42,24.42,0,0,0-2.45-1.59,25.45,25.45,0,0,0-2.6-1.33,27.257,27.257,0,0,0-5.55-1.8,24.69,24.69,0,0,0-2.88-.46h-.01A27.926,27.926,0,0,0,37.5,9.6V37.5l26.54-8.62A26.5,26.5,0,0,0,62.99,26.15ZM60.07,21.1a24.989,24.989,0,0,0-1.84-2.27,28.6,28.6,0,0,0-2.06-2.06,24.989,24.989,0,0,0-2.27-1.84,24.42,24.42,0,0,0-2.45-1.59,25.45,25.45,0,0,0-2.6-1.33,27.257,27.257,0,0,0-5.55-1.8,24.69,24.69,0,0,0-2.88-.46h-.01A27.926,27.926,0,0,0,37.5,9.6V37.5L61.66,23.55A24.42,24.42,0,0,0,60.07,21.1Zm-3.9-4.33a24.989,24.989,0,0,0-2.27-1.84,24.42,24.42,0,0,0-2.45-1.59,25.45,25.45,0,0,0-2.6-1.33,27.257,27.257,0,0,0-5.55-1.8,24.69,24.69,0,0,0-2.88-.46h-.01A27.926,27.926,0,0,0,37.5,9.6V37.5L58.23,18.83A28.6,28.6,0,0,0,56.17,16.77Zm-4.72-3.43a25.45,25.45,0,0,0-2.6-1.33,27.257,27.257,0,0,0-5.55-1.8,24.69,24.69,0,0,0-2.88-.46h-.01A27.926,27.926,0,0,0,37.5,9.6V37.5L53.9,14.93A24.42,24.42,0,0,0,51.45,13.34Zm-5.33-2.38a26.565,26.565,0,0,0-2.82-.75,24.69,24.69,0,0,0-2.88-.46h-.01A27.926,27.926,0,0,0,37.5,9.6V37.5L48.85,12.01A26.5,26.5,0,0,0,46.12,10.96Zm-5.7-1.21h-.01A27.926,27.926,0,0,0,37.5,9.6V37.5l5.8-27.29A24.69,24.69,0,0,0,40.42,9.75Z"/><polyline class="cls-2" points="37.5 4 37.5 6.5 37.5 9.6 37.5 37.5 37.5 65.4 37.5 68.5 37.5 71"/><polyline class="cls-2" points="34 4.18 34.26 6.67 34.58 9.75 37.5 37.5 40.42 65.25 40.74 68.33 41 70.82"/><polyline class="cls-2" points="30.53 4.73 31.05 7.17 31.7 10.21 37.5 37.5 43.3 64.79 43.95 67.83 44.47 70.27"/><polyline class="cls-2" points="27.15 5.64 27.92 8.01 28.88 10.96 37.5 37.5 46.12 64.04 47.08 66.99 47.85 69.36"/><polyline class="cls-2" points="23.87 6.9 24.88 9.18 26.15 12.01 37.5 37.5 48.85 62.99 50.12 65.82 51.13 68.1"/><polyline class="cls-2" points="20.75 8.49 22 10.65 23.55 13.34 37.5 37.5 51.45 61.66 53 64.35 54.25 66.51"/><polyline class="cls-2" points="17.81 10.4 19.28 12.42 21.1 14.93 37.5 37.5 53.9 60.07 55.72 62.58 57.19 64.6"/><polyline class="cls-2" points="15.08 12.6 16.76 14.46 18.83 16.77 37.5 37.5 56.17 58.23 58.24 60.54 59.92 62.4"/><polyline class="cls-2" points="12.6 15.08 14.46 16.76 16.77 18.83 37.5 37.5 58.23 56.17 60.54 58.24 62.4 59.92"/><polyline class="cls-2" points="10.4 17.81 12.42 19.28 14.93 21.1 37.5 37.5 60.07 53.9 62.58 55.72 64.6 57.19"/><polyline class="cls-2" points="8.49 20.75 10.65 22 13.34 23.55 37.5 37.5 61.66 51.45 64.35 53 66.51 54.25"/><polyline class="cls-2" points="6.9 23.87 9.18 24.88 12.01 26.15 37.5 37.5 62.99 48.85 65.82 50.12 68.1 51.13"/><polyline class="cls-2" points="5.64 27.15 8.01 27.92 10.96 28.88 37.5 37.5 64.04 46.12 66.99 47.08 69.36 47.85"/><polyline class="cls-2" points="4.73 30.53 7.17 31.05 10.21 31.7 37.5 37.5 64.79 43.3 67.83 43.95 70.27 44.47"/><polyline class="cls-2" points="4.18 34 6.67 34.26 9.75 34.58 9.75 34.59 37.5 37.5 65.25 40.41 65.25 40.42 68.33 40.74 70.82 41"/><polyline class="cls-2" points="4 37.5 6.5 37.5 9.6 37.5 37.5 37.5 65.4 37.5 68.5 37.5 71 37.5"/><polyline class="cls-2" points="4.18 41 6.67 40.74 9.75 40.42 9.75 40.41 37.5 37.5 65.25 34.59 65.25 34.58 68.33 34.26 70.82 34"/><polyline class="cls-2" points="4.73 44.47 7.17 43.95 10.21 43.3 37.5 37.5 64.79 31.7 67.83 31.05 70.27 30.53"/><polyline class="cls-2" points="5.64 47.85 8.01 47.08 10.96 46.12 37.5 37.5 64.04 28.88 66.99 27.92 69.36 27.15"/><polyline class="cls-2" points="6.9 51.13 9.18 50.12 12.01 48.85 37.5 37.5 62.99 26.15 65.82 24.88 68.1 23.87"/><polyline class="cls-2" points="8.49 54.25 10.65 53 13.34 51.45 37.5 37.5 61.66 23.55 64.35 22 66.51 20.75"/><polyline class="cls-2" points="10.4 57.19 12.42 55.72 14.93 53.9 37.5 37.5 60.07 21.1 62.58 19.28 64.6 17.81"/><polyline class="cls-2" points="12.6 59.92 14.46 58.24 16.77 56.17 37.5 37.5 58.23 18.83 60.54 16.76 62.4 15.08"/><polyline class="cls-2" points="15.08 62.4 16.76 60.54 18.83 58.23 37.5 37.5 56.17 16.77 58.24 14.46 59.92 12.6"/><polyline class="cls-2" points="17.81 64.6 19.28 62.58 21.1 60.07 37.5 37.5 53.9 14.93 55.72 12.42 57.19 10.4"/><polyline class="cls-2" points="20.75 66.51 22 64.35 23.55 61.66 37.5 37.5 51.45 13.34 53 10.65 54.25 8.49"/><polyline class="cls-2" points="23.87 68.1 24.88 65.82 26.15 62.99 37.5 37.5 48.85 12.01 50.12 9.18 51.13 6.9"/><polyline class="cls-2" points="27.15 69.36 27.92 66.99 28.88 64.04 37.5 37.5 46.12 10.96 47.08 8.01 47.85 5.64"/><polyline class="cls-2" points="30.53 70.27 31.05 67.83 31.7 64.79 37.5 37.5 43.3 10.21 43.95 7.17 44.47 4.73"/><polyline class="cls-2" points="34 70.82 34.26 68.33 34.58 65.25 34.59 65.25 37.5 37.5 40.41 9.75 40.42 9.75 40.74 6.67 41 4.18"/></g></g></svg>