<?xml version="1.0" encoding="utf-8"?>
<!-- Generator: Adobe Illustrator 25.2.0, SVG Export Plug-In . SVG Version: 6.00 Build 0)  -->
<svg version="1.1" id="Layer_1" xmlns="http://www.w3.org/2000/svg" xmlns:xlink="http://www.w3.org/1999/xlink" x="0px" y="0px"
	 viewBox="0 0 660 1143.2" style="enable-background:new 0 0 660 1143.2;" xml:space="preserve">
<style type="text/css">
	.st0{fill:#c6c6c6;}
</style>
<path class="st0" d="M0,450.3v69.3v69.3v69.3v69.3l60-34.6l60-34.6l0,0l60-34.6l0,0l60-34.6l0,0l60-34.6l0,0l60-34.6l60-34.6
	l60-34.6l0,0l60-34.6l0,0l60-34.6l0,0l60-34.6l0,0v-69.3l0,0v-69.3V139l0,0V69.7l0,0V0l0,0l-60,34.6l0,0l-60,34.6l0,0l-60,34.6l0,0
	l-60,34.6l0,0L360,173l-60,34.6l-60,34.6l-60,34.6l-60,34.6L60,346l0,0L0,381l0,0V450.3z M540,207.8L540,207.8L540,207.8L540,207.8z
	 M540,277.1L540,277.1L540,277.1L540,277.1z M180,485L180,485L180,485L180,485z M120,519.6L120,519.6L120,519.6L120,519.6z
	 M480,311.8L480,311.8L480,311.8L480,311.8z M480,242.5L480,242.5L480,242.5L480,242.5z M120,450.3L120,450.3L120,450.3L120,450.3z
	 M120,588.9L120,588.9L120,588.9L120,588.9z M180,554.3L180,554.3L180,554.3L180,554.3z M240,519.6L240,519.6L240,519.6L240,519.6z
	 M480,381.1L480,381.1L480,381.1L480,381.1z M540,346.4L540,346.4L540,346.4L540,346.4z M600,242.5L600,242.5L600,242.5L600,242.5z
	 M480,173.2L480,173.2L480,173.2L480,173.2z"/>
</svg>
