<?xml version="1.0" encoding="utf-8"?>
<!-- Generator: Adobe Illustrator 25.2.0, SVG Export Plug-In . SVG Version: 6.00 Build 0)  -->
<svg version="1.1" id="Layer_1" xmlns="http://www.w3.org/2000/svg" xmlns:xlink="http://www.w3.org/1999/xlink" x="0px" y="0px"
	 viewBox="0 0 660 1143.2" style="enable-background:new 0 0 660 1143.2;" xml:space="preserve">
<style type="text/css">
	.st0{fill:#9ed84b;}
</style>
<path class="st0" d="M600,450.3L600,450.3L540,485l0,0l-60,34.6l0,0l-60,34.6l-60,34.6l0,0l0,0l-60,34.6l0,0l0,0L240,658l0,0
	l-60,34.6l0,0l-60,34.6l0,0l-60,34.6L0,796.7l0,0l0,0V866v69.3v69.3L60,970l60-34.6l0,0l60-34.6l0,0l60-34.6l60-34.6l0,0l60-34.6
	l0,0l60-34.6l0,0l60-34.6l0,0l60-34.6l0,0l60-34.6l60-34.6v-69.3v-69.3v-69.3l0,0l0,0L600,450.3z M120,866L120,866L120,866L120,866z
	 M480,658.2L480,658.2L480,658.2L480,658.2z"/>
</svg>
