<?xml version="1.0" encoding="utf-8"?>
<!-- Generator: Adobe Illustrator 25.2.0, SVG Export Plug-In . SVG Version: 6.00 Build 0)  -->
<svg version="1.1" id="Layer_1" xmlns="http://www.w3.org/2000/svg" xmlns:xlink="http://www.w3.org/1999/xlink" x="0px" y="0px"
	 viewBox="0 0 78 298.1" style="enable-background:new 0 0 78 298.1;" xml:space="preserve">
<style type="text/css">
	.st0{fill:#141414;}
</style>
<polygon class="st0" points="72,294.6 66,291.2 60,287.7 54,284.2 48,280.8 42,277.3 36,273.9 30,270.4 24,266.9 18,263.5 12,260 
	6,256.5 0,253.1 0,246.1 0,239.2 0,232.3 0,225.7 0,220.2 0,213.2 0,206.3 0,199.4 0,194 0,192.4 0,185.5 0,178.6 0,171.7 0,164.7 
	0,157.8 0,150.9 0,143.9 0,137 0,130.1 0,123.2 0,116.2 0,109.3 0,102.4 0,95.4 0,88.5 0,81.6 0,74.7 0,67.7 0,60.8 0,53.9 0,47 
	0,45 0,0 78,0 78,45 78,50.4 78,57.3 78,64.3 78,71.2 78,78.1 78,85.1 78,92 78,98.9 78,105.8 78,112.8 78,119.7 78,126.6 78,133.6 
	78,140.5 78,147.4 78,154.3 78,161.3 78,168.2 78,175.1 78,182 78,189 78,195.9 78,202.8 78,209.8 78,216.7 78,223.6 78,230.5 
	78,237.5 78,244.4 78,251.3 78,258.3 78,265.2 78,271.4 78,277.3 78,284.2 78,291.2 78,298.1 "/>
</svg>
