<?xml version="1.0" encoding="utf-8"?>
<!-- Generator: Adobe Illustrator 25.2.0, SVG Export Plug-In . SVG Version: 6.00 Build 0)  -->
<svg version="1.1" id="Layer_1" xmlns="http://www.w3.org/2000/svg" xmlns:xlink="http://www.w3.org/1999/xlink" x="0px" y="0px"
	 viewBox="0 0 660 1143.2" style="enable-background:new 0 0 660 1143.2;" xml:space="preserve">
<style type="text/css">
	.st0{fill:#c6c6c6;}
</style>
<polygon class="st0" points="660,450.4 660,450.4 660,381.1 660,381.1 600,346.5 600,415.7 600,485 540,450.4 480,415.7 420,381.1 
	420,311.8 420,242.5 420,242.5 360,207.9 360,277.2 360,277.2 360,346.5 360,415.7 360,415.8 420,450.4 420,450.4 420,450.4 
	480,485 480,485 480,485 540,519.7 540,519.7 540,519.7 600,554.3 600,554.3 600,554.3 600,623.6 600,623.6 600,692.9 660,727.5 
	660,727.5 660,658.2 660,658.2 660,658.2 660,589 660,589 660,588.9 660,519.7 660,519.7 "/>
</svg>
