<?xml version="1.0" encoding="UTF-8" standalone="no"?>
<!-- Generator: Adobe Illustrator 25.2.0, SVG Export Plug-In . SVG Version: 6.00 Build 0)  -->

<svg
   version="1.1"
   id="Layer_1"
   x="0px"
   y="0px"
   viewBox="0 0 660 2563.4"
   style="enable-background:new 0 0 660 2563.4;"
   xml:space="preserve"
   sodipodi:docname="p3.svg"
   inkscape:version="1.2.1 (9c6d41e410, 2022-07-14)"
   xmlns:inkscape="http://www.inkscape.org/namespaces/inkscape"
   xmlns:sodipodi="http://sodipodi.sourceforge.net/DTD/sodipodi-0.dtd"
   xmlns="http://www.w3.org/2000/svg"
   xmlns:svg="http://www.w3.org/2000/svg"><defs
   id="defs186" /><sodipodi:namedview
   id="namedview184"
   pagecolor="#ffffff"
   bordercolor="#000000"
   borderopacity="0.25"
   inkscape:showpageshadow="2"
   inkscape:pageopacity="0.0"
   inkscape:pagecheckerboard="0"
   inkscape:deskcolor="#d1d1d1"
   showgrid="false"
   inkscape:zoom="0.34095343"
   inkscape:cx="332.89004"
   inkscape:cy="1281.7"
   inkscape:window-width="929"
   inkscape:window-height="1044"
   inkscape:window-x="93"
   inkscape:window-y="15"
   inkscape:window-maximized="1"
   inkscape:current-layer="Layer_1" />
<style
   type="text/css"
   id="style179">
	.st0{fill:#242424;}
</style>
<path
   id="path181"
   class="st0"
   d="M 660 900.69922 L 600 936.09961 L 540 970.69922 L 480 1005.3008 L 420 1039.9004 L 360 1074.5 L 300 1109.0996 L 240 1143.6992 L 180 1178.3008 L 120 1212.9004 L 60 1247.5 L 0 1282.0996 L 60 1316.6992 L 120 1351.3008 L 180 1385.9004 L 240 1420.5 L 300 1455.0996 L 360 1489.6992 L 420 1524.3008 L 480 1558.9004 L 540 1593.5 L 600 1628.0996 L 660 1663 L 660 1593.6992 L 660 1524.4004 L 660 1455.0996 L 660 1385.8008 L 660 1316.5 L 660 1247.1992 L 660 1177.9004 L 660 1108.5996 L 660 1039.3008 L 660 970 L 660 900.69922 z " />
</svg>
