<?xml version="1.0" encoding="UTF-8" standalone="no"?>
<!-- Generator: Adobe Illustrator 25.2.0, SVG Export Plug-In . SVG Version: 6.00 Build 0)  -->

<svg
   version="1.1"
   id="Layer_1"
   x="0px"
   y="0px"
   viewBox="0 0 660 2563.4"
   style="enable-background:new 0 0 660 2563.4;"
   xml:space="preserve"
   sodipodi:docname="p4.svg"
   inkscape:version="1.2.1 (9c6d41e410, 2022-07-14)"
   xmlns:inkscape="http://www.inkscape.org/namespaces/inkscape"
   xmlns:sodipodi="http://sodipodi.sourceforge.net/DTD/sodipodi-0.dtd"
   xmlns="http://www.w3.org/2000/svg"
   xmlns:svg="http://www.w3.org/2000/svg"><defs
   id="defs195" /><sodipodi:namedview
   id="namedview193"
   pagecolor="#ffffff"
   bordercolor="#000000"
   borderopacity="0.25"
   inkscape:showpageshadow="2"
   inkscape:pageopacity="0.0"
   inkscape:pagecheckerboard="0"
   inkscape:deskcolor="#d1d1d1"
   showgrid="false"
   inkscape:zoom="0.34095343"
   inkscape:cx="338.75594"
   inkscape:cy="1287.5659"
   inkscape:window-width="929"
   inkscape:window-height="1044"
   inkscape:window-x="93"
   inkscape:window-y="15"
   inkscape:window-maximized="1"
   inkscape:current-layer="Layer_1" />
<style
   type="text/css"
   id="style188">
	.st0{fill:#242424;}
</style>
<path
   id="path190"
   class="st0"
   d="M 0 1351 L 0 1420.3008 L 0 1489.5996 L 0 1558.1992 L 0 1627.5 L 0 1696.8008 L 0 1766.0996 L 0 1835.4004 L 0 1904.6992 L 0 1974 L 0 2043.3008 L 0 2112.5996 L 60 2078 L 120 2043.4004 L 180 2008.8008 L 240 1974.1992 L 300 1939.5996 L 360 1905 L 420 1870.4004 L 480 1835.8008 L 540 1801.1992 L 600 1766.5996 L 660 1732 L 600 1697 L 540 1662.4004 L 480 1627.8008 L 420 1593.1992 L 360 1558.5996 L 300 1524 L 240 1489.4004 L 180 1454.8008 L 120 1420.1992 L 60 1385.5996 L 0 1351 z " />
</svg>
