<?xml version="1.0" encoding="UTF-8" standalone="no"?>
<!-- Generator: Adobe Illustrator 25.2.0, SVG Export Plug-In . SVG Version: 6.00 Build 0)  -->

<svg
   version="1.1"
   id="Layer_1"
   x="0px"
   y="0px"
   viewBox="0 0 660 2563.4"
   style="enable-background:new 0 0 660 2563.4;"
   xml:space="preserve"
   sodipodi:docname="p5.svg"
   inkscape:version="1.2.1 (9c6d41e410, 2022-07-14)"
   xmlns:inkscape="http://www.inkscape.org/namespaces/inkscape"
   xmlns:sodipodi="http://sodipodi.sourceforge.net/DTD/sodipodi-0.dtd"
   xmlns="http://www.w3.org/2000/svg"
   xmlns:svg="http://www.w3.org/2000/svg"><defs
   id="defs204" /><sodipodi:namedview
   id="namedview202"
   pagecolor="#ffffff"
   bordercolor="#000000"
   borderopacity="0.25"
   inkscape:showpageshadow="2"
   inkscape:pageopacity="0.0"
   inkscape:pagecheckerboard="0"
   inkscape:deskcolor="#d1d1d1"
   showgrid="false"
   inkscape:zoom="0.34095343"
   inkscape:cx="331.42356"
   inkscape:cy="1991.4743"
   inkscape:window-width="1806"
   inkscape:window-height="1044"
   inkscape:window-x="93"
   inkscape:window-y="15"
   inkscape:window-maximized="1"
   inkscape:current-layer="Layer_1" />
<style
   type="text/css"
   id="style197">
	.st0{fill:#242424;}
</style>
<path
   id="path199"
   class="st0"
   d="M 660 1801.4004 L 600 1836 L 540 1870.9004 L 480 1905.5 L 420 1940.0996 L 360 1974.6992 L 300 2009.3008 L 240 2043.9004 L 180 2078.5 L 120 2113.0996 L 60 2148.5 L 0 2183.0996 L 60 2217.6992 L 120 2252.3008 L 180 2286.9004 L 240 2321.5 L 300 2356.0996 L 360 2390.6992 L 420 2425.3008 L 480 2459.9004 L 540 2494.5 L 600 2529.0996 L 660 2563.6992 L 660 2494.4004 L 660 2425.0996 L 660 2355.8008 L 660 2286.5 L 660 2217.1992 L 660 2147.9004 L 660 2078.5996 L 660 2009.3008 L 660 1940 L 660 1870.6992 L 660 1801.4004 z " />
</svg>
