<?xml version="1.0" encoding="utf-8"?>
<!-- Generator: Adobe Illustrator 25.2.0, SVG Export Plug-In . SVG Version: 6.00 Build 0)  -->
<svg version="1.1" id="Layer_1" xmlns="http://www.w3.org/2000/svg" xmlns:xlink="http://www.w3.org/1999/xlink" x="0px" y="0px"
	 viewBox="0 0 660 1143.2" style="enable-background:new 0 0 660 1143.2;" xml:space="preserve">
<style type="text/css">
	.st0{fill:#D84B4F;}
</style>
<polygon class="st0" points="420,311.4 480,346.1 480,415.4 480,415.4 480,484.6 480,484.7 480,553.9 480,553.9 420,519.3 
	420,519.3 420,519.3 360,484.6 360,553.9 360,553.9 420,588.6 420,588.6 420,588.6 480,623.2 540,657.8 600,692.5 660,727.1 
	660,727.1 660,657.9 660,657.8 600,623.2 540,588.6 540,519.3 540,519.3 540,450 540,450 540,380.7 540,311.4 480,276.8 480,276.8 
	420,242.2 360,207.5 360,276.8 360,276.8 "/>
</svg>
