<?xml version="1.0" encoding="utf-8"?>
<!-- Generator: Adobe Illustrator 25.2.0, SVG Export Plug-In . SVG Version: 6.00 Build 0)  -->
<svg version="1.1" id="Layer_1" xmlns="http://www.w3.org/2000/svg" xmlns:xlink="http://www.w3.org/1999/xlink" x="0px" y="0px"
	 viewBox="0 0 660 1143.2" style="enable-background:new 0 0 660 1143.2;" xml:space="preserve">
<style type="text/css">
	.st0{fill:#D84B4F;}
</style>
<polygon class="st0" points="660,519.5 660,519.5 600,484.9 540,450.2 480,415.6 420,380.9 420,311.7 480,346.3 540,380.9 
	600,415.6 660,450.2 660,450.2 660,381 660,380.9 600,346.3 540,311.7 480,277 420,242.4 420,242.4 420,242.4 360,207.8 360,277 
	360,277 360,346.3 360,415.6 420,450.2 480,484.9 540,519.5 600,554.2 600,623.4 540,588.8 540,588.8 480,554.2 480,554.2 
	420,519.5 420,519.5 360,484.9 360,554.1 360,554.2 360,554.2 420,588.8 420,588.8 480,623.4 480,623.4 540,658.1 600,692.7 
	660,727.4 660,727.4 660,658.1 660,658.1 660,658.1 660,588.8 660,588.8 "/>
</svg>
