<?xml version="1.0" encoding="utf-8"?>
<!-- Generator: Adobe Illustrator 25.2.0, SVG Export Plug-In . SVG Version: 6.00 Build 0)  -->
<svg version="1.1" id="Layer_1" xmlns="http://www.w3.org/2000/svg" xmlns:xlink="http://www.w3.org/1999/xlink" x="0px" y="0px"
	 viewBox="0 0 660 1143.2" style="enable-background:new 0 0 660 1143.2;" xml:space="preserve">
<style type="text/css">
	.st0{fill:#c6c6c6;}
</style>
<polygon class="st0" points="300,312.2 300,242.9 300,242.9 300,173.6 300,173.6 240,139 180,104.4 120,69.7 60,35.1 60,35.1 0,0.4 
	0,69.7 0,69.7 60,104.4 120,139 180,173.6 240,208.3 240,277.6 180,242.9 180,312.2 240,346.8 240,416.1 240,485.4 300,520.1 
	300,520 300,450.8 300,450.8 300,450.8 300,381.5 "/>
</svg>
