<?xml version="1.0" encoding="UTF-8" standalone="no"?>
<!-- Generator: Adobe Illustrator 25.2.0, SVG Export Plug-In . SVG Version: 6.00 Build 0)  -->

<svg
   version="1.1"
   id="Layer"
   x="0px"
   y="0px"
   viewBox="0 0 22 22"
   style="enable-background:new 0 0 22 22;"
   xml:space="preserve"
   sodipodi:docname="float.svg"
   inkscape:version="1.2.1 (9c6d41e410, 2022-07-14)"
   xmlns:inkscape="http://www.inkscape.org/namespaces/inkscape"
   xmlns:sodipodi="http://sodipodi.sourceforge.net/DTD/sodipodi-0.dtd"
   xmlns="http://www.w3.org/2000/svg"
   xmlns:svg="http://www.w3.org/2000/svg"><defs
   id="defs23" /><sodipodi:namedview
   id="namedview21"
   pagecolor="#ffffff"
   bordercolor="#000000"
   borderopacity="0.25"
   inkscape:showpageshadow="2"
   inkscape:pageopacity="0.0"
   inkscape:pagecheckerboard="0"
   inkscape:deskcolor="#d1d1d1"
   showgrid="false"
   inkscape:zoom="9.9318182"
   inkscape:cx="15.606407"
   inkscape:cy="4.1784897"
   inkscape:window-width="903"
   inkscape:window-height="1031"
   inkscape:window-x="1003"
   inkscape:window-y="35"
   inkscape:window-maximized="1"
   inkscape:current-layer="g18" />
<style
   type="text/css"
   id="style2">
	.st0{fill:url(#SVGID_1_);}
	.st1{fill:url(#SVGID_2_);}
</style>
<g
   id="g18">
	
		<linearGradient
   id="SVGID_1_"
   gradientUnits="userSpaceOnUse"
   x1="-327.9955"
   y1="1089.2961"
   x2="-303.1619"
   y2="1089.2961"
   gradientTransform="matrix(-6.123234e-17 1 1 6.123234e-17 -1075.7961 332.0127)">
		<stop
   offset="0.2"
   style="stop-color:#f38ba8"
   id="stop4" />
		<stop
   offset="0.8"
   style="stop-color:#f5c2e7"
   id="stop6" />
	</linearGradient>
	<path
   class="st0"
   d="M21,4.8H6c-0.5,0-1,0.4-1,1V21c0,0.5,0.4,1,1,1h15c0.5,0,1-0.4,1-1V5.8C22,5.3,21.6,4.8,21,4.8z"
   id="path9"
   style="fill:#a6e3a1;fill-opacity:1" />
	
		<linearGradient
   id="SVGID_2_"
   gradientUnits="userSpaceOnUse"
   x1="-333.1636"
   y1="1084.0857"
   x2="-308.33"
   y2="1084.0857"
   gradientTransform="matrix(-6.123234e-17 1 1 6.123234e-17 -1075.9857 331.6131)">
		<stop
   offset="0.2"
   style="stop-color:#f38ba8"
   id="stop11" />
		<stop
   offset="0.8"
   style="stop-color:#f5c2e7"
   id="stop13" />
	</linearGradient>
	<path
   class="st1"
   d="M15.2,0H1C0.4,0,0,0.4,0,1v14.2c0,0.5,0.4,1,1,1h14.2c0.5,0,1-0.4,1-1V1C16.2,0.4,15.7,0,15.2,0z"
   id="path16"
   style="fill:#cba6f7;fill-opacity:1" />
</g>
</svg>
