<?xml version="1.0" encoding="UTF-8" standalone="no"?>
<!-- Generator: Adobe Illustrator 25.2.0, SVG Export Plug-In . SVG Version: 6.00 Build 0)  -->

<svg
   version="1.1"
   id="Layer"
   x="0px"
   y="0px"
   viewBox="0 0 22 22"
   style="enable-background:new 0 0 22 22;"
   xml:space="preserve"
   sodipodi:docname="tall.svg"
   inkscape:version="1.2.1 (9c6d41e410, 2022-07-14)"
   xmlns:inkscape="http://www.inkscape.org/namespaces/inkscape"
   xmlns:sodipodi="http://sodipodi.sourceforge.net/DTD/sodipodi-0.dtd"
   xmlns="http://www.w3.org/2000/svg"
   xmlns:svg="http://www.w3.org/2000/svg"><defs
   id="defs37" /><sodipodi:namedview
   id="namedview35"
   pagecolor="#ffffff"
   bordercolor="#000000"
   borderopacity="0.25"
   inkscape:showpageshadow="2"
   inkscape:pageopacity="0.0"
   inkscape:pagecheckerboard="0"
   inkscape:deskcolor="#d1d1d1"
   showgrid="false"
   inkscape:zoom="14.045712"
   inkscape:cx="6.692434"
   inkscape:cy="9.9318568"
   inkscape:window-width="979"
   inkscape:window-height="1031"
   inkscape:window-x="10"
   inkscape:window-y="35"
   inkscape:window-maximized="1"
   inkscape:current-layer="g32" />
<style
   type="text/css"
   id="style2">
	.st0{fill:url(#SVGID_1_);}
	.st1{fill:url(#SVGID_2_);}
	.st2{fill:url(#SVGID_3_);}
	.st3{fill:url(#SVGID_4_);}
</style>
<g
   id="g32">
	
		<linearGradient
   id="SVGID_1_"
   gradientUnits="userSpaceOnUse"
   x1="-1.0598"
   y1="-43.7452"
   x2="23.9402"
   y2="-43.7452"
   gradientTransform="matrix(1 0 0 -1 -0.5191 -32.7452)">
		<stop
   offset="0.2"
   style="stop-color:#f38ba8"
   id="stop4" />
		<stop
   offset="0.8"
   style="stop-color:#f5c2e7"
   id="stop6" />
	</linearGradient>
	<path
   class="st0"
   d="M7.9,0H2C0.9,0,0,0.9,0,2v18c0,1.1,0.9,2,2,2h5.9c1.1,0,2-0.9,2-2V2C9.9,0.9,9,0,7.9,0z"
   id="path9"
   style="fill:#cba6f7;fill-opacity:1" />
	
		<linearGradient
   id="SVGID_2_"
   gradientUnits="userSpaceOnUse"
   x1="-1.0598"
   y1="-35.6452"
   x2="23.9402"
   y2="-35.6452"
   gradientTransform="matrix(1 0 0 -1 -0.5191 -32.7452)">
		<stop
   offset="0.2"
   style="stop-color:#f38ba8"
   id="stop11" />
		<stop
   offset="0.8"
   style="stop-color:#f5c2e7"
   id="stop13" />
	</linearGradient>
	<path
   class="st1"
   d="M21,0h-7.9c-0.6,0-1,0.4-1,1v3.8c0,0.6,0.4,1,1,1H21c0.6,0,1-0.4,1-1V1C22,0.4,21.6,0,21,0z"
   id="path16"
   style="fill:#a6e3a1;fill-opacity:1" />
	
		<linearGradient
   id="SVGID_3_"
   gradientUnits="userSpaceOnUse"
   x1="-1.0598"
   y1="-43.7452"
   x2="23.9402"
   y2="-43.7452"
   gradientTransform="matrix(1 0 0 -1 -0.5191 -32.7452)">
		<stop
   offset="0.2"
   style="stop-color:#f38ba8"
   id="stop18" />
		<stop
   offset="0.8"
   style="stop-color:#f5c2e7"
   id="stop20" />
	</linearGradient>
	<path
   class="st2"
   d="M21,8.1h-7.9c-0.6,0-1,0.4-1,1v3.8c0,0.6,0.4,1,1,1H21c0.6,0,1-0.4,1-1V9.1C22,8.6,21.6,8.1,21,8.1z"
   id="path23"
   style="fill:#f38ba8;fill-opacity:1" />
	
		<linearGradient
   id="SVGID_4_"
   gradientUnits="userSpaceOnUse"
   x1="-1.0598"
   y1="-51.8452"
   x2="23.9402"
   y2="-51.8452"
   gradientTransform="matrix(1 0 0 -1 -0.5191 -32.7452)">
		<stop
   offset="0.2"
   style="stop-color:#f38ba8"
   id="stop25" />
		<stop
   offset="0.8"
   style="stop-color:#f5c2e7"
   id="stop27" />
	</linearGradient>
	<path
   class="st3"
   d="M21,16.2h-7.9c-0.6,0-1,0.4-1,1V21c0,0.6,0.4,1,1,1H21c0.6,0,1-0.4,1-1v-3.8C22,16.7,21.6,16.2,21,16.2z"
   id="path30"
   style="fill:#89dceb;fill-opacity:1" />
</g>
</svg>
