<?xml version="1.0" encoding="UTF-8" standalone="no"?>
<!-- Generator: Adobe Illustrator 25.2.0, SVG Export Plug-In . SVG Version: 6.00 Build 0)  -->

<svg
   version="1.1"
   id="Layer"
   x="0px"
   y="0px"
   viewBox="0 0 22 22"
   style="enable-background:new 0 0 22 22;"
   xml:space="preserve"
   sodipodi:docname="tiled.svg"
   inkscape:version="1.2.1 (9c6d41e410, 2022-07-14)"
   xmlns:inkscape="http://www.inkscape.org/namespaces/inkscape"
   xmlns:sodipodi="http://sodipodi.sourceforge.net/DTD/sodipodi-0.dtd"
   xmlns="http://www.w3.org/2000/svg"
   xmlns:svg="http://www.w3.org/2000/svg"><defs
   id="defs30" /><sodipodi:namedview
   id="namedview28"
   pagecolor="#ffffff"
   bordercolor="#000000"
   borderopacity="0.25"
   inkscape:showpageshadow="2"
   inkscape:pageopacity="0.0"
   inkscape:pagecheckerboard="0"
   inkscape:deskcolor="#d1d1d1"
   showgrid="false"
   inkscape:zoom="39.727273"
   inkscape:cx="9.5400458"
   inkscape:cy="11.062929"
   inkscape:window-width="979"
   inkscape:window-height="1031"
   inkscape:window-x="10"
   inkscape:window-y="35"
   inkscape:window-maximized="1"
   inkscape:current-layer="g25" />
<style
   type="text/css"
   id="style2">
	.st0{fill:url(#SVGID_1_);}
	.st1{fill:url(#SVGID_2_);}
	.st2{fill:url(#SVGID_3_);}
</style>
<g
   id="g25">
	
		<linearGradient
   id="SVGID_1_"
   gradientUnits="userSpaceOnUse"
   x1="-0.5066"
   y1="259.2774"
   x2="24.4934"
   y2="259.2774"
   gradientTransform="matrix(1 0 0 1 -1.0191 -242.2452)">
		<stop
   offset="0.2"
   style="stop-color:#f38ba8"
   id="stop4" />
		<stop
   offset="0.8"
   style="stop-color:#f5c2e7"
   id="stop6" />
	</linearGradient>
	<path
   class="st0"
   d="M21,12.1h-8.2c-0.6,0-1,0.4-1,1V21c0,0.6,0.4,1,1,1H21c0.6,0,1-0.4,1-1v-7.9C22,12.5,21.6,12.1,21,12.1z"
   id="path9"
   style="fill:#f38ba8;fill-opacity:1" />
	
		<linearGradient
   id="SVGID_2_"
   gradientUnits="userSpaceOnUse"
   x1="-0.5066"
   y1="247.3134"
   x2="24.4934"
   y2="247.3134"
   gradientTransform="matrix(1 0 0 1 -1.0191 -242.2452)">
		<stop
   offset="0.2"
   style="stop-color:#a6e3a1;stop-opacity:1;"
   id="stop11" />
		<stop
   offset="0.8"
   style="stop-color:#f5c2e7"
   id="stop13" />
	</linearGradient>
	<path
   class="st1"
   d="M21,0.1h-8.2c-0.6,0-1,0.4-1,1V9c0,0.6,0.4,1,1,1H21c0.6,0,1-0.4,1-1V1.1C22,0.5,21.6,0.1,21,0.1z"
   id="path16"
   style="fill:#a6e3a1;fill-opacity:1" />
	
		<linearGradient
   id="SVGID_3_"
   gradientUnits="userSpaceOnUse"
   x1="-1.0598"
   y1="67.7452"
   x2="23.9402"
   y2="67.7452"
   gradientTransform="matrix(1 0 0 1 -0.5191 -56.7452)">
		<stop
   offset="0.2"
   style="stop-color:#f38ba8"
   id="stop18" />
		<stop
   offset="0.8"
   style="stop-color:#f5c2e7"
   id="stop20" />
	</linearGradient>
	<path
   class="st2"
   d="M7.9,0H2C0.9,0,0,0.9,0,2v18c0,1.1,0.9,2,2,2h5.9c1.1,0,2-0.9,2-2V2C9.9,0.9,9,0,7.9,0z"
   id="path23"
   style="fill:#cba6f7;fill-opacity:1" />
</g>
</svg>
