<?xml version="1.0" encoding="UTF-8" standalone="no"?>
<!-- Generator: Adobe Illustrator 25.2.0, SVG Export Plug-In . SVG Version: 6.00 Build 0)  -->

<svg
   version="1.1"
   id="Layer"
   x="0px"
   y="0px"
   viewBox="0 0 22 22"
   style="enable-background:new 0 0 22 22;"
   xml:space="preserve"
   sodipodi:docname="wide.svg"
   inkscape:version="1.2.1 (9c6d41e410, 2022-07-14)"
   xmlns:inkscape="http://www.inkscape.org/namespaces/inkscape"
   xmlns:sodipodi="http://sodipodi.sourceforge.net/DTD/sodipodi-0.dtd"
   xmlns="http://www.w3.org/2000/svg"
   xmlns:svg="http://www.w3.org/2000/svg"><defs
   id="defs32" /><sodipodi:namedview
   id="namedview30"
   pagecolor="#ffffff"
   bordercolor="#000000"
   borderopacity="0.25"
   inkscape:showpageshadow="2"
   inkscape:pageopacity="0.0"
   inkscape:pagecheckerboard="0"
   inkscape:deskcolor="#d1d1d1"
   showgrid="false"
   inkscape:zoom="9.9318182"
   inkscape:cx="7.9542334"
   inkscape:cy="5.0846682"
   inkscape:window-width="903"
   inkscape:window-height="1031"
   inkscape:window-x="1003"
   inkscape:window-y="35"
   inkscape:window-maximized="1"
   inkscape:current-layer="g27" />
<style
   type="text/css"
   id="style2">
	.st0{fill:url(#SVGID_1_);}
	.st1{fill:url(#SVGID_2_);}
	.st2{fill:#f5c2e7;}
	.st3{fill:url(#SVGID_3_);}
</style>
<g
   id="g27">
	
		<linearGradient
   id="SVGID_1_"
   gradientUnits="userSpaceOnUse"
   x1="-330.657"
   y1="1332.9156"
   x2="-305.657"
   y2="1332.9156"
   gradientTransform="matrix(-6.123234e-17 1 1 6.123234e-17 -1321.9156 329.078)">
		<stop
   offset="0.2"
   style="stop-color:#cba6f7;stop-opacity:1;"
   id="stop4" />
		<stop
   offset="0.8"
   style="stop-color:#f5c2e7"
   id="stop6" />
	</linearGradient>
	<path
   class="st0"
   d="M20,0H2C0.9,0,0,0.9,0,2v5.9c0,1.1,0.9,2,2,2h18c1.1,0,2-0.9,2-2V2C22,0.9,21.1,0,20,0z"
   id="path9" />
	
		<linearGradient
   id="SVGID_2_"
   gradientUnits="userSpaceOnUse"
   x1="-330.657"
   y1="1341.0156"
   x2="-305.657"
   y2="1341.0156"
   gradientTransform="matrix(-6.123234e-17 1 1 6.123234e-17 -1321.9156 329.078)">
		<stop
   offset="0.2"
   style="stop-color:#f38ba8"
   id="stop11" />
		<stop
   offset="0.8"
   style="stop-color:#f5c2e7"
   id="stop13" />
	</linearGradient>
	<path
   class="st1"
   d="M21,12.1h-3.8c-0.6,0-1,0.4-1,1V21c0,0.6,0.4,1,1,1H21c0.6,0,1-0.4,1-1v-7.9C22,12.5,21.6,12.1,21,12.1z"
   id="path16"
   style="fill:#a6e3a1;fill-opacity:1" />
	<path
   class="st2"
   d="M12.9,12.1H9.1c-0.6,0-1,0.4-1,1V21c0,0.6,0.4,1,1,1h3.8c0.6,0,1-0.4,1-1v-7.9C13.9,12.5,13.4,12.1,12.9,12.1z   "
   id="path18"
   style="fill:#f38ba8;fill-opacity:1" />
	
		<linearGradient
   id="SVGID_3_"
   gradientUnits="userSpaceOnUse"
   x1="-330.657"
   y1="1324.8156"
   x2="-305.657"
   y2="1324.8156"
   gradientTransform="matrix(-6.123234e-17 1 1 6.123234e-17 -1321.9156 329.078)">
		<stop
   offset="0.2"
   style="stop-color:#89dceb;stop-opacity:1;"
   id="stop20" />
		<stop
   offset="0.8"
   style="stop-color:#f5c2e7"
   id="stop22" />
	</linearGradient>
	<path
   class="st3"
   d="M4.8,12.1H1c-0.6,0-1,0.4-1,1V21c0,0.6,0.4,1,1,1h3.8c0.6,0,1-0.4,1-1v-7.9C5.8,12.5,5.3,12.1,4.8,12.1z"
   id="path25"
   style="fill:#89dceb;fill-opacity:1" />
</g>
</svg>
