<?xml version="1.0" encoding="utf-8"?>
<!-- Generator: Adobe Illustrator 26.1.0, SVG Export Plug-In . SVG Version: 6.00 Build 0)  -->
<svg version="1.1" id="Layer_1" xmlns="http://www.w3.org/2000/svg" xmlns:xlink="http://www.w3.org/1999/xlink" x="0px" y="0px"
	 viewBox="0 0 660 1143.1" style="enable-background:new 0 0 660 1143.1;" xml:space="preserve">
<style type="text/css">
	.st0{fill:#242424;}
</style>
<path id="_x30_" class="st0" d="M0,450.7L0,450.7V520l0,0v69.3l0,0v69.3l0,0v69.3l60-34.6l0,0l60-34.6l0,0l60-34.6l0,0l60-34.6
	l60-34.6v-69.3l0,0v-69.3V347v-69.3l0,0v-69.3L240,243l0,0l-60,34.6l0,0l-60,34.6l-60,34.6l0,0l0,0L0,381.4l0,0V450.7z M120,589.2
	l-60,34.6v-69.3l0,0v-69.3l60,34.6l0,0l0,0l60,34.6L120,589.2L120,589.2z M60,416l60-34.6l0,0l60-34.6l60-34.6v69.3v69.3l0,0v69.3
	l0,0l-60-34.6l0,0l0,0l-60-34.6l0,0l0,0L60,416L60,416L60,416z"/>
</svg>
