<?xml version="1.0" encoding="utf-8"?>
<!-- Generator: Adobe Illustrator 25.2.0, SVG Export Plug-In . SVG Version: 6.00 Build 0)  -->
<svg version="1.1" id="Layer_1" xmlns="http://www.w3.org/2000/svg" xmlns:xlink="http://www.w3.org/1999/xlink" x="0px" y="0px"
	 viewBox="0 0 660 1143.1" style="enable-background:new 0 0 660 1143.1;" xml:space="preserve">
<style type="text/css">
	.st0{fill:#c6c6c6;}
</style>
<polygon id="_x33_" class="st0" points="299.8,901.1 299.8,831.8 299.8,831.8 299.8,831.8 299.8,762.5 299.8,693.3 299.8,624 
	239.8,658.6 179.8,693.3 119.8,727.9 119.8,727.9 119.8,727.9 59.8,762.5 59.8,762.6 59.8,762.6 -0.2,797.2 -0.2,866.5 59.8,831.8 
	59.8,831.8 119.8,797.2 119.8,797.2 179.8,762.6 179.8,762.5 239.8,727.9 239.8,797.2 239.8,797.2 239.8,797.2 179.8,831.8 
	179.8,831.8 179.8,831.8 119.8,866.5 119.8,866.5 119.8,866.5 59.8,901.1 59.8,901.1 59.8,970.4 119.8,935.8 119.8,935.8 
	179.8,901.1 179.8,901.1 239.8,866.5 239.8,866.5 239.8,866.5 239.8,935.8 239.8,935.8 179.8,970.4 179.8,970.4 119.8,1005 
	119.8,1005 59.8,1039.7 59.8,1039.7 -0.2,1074.3 -0.2,1143.6 59.8,1109 59.8,1109 119.8,1074.3 119.8,1074.3 179.8,1039.7 
	179.8,1039.7 239.8,1005 239.8,1005 299.8,970.4 299.8,970.4 299.8,901.1 "/>
</svg>
