<?xml version="1.0" encoding="utf-8"?>
<!-- Generator: Adobe Illustrator 25.2.0, SVG Export Plug-In . SVG Version: 6.00 Build 0)  -->
<svg version="1.1" id="Layer_1" xmlns="http://www.w3.org/2000/svg" xmlns:xlink="http://www.w3.org/1999/xlink" x="0px" y="0px"
	 viewBox="0 0 660 1143.1" style="enable-background:new 0 0 660 1143.1;" xml:space="preserve">
<style type="text/css">
	.st0{fill:#242424;}
</style>
<polygon id="_x35_" class="st0" points="0,866.3 0,935.6 0,1004.8 60,970.2 60,970.2 120,935.6 180,900.9 240,866.3 240,866.3 
	240,935.6 180,970.2 120,1004.8 60,1039.5 60,1039.5 0,1074.1 0,1074.1 0,1143.4 60,1108.8 120,1074.1 180,1039.5 240,1004.8 
	300,970.2 300,900.9 300,900.9 300,831.6 300,831.6 300,831.6 300,762.4 300,762.4 240,797 240,797 180,831.6 180,831.6 120,866.3 
	120,866.3 60,900.9 60,831.6 60,831.6 120,797 120,797 180,762.4 180,762.4 240,727.7 240,727.7 300,693.1 300,623.8 240,658.4 
	180,693.1 180,693.1 180,693.1 120,727.7 120,727.7 120,727.7 60,762.4 60,762.4 0,797 0,797 "/>
</svg>
