<?xml version="1.0" encoding="utf-8"?>
<!-- Generator: Adobe Illustrator 25.2.0, SVG Export Plug-In . SVG Version: 6.00 Build 0)  -->
<svg version="1.1" id="Layer_1" xmlns="http://www.w3.org/2000/svg" xmlns:xlink="http://www.w3.org/1999/xlink" x="0px" y="0px"
	 viewBox="0 0 660 1143.1" style="enable-background:new 0 0 660 1143.1;" xml:space="preserve">
<style type="text/css">
	.st0{fill:#242424;}
</style>
<polygon id="_x37__1_" class="st0" points="59.8,416 59.8,416 119.8,381.4 119.8,381.4 179.8,346.7 239.8,312.1 239.8,381.4 
	179.8,416 179.8,416 179.8,485.3 239.8,450.6 239.8,450.6 239.8,450.6 239.8,519.9 239.8,519.9 239.8,589.2 299.8,554.6 
	299.8,554.6 299.8,485.3 299.8,485.3 299.8,485.3 299.8,416 299.8,346.7 299.8,277.4 299.8,208.2 239.8,242.8 179.8,277.4 
	119.8,312.1 59.8,346.7 59.8,346.7 59.8,346.7 -0.2,381.4 -0.2,381.4 -0.2,450.6 "/>
</svg>
