<?xml version="1.0" encoding="utf-8"?>
<!-- Generator: Adobe Illustrator 25.2.0, SVG Export Plug-In . SVG Version: 6.00 Build 0)  -->
<svg version="1.1" id="Layer_1" xmlns="http://www.w3.org/2000/svg" xmlns:xlink="http://www.w3.org/1999/xlink" x="0px" y="0px"
	 viewBox="0 0 660 1143.1" style="enable-background:new 0 0 660 1143.1;" xml:space="preserve">
<style type="text/css">
	.st0{fill:#c6c6c6;}
</style>
<polygon id="_x37__1_" class="st0" points="419.8,624 419.8,624 479.8,589.4 479.8,589.4 539.8,554.7 599.8,520.1 599.8,589.4 
	539.8,624 539.8,624 539.8,693.3 599.8,658.6 599.8,658.6 599.8,658.6 599.8,727.9 599.8,727.9 599.8,797.2 659.8,762.6 
	659.8,762.6 659.8,693.3 659.8,693.3 659.8,693.3 659.8,624 659.8,554.7 659.8,485.4 659.8,416.2 599.8,450.8 539.8,485.4 
	479.8,520.1 419.8,554.7 419.8,554.7 419.8,554.7 359.8,589.4 359.8,589.4 359.8,658.6 "/>
</svg>
