<?xml version="1.0" encoding="utf-8"?>
<!-- Generator: Adobe Illustrator 25.2.0, SVG Export Plug-In . SVG Version: 6.00 Build 0)  -->
<svg version="1.1" id="Layer" xmlns="http://www.w3.org/2000/svg" xmlns:xlink="http://www.w3.org/1999/xlink" x="0px" y="0px"
	 viewBox="0 0 22 22" style="enable-background:new 0 0 22 22;" xml:space="preserve">
<style type="text/css">
	.st0{fill:url(#SVGID_1_);}
	.st1{fill:url(#SVGID_2_);}
	.st2{fill:url(#SVGID_3_);}
	.st3{fill:url(#SVGID_4_);}
</style>
<g>
	
		<linearGradient id="SVGID_1_" gradientUnits="userSpaceOnUse" x1="134.84" y1="5.8153" x2="159.84" y2="5.8153" gradientTransform="matrix(1 0 0 -1 -136.2611 16.8153)">
		<stop  offset="0.2" style="stop-color:#A07DDE"/>
		<stop  offset="0.3044" style="stop-color:#937EDE"/>
		<stop  offset="0.4976" style="stop-color:#7181DF"/>
		<stop  offset="0.7561" style="stop-color:#3A87E1"/>
		<stop  offset="1" style="stop-color:#008CE3"/>
	</linearGradient>
	<path class="st0" d="M14.1,22H20c1.1,0,2-0.9,2-2V2c0-1.1-0.9-2-2-2h-5.9c-1.1,0-2,0.9-2,2v18C12.1,21.1,13,22,14.1,22z"/>
	
		<linearGradient id="SVGID_2_" gradientUnits="userSpaceOnUse" x1="134.84" y1="-2.2847" x2="159.84" y2="-2.2847" gradientTransform="matrix(1 0 0 -1 -136.2611 16.8153)">
		<stop  offset="0.2" style="stop-color:#A07DDE"/>
		<stop  offset="0.3044" style="stop-color:#937EDE"/>
		<stop  offset="0.4976" style="stop-color:#7181DF"/>
		<stop  offset="0.7561" style="stop-color:#3A87E1"/>
		<stop  offset="1" style="stop-color:#008CE3"/>
	</linearGradient>
	<path class="st1" d="M1,22h7.9c0.6,0,1-0.4,1-1v-3.8c0-0.6-0.4-1-1-1H1c-0.6,0-1,0.4-1,1V21C0,21.6,0.4,22,1,22z"/>
	
		<linearGradient id="SVGID_3_" gradientUnits="userSpaceOnUse" x1="134.84" y1="5.8153" x2="159.84" y2="5.8153" gradientTransform="matrix(1 0 0 -1 -136.2611 16.8153)">
		<stop  offset="0.2" style="stop-color:#A07DDE"/>
		<stop  offset="0.3044" style="stop-color:#937EDE"/>
		<stop  offset="0.4976" style="stop-color:#7181DF"/>
		<stop  offset="0.7561" style="stop-color:#3A87E1"/>
		<stop  offset="1" style="stop-color:#008CE3"/>
	</linearGradient>
	<path class="st2" d="M1,13.9h7.9c0.6,0,1-0.4,1-1V9.1c0-0.6-0.4-1-1-1H1c-0.6,0-1,0.4-1,1v3.8C0,13.4,0.4,13.9,1,13.9z"/>
	
		<linearGradient id="SVGID_4_" gradientUnits="userSpaceOnUse" x1="134.84" y1="13.9153" x2="159.84" y2="13.9153" gradientTransform="matrix(1 0 0 -1 -136.2611 16.8153)">
		<stop  offset="0.2" style="stop-color:#A07DDE"/>
		<stop  offset="0.3044" style="stop-color:#937EDE"/>
		<stop  offset="0.4976" style="stop-color:#7181DF"/>
		<stop  offset="0.7561" style="stop-color:#3A87E1"/>
		<stop  offset="1" style="stop-color:#008CE3"/>
	</linearGradient>
	<path class="st3" d="M1,5.8h7.9c0.6,0,1-0.4,1-1V1c0-0.6-0.4-1-1-1H1C0.4,0,0,0.4,0,1v3.8C0,5.3,0.4,5.8,1,5.8z"/>
</g>
</svg>
