<?xml version="1.0" encoding="utf-8"?>
<!-- Generator: Adobe Illustrator 25.2.0, SVG Export Plug-In . SVG Version: 6.00 Build 0)  -->
<svg version="1.1" id="Layer" xmlns="http://www.w3.org/2000/svg" xmlns:xlink="http://www.w3.org/1999/xlink" x="0px" y="0px"
	 viewBox="0 0 22 22" style="enable-background:new 0 0 22 22;" xml:space="preserve">
<style type="text/css">
	.st0{fill:url(#SVGID_1_);}
	.st1{fill:url(#SVGID_2_);}
	.st2{fill:url(#SVGID_3_);}
	.st3{fill:url(#SVGID_4_);}
</style>
<g>
	
		<linearGradient id="SVGID_1_" gradientUnits="userSpaceOnUse" x1="-365.0023" y1="1385.4188" x2="-340.0023" y2="1385.4188" gradientTransform="matrix(-6.123234e-17 1 1 6.123234e-17 -1374.4188 363.5812)">
		<stop  offset="0.2" style="stop-color:#A07DDE"/>
		<stop  offset="0.3044" style="stop-color:#937EDE"/>
		<stop  offset="0.4976" style="stop-color:#7181DF"/>
		<stop  offset="0.7561" style="stop-color:#3A87E1"/>
		<stop  offset="1" style="stop-color:#008CE3"/>
	</linearGradient>
	<path class="st0" d="M20,12.1H2c-1.1,0-2,0.9-2,2V20c0,1.1,0.9,2,2,2h18c1.1,0,2-0.9,2-2v-5.9C22,13,21.1,12.1,20,12.1z"/>
	
		<linearGradient id="SVGID_2_" gradientUnits="userSpaceOnUse" x1="-365.0023" y1="1377.3188" x2="-340.0023" y2="1377.3188" gradientTransform="matrix(-6.123234e-17 1 1 6.123234e-17 -1374.4188 363.5812)">
		<stop  offset="0.2" style="stop-color:#A07DDE"/>
		<stop  offset="0.3044" style="stop-color:#937EDE"/>
		<stop  offset="0.4976" style="stop-color:#7181DF"/>
		<stop  offset="0.7561" style="stop-color:#3A87E1"/>
		<stop  offset="1" style="stop-color:#008CE3"/>
	</linearGradient>
	<path class="st1" d="M1,9.9h3.8c0.6,0,1-0.4,1-1V1c0-0.6-0.4-1-1-1H1C0.4,0,0,0.4,0,1v7.9C0,9.5,0.4,9.9,1,9.9z"/>
	
		<linearGradient id="SVGID_3_" gradientUnits="userSpaceOnUse" x1="-365.0023" y1="1385.4188" x2="-340.0023" y2="1385.4188" gradientTransform="matrix(-6.123234e-17 1 1 6.123234e-17 -1374.4188 363.5812)">
		<stop  offset="0.2" style="stop-color:#A07DDE"/>
		<stop  offset="0.3044" style="stop-color:#937EDE"/>
		<stop  offset="0.4976" style="stop-color:#7181DF"/>
		<stop  offset="0.7561" style="stop-color:#3A87E1"/>
		<stop  offset="1" style="stop-color:#008CE3"/>
	</linearGradient>
	<path class="st2" d="M9.1,9.9h3.8c0.6,0,1-0.4,1-1V1c0-0.6-0.4-1-1-1H9.1c-0.6,0-1,0.4-1,1v7.9C8.1,9.5,8.6,9.9,9.1,9.9z"/>
	
		<linearGradient id="SVGID_4_" gradientUnits="userSpaceOnUse" x1="-365.0023" y1="1393.5188" x2="-340.0023" y2="1393.5188" gradientTransform="matrix(-6.123234e-17 1 1 6.123234e-17 -1374.4188 363.5812)">
		<stop  offset="0.2" style="stop-color:#A07DDE"/>
		<stop  offset="0.3044" style="stop-color:#937EDE"/>
		<stop  offset="0.4976" style="stop-color:#7181DF"/>
		<stop  offset="0.7561" style="stop-color:#3A87E1"/>
		<stop  offset="1" style="stop-color:#008CE3"/>
	</linearGradient>
	<path class="st3" d="M21,0h-3.8c-0.6,0-1,0.4-1,1v7.9c0,0.6,0.4,1,1,1H21c0.6,0,1-0.4,1-1V1C22,0.4,21.6,0,21,0z"/>
</g>
</svg>
