<?xml version="1.0" encoding="utf-8"?>
<!-- Generator: Adobe Illustrator 25.2.0, SVG Export Plug-In . SVG Version: 6.00 Build 0)  -->
<svg version="1.1" id="Layer_1" xmlns="http://www.w3.org/2000/svg" xmlns:xlink="http://www.w3.org/1999/xlink" x="0px" y="0px"
	 viewBox="0 0 660 1143.1" style="enable-background:new 0 0 660 1143.1;" xml:space="preserve">
<style type="text/css">
	.st0{fill:#9ed84b;}
</style>
<polygon id="_x32_" class="st0" points="300,900.6 240,935.3 240,935.3 180,969.9 180,969.9 120,1004.5 120,1004.5 60,1039.2 
	60,969.9 120,935.3 120,935.2 180,900.6 180,900.6 240,866 240,866 300,831.3 300,831.3 300,762 300,692.8 300,623.5 240,658.1 
	180,692.8 120,727.4 120,727.4 120,727.4 60,762 0,796.7 0,866 60,831.3 120,796.7 120,796.7 180,762.1 180,762 240,727.4 
	240,796.7 240,796.7 240,796.7 180,831.3 180,831.3 180,831.3 120,866 120,866 120,866 60,900.6 0,935.3 0,1004.5 0,1073.8 
	0,1073.8 0,1073.8 0,1143.1 60,1108.5 60,1108.5 120,1073.8 120,1073.8 180,1039.2 180,1039.2 240,1004.5 240,1004.5 300,969.9 
	300,969.9 "/>
</svg>
