<?xml version="1.0" encoding="utf-8"?>
<!-- Generator: Adobe Illustrator 25.2.0, SVG Export Plug-In . SVG Version: 6.00 Build 0)  -->
<svg version="1.1" id="Layer_1" xmlns="http://www.w3.org/2000/svg" xmlns:xlink="http://www.w3.org/1999/xlink" x="0px" y="0px"
	 viewBox="0 0 660 1143.1" style="enable-background:new 0 0 660 1143.1;" xml:space="preserve">
<style type="text/css">
	.st0{fill:#9ed84b;}
</style>
<polygon id="_x33_" class="st0" points="299.8,485.1 299.8,415.8 299.8,415.8 299.8,415.8 299.8,346.5 299.8,277.3 299.8,208 
	239.8,242.6 179.8,277.3 119.8,311.9 119.8,311.9 119.8,311.9 59.8,346.5 59.8,346.6 59.8,346.6 -0.2,381.2 -0.2,450.5 59.8,415.8 
	59.8,415.8 119.8,381.2 119.8,381.2 179.8,346.6 179.8,346.5 239.8,311.9 239.8,381.2 239.8,381.2 239.8,381.2 179.8,415.8 
	179.8,415.8 179.8,415.8 119.8,450.5 119.8,450.5 119.8,450.5 59.8,485.1 59.8,485.1 59.8,554.4 119.8,519.8 119.8,519.8 
	179.8,485.1 179.8,485.1 239.8,450.5 239.8,450.5 239.8,450.5 239.8,519.8 239.8,519.8 179.8,554.4 179.8,554.4 119.8,589 
	119.8,589 59.8,623.7 59.8,623.7 -0.2,658.3 -0.2,727.6 59.8,693 59.8,693 119.8,658.3 119.8,658.3 179.8,623.7 179.8,623.7 
	239.8,589 239.8,589 299.8,554.4 299.8,554.4 299.8,485.1 "/>
</svg>
