<?xml version="1.0" encoding="utf-8"?>
<!-- Generator: Adobe Illustrator 25.2.0, SVG Export Plug-In . SVG Version: 6.00 Build 0)  -->
<svg version="1.1" id="Layer_1" xmlns="http://www.w3.org/2000/svg" xmlns:xlink="http://www.w3.org/1999/xlink" x="0px" y="0px"
	 viewBox="0 0 660 1143.1" style="enable-background:new 0 0 660 1143.1;" xml:space="preserve">
<style type="text/css">
	.st0{fill:#9ed84b;}
</style>
<polygon id="_x33_" class="st0" points="660,693.1 660,623.8 660,623.8 660,623.8 660,554.5 660,485.3 660,416 600,450.6 540,485.3 
	480,519.9 480,519.9 480,519.9 420,554.5 420,554.6 420,554.6 360,589.2 360,658.5 420,623.8 420,623.8 480,589.2 480,589.2 
	540,554.6 540,554.5 600,519.9 600,589.2 600,589.2 600,589.2 540,623.8 540,623.8 540,623.8 480,658.5 480,658.5 480,658.5 
	420,693.1 420,693.1 420,762.4 480,727.8 480,727.8 540,693.1 540,693.1 600,658.5 600,658.5 600,658.5 600,727.8 600,727.8 
	540,762.4 540,762.4 480,797 480,797 420,831.7 420,831.7 360,866.3 360,935.6 420,901 420,901 480,866.3 480,866.3 540,831.7 
	540,831.7 600,797 600,797 660,762.4 660,762.4 660,693.1 "/>
</svg>
