<?xml version="1.0" encoding="utf-8"?>
<!-- Generator: Adobe Illustrator 25.2.0, SVG Export Plug-In . SVG Version: 6.00 Build 0)  -->
<svg version="1.1" id="Layer_1" xmlns="http://www.w3.org/2000/svg" xmlns:xlink="http://www.w3.org/1999/xlink" x="0px" y="0px"
	 viewBox="0 0 660 1143.1" style="enable-background:new 0 0 660 1143.1;" xml:space="preserve">
<style type="text/css">
	.st0{fill:#9ed84b;}
</style>
<polygon id="_x35_" class="st0" points="360,242.3 360,311.6 360,380.8 420,346.2 420,346.2 480,311.6 540,276.9 600,242.3 
	600,242.3 600,311.6 540,346.2 480,380.8 420,415.5 420,415.5 360,450.1 360,450.1 360,519.4 420,484.8 480,450.1 540,415.5 
	600,380.8 660,346.2 660,276.9 660,276.9 660,207.6 660,207.6 660,207.6 660,138.4 660,138.4 600,173 600,173 540,207.6 540,207.6 
	480,242.3 480,242.3 420,276.9 420,207.6 420,207.6 480,173 480,173 540,138.4 540,138.4 600,103.7 600,103.7 660,69.1 660,-0.2 
	600,34.4 540,69.1 540,69.1 540,69.1 480,103.7 480,103.7 480,103.7 420,138.4 420,138.4 360,173 360,173 "/>
</svg>
