<?xml version="1.0" encoding="utf-8"?>
<!-- Generator: Adobe Illustrator 25.2.0, SVG Export Plug-In . SVG Version: 6.00 Build 0)  -->
<svg version="1.1" id="Layer_1" xmlns="http://www.w3.org/2000/svg" xmlns:xlink="http://www.w3.org/1999/xlink" x="0px" y="0px"
	 viewBox="0 0 660 1143.1" style="enable-background:new 0 0 660 1143.1;" xml:space="preserve">
<style type="text/css">
	.st0{fill:#9ed84b;}
</style>
<path id="_x38_" class="st0" d="M300,208.2l-60,34.6l0,0l-60,34.6l0,0L120,312l-60,34.6l0,0l0,0L0,381.4v69.3V520v69.3v69.3v69.3
	l60-34.6l0,0l60-34.6l0,0l60-34.6l0,0l60-34.6l0,0l60-34.6v-69.3l0,0v-69.3V347v-69.3l0,0V208.2z M240,450.7V520l0,0l-60,34.6l0,0
	l-60,34.6l0,0l-60,34.6v-69.3l0,0l60-34.6l0,0l60-34.6l0,0L240,450.7L240,450.7L240,450.7z M240,381.4L180,416l0,0l-60,34.6l0,0
	l-60,34.6l0,0l0,0l0,0v-69.3l0,0l0,0l60-34.6l0,0l60-34.6l60-34.6V381.4z"/>
</svg>
