<?xml version="1.0" encoding="utf-8"?>
<!-- Generator: Adobe Illustrator 25.2.0, SVG Export Plug-In . SVG Version: 6.00 Build 0)  -->
<svg version="1.1" id="Layer_1" xmlns="http://www.w3.org/2000/svg" xmlns:xlink="http://www.w3.org/1999/xlink" x="0px" y="0px"
	 viewBox="0 0 660 1143.1" style="enable-background:new 0 0 660 1143.1;" xml:space="preserve">
<style type="text/css">
	.st0{fill:#9ed84b;}
</style>
<polygon class="st0" points="479.8,796.7 419.8,831.4 359.8,866 359.8,866 359.8,935.3 419.8,900.7 479.8,866 539.8,831.4 
	599.8,796.7 659.8,762.1 659.8,692.8 659.8,692.8 599.8,727.5 599.8,658.2 599.8,658.2 599.8,658.2 599.8,588.9 599.8,519.6 
	599.8,450.3 539.8,485 479.8,519.6 479.8,519.6 419.8,554.2 419.8,554.3 419.8,623.5 479.8,588.9 479.8,588.9 539.8,554.2 
	539.8,623.5 539.8,623.5 539.8,623.5 539.8,692.8 539.8,692.8 539.8,692.8 539.8,762.1 "/>
</svg>
