<?xml version="1.0" encoding="utf-8"?>
<!-- Generator: Adobe Illustrator 25.2.0, SVG Export Plug-In . SVG Version: 6.00 Build 0)  -->
<svg version="1.1" id="Layer" xmlns="http://www.w3.org/2000/svg" xmlns:xlink="http://www.w3.org/1999/xlink" x="0px" y="0px"
	 viewBox="0 0 22 22" style="enable-background:new 0 0 22 22;" xml:space="preserve">
<style type="text/css">
	.st0{fill:url(#SVGID_1_);}
	.st1{fill:url(#SVGID_2_);}
	.st2{fill:url(#SVGID_3_);}
	.st3{fill:url(#SVGID_4_);}
</style>
<g>
	
		<linearGradient id="SVGID_1_" gradientUnits="userSpaceOnUse" x1="-359.2891" y1="1361.0287" x2="-334.2891" y2="1361.0287" gradientTransform="matrix(-6.123234e-17 1 1 6.123234e-17 -1350.0287 357.7102)">
		<stop  offset="0.2" style="stop-color:#2AC68E"/>
		<stop  offset="0.8" style="stop-color:#3DDDD8"/>
	</linearGradient>
	<path class="st0" d="M20,0H2C0.9,0,0,0.9,0,2v5.9c0,1.1,0.9,2,2,2h18c1.1,0,2-0.9,2-2V2C22,0.9,21.1,0,20,0z"/>
	
		<linearGradient id="SVGID_2_" gradientUnits="userSpaceOnUse" x1="-359.2891" y1="1369.1287" x2="-334.2891" y2="1369.1287" gradientTransform="matrix(-6.123234e-17 1 1 6.123234e-17 -1350.0287 357.7102)">
		<stop  offset="0.2" style="stop-color:#2AC68E"/>
		<stop  offset="0.8" style="stop-color:#3DDDD8"/>
	</linearGradient>
	<path class="st1" d="M21,12.1h-3.8c-0.6,0-1,0.4-1,1V21c0,0.6,0.4,1,1,1H21c0.6,0,1-0.4,1-1v-7.9C22,12.5,21.6,12.1,21,12.1z"/>
	
		<linearGradient id="SVGID_3_" gradientUnits="userSpaceOnUse" x1="-359.2891" y1="1361.0287" x2="-334.2891" y2="1361.0287" gradientTransform="matrix(-6.123234e-17 1 1 6.123234e-17 -1350.0287 357.7102)">
		<stop  offset="0.2" style="stop-color:#2AC68E"/>
		<stop  offset="0.8" style="stop-color:#3DDDD8"/>
	</linearGradient>
	<path class="st2" d="M12.9,12.1H9.1c-0.6,0-1,0.4-1,1V21c0,0.6,0.4,1,1,1h3.8c0.6,0,1-0.4,1-1v-7.9C13.9,12.5,13.4,12.1,12.9,12.1z
		"/>
	
		<linearGradient id="SVGID_4_" gradientUnits="userSpaceOnUse" x1="-359.2891" y1="1352.9287" x2="-334.2891" y2="1352.9287" gradientTransform="matrix(-6.123234e-17 1 1 6.123234e-17 -1350.0287 357.7102)">
		<stop  offset="0.2" style="stop-color:#2AC68E"/>
		<stop  offset="0.8" style="stop-color:#3DDDD8"/>
	</linearGradient>
	<path class="st3" d="M4.8,12.1H1c-0.6,0-1,0.4-1,1V21c0,0.6,0.4,1,1,1h3.8c0.6,0,1-0.4,1-1v-7.9C5.8,12.5,5.3,12.1,4.8,12.1z"/>
</g>
</svg>
