<?xml version="1.0" encoding="utf-8"?>
<!-- Generator: Adobe Illustrator 25.2.0, SVG Export Plug-In . SVG Version: 6.00 Build 0)  -->
<svg version="1.1" id="Layer_1" xmlns="http://www.w3.org/2000/svg" xmlns:xlink="http://www.w3.org/1999/xlink" x="0px" y="0px"
	 viewBox="0 0 660 1143.1" style="enable-background:new 0 0 660 1143.1;" xml:space="preserve">
<style type="text/css">
	.st0{fill:#D84B4F;}
</style>
<polygon class="st0" points="299,486.6 299,486.6 239,521.3 239,521.3 179,555.9 179,555.9 119,590.5 119,590.5 59,625.2 59,555.9 
	119,521.3 119,521.2 179,486.6 179,486.6 239,452 239,452 299,417.3 299,417.3 299,348 299,278.8 239,244.1 179,278.8 119,313.4 
	119,313.4 119,313.4 59,348 -1,382.7 -1,452 59,417.3 119,382.7 119,382.7 179,348.1 179,348 239,313.4 239,382.7 239,382.7 
	239,382.7 179,417.3 179,417.3 179,417.3 119,452 119,452 119,452 59,486.6 -1,521.3 -1,590.5 -1,659.8 -1,659.8 -1,659.8 59,694.5 
	59,694.5 119,659.8 119,659.8 179,625.2 179,625.2 239,590.5 239,590.5 299,555.9 299,555.9 "/>
</svg>
