<?xml version="1.0" encoding="utf-8"?>
<!-- Generator: Adobe Illustrator 25.2.0, SVG Export Plug-In . SVG Version: 6.00 Build 0)  -->
<svg version="1.1" id="Layer_1" xmlns="http://www.w3.org/2000/svg" xmlns:xlink="http://www.w3.org/1999/xlink" x="0px" y="0px"
	 viewBox="0 0 660 1143.1" style="enable-background:new 0 0 660 1143.1;" xml:space="preserve">
<style type="text/css">
	.st0{fill:#D84B4F;}
</style>
<polygon class="st0" points="660,277.6 660,277.6 600,312.3 600,312.3 540,346.9 540,346.9 480,381.5 480,381.5 420,416.2 
	420,346.9 480,312.3 480,312.2 540,277.6 540,277.6 600,243 600,243 660,208.3 660,208.3 660,139 660,69.8 600,35.1 540,69.8 
	480,104.4 480,104.4 480,104.4 420,139 360,173.7 360,243 420,208.3 480,173.7 480,173.7 540,139.1 540,139 600,104.4 600,173.7 
	600,173.7 600,173.7 540,208.3 540,208.3 540,208.3 480,243 480,243 480,243 420,277.6 360,312.3 360,381.5 360,450.8 360,450.8 
	360,450.8 420,485.5 420,485.5 480,450.8 480,450.8 540,416.2 540,416.2 600,381.5 600,381.5 660,346.9 660,346.9 "/>
</svg>
