<?xml version="1.0" encoding="utf-8"?>
<!-- Generator: Adobe Illustrator 25.2.0, SVG Export Plug-In . SVG Version: 6.00 Build 0)  -->
<svg version="1.1" id="Layer_1" xmlns="http://www.w3.org/2000/svg" xmlns:xlink="http://www.w3.org/1999/xlink" x="0px" y="0px"
	 viewBox="0 0 660 1143.1" style="enable-background:new 0 0 660 1143.1;" xml:space="preserve">
<style type="text/css">
	.st0{fill:#D84B4F;}
</style>
<polygon class="st0" points="0,935.4 60,970 60,970 120,935.4 120,935.4 180,900.8 180,900.8 240,866.1 240,866.1 240,866.1 
	240,935.4 240,935.4 240,1004.7 300,970 300,900.8 300,900.8 300,831.5 300,831.5 300,762.2 300,692.9 300,623.6 240,658.3 
	240,658.3 240,727.6 240,796.8 240,796.8 180,831.5 180,831.5 120,866.1 120,866.1 60,900.8 60,900.8 60,900.8 60,900.8 60,831.5 
	60,831.5 60,831.5 60,762.2 60,762.2 0,796.8 0,866.1 "/>
</svg>
