<?xml version="1.0" encoding="utf-8"?>
<!-- Generator: Adobe Illustrator 25.2.0, SVG Export Plug-In . SVG Version: 6.00 Build 0)  -->
<svg version="1.1" id="Layer_1" xmlns="http://www.w3.org/2000/svg" xmlns:xlink="http://www.w3.org/1999/xlink" x="0px" y="0px"
	 viewBox="0 0 660 1143.1" style="enable-background:new 0 0 660 1143.1;" xml:space="preserve">
<style type="text/css">
	.st0{fill:#D84B4F;}
</style>
<polygon class="st0" points="0,450.3 0,519.6 60,554.2 60,554.2 120,519.6 180,484.9 240,450.3 240,450.3 240,519.6 180,554.2 
	120,588.8 60,623.5 60,623.5 0,658.1 0,658.1 0,727.4 60,692.8 120,658.1 180,623.5 240,588.8 300,554.2 300,484.9 300,484.9 
	300,415.6 300,415.6 240,381 240,381 180,415.6 180,415.6 120,450.3 120,450.3 60,484.9 60,415.6 60,415.6 120,381 120,381 
	180,346.4 180,346.4 240,311.7 240,311.7 300,277.1 300,207.8 240,242.4 180,277.1 180,277.1 180,277.1 120,311.7 120,311.7 
	120,311.7 60,346.4 60,346.4 0,381 0,381 "/>
</svg>
