<?xml version="1.0" encoding="utf-8"?>
<!-- Generator: Adobe Illustrator 25.2.0, SVG Export Plug-In . SVG Version: 6.00 Build 0)  -->
<svg version="1.1" id="Layer_1" xmlns="http://www.w3.org/2000/svg" xmlns:xlink="http://www.w3.org/1999/xlink" x="0px" y="0px"
	 viewBox="0 0 660 1143.1" style="enable-background:new 0 0 660 1143.1;" xml:space="preserve">
<style type="text/css">
	.st0{fill:#D84B4F;}
</style>
<polygon class="st0" points="60,415.9 60,415.9 120,381.2 120,381.2 180,346.6 240,311.9 240,381.2 180,415.9 180,415.9 180,485.1 
	240,450.5 240,450.5 240,450.5 240,519.8 240,519.8 240,589.1 300,554.4 300,554.4 300,485.2 300,485.2 300,485.2 300,415.9 
	300,346.6 300,277.3 240,242.7 180,277.3 120,311.9 60,346.6 60,346.6 60,346.6 0,381.2 0,381.2 0,450.5 "/>
</svg>
