<?xml version="1.0" encoding="utf-8"?>
<!-- Generator: Adobe Illustrator 25.2.0, SVG Export Plug-In . SVG Version: 6.00 Build 0)  -->
<svg version="1.1" id="Layer_1" xmlns="http://www.w3.org/2000/svg" xmlns:xlink="http://www.w3.org/1999/xlink" x="0px" y="0px"
	 viewBox="0 0 660 1143.1" style="enable-background:new 0 0 660 1143.1;" xml:space="preserve">
<style type="text/css">
	.st0{fill:#D84B4F;}
</style>
<polygon class="st0" points="420,207.9 420,207.9 480,173.2 480,173.2 540,138.6 600,103.9 600,173.2 540,207.9 540,207.9 
	540,277.1 600,242.5 600,242.5 600,242.5 600,311.8 600,311.8 600,381.1 660,346.4 660,346.4 660,277.2 660,277.2 660,277.2 
	660,207.9 660,138.6 660,69.3 600,34.7 540,69.3 480,103.9 420,138.6 420,138.6 420,138.6 360,173.2 360,173.2 360,242.5 "/>
</svg>
