<?xml version="1.0" encoding="utf-8"?>
<!-- Generator: Adobe Illustrator 25.2.0, SVG Export Plug-In . SVG Version: 6.00 Build 0)  -->
<svg version="1.1" id="Layer" xmlns="http://www.w3.org/2000/svg" xmlns:xlink="http://www.w3.org/1999/xlink" x="0px" y="0px"
	 viewBox="0 0 22 22" style="enable-background:new 0 0 22 22;" xml:space="preserve">
<style type="text/css">
	.st0{fill:url(#SVGID_1_);}
	.st1{fill:url(#SVGID_2_);}
	.st2{fill:url(#SVGID_3_);}
	.st3{fill:url(#SVGID_4_);}
</style>
<g>
	
		<linearGradient id="SVGID_1_" gradientUnits="userSpaceOnUse" x1="-0.5066" y1="-235.2952" x2="24.4934" y2="-235.2952" gradientTransform="matrix(1 0 0 -1 -1.0191 -218.2452)">
		<stop  offset="0.2" style="stop-color:#F85858"/>
		<stop  offset="0.8" style="stop-color:#F076AB"/>
	</linearGradient>
	<path class="st0" d="M21,12.1h-8.2c-0.6,0-1,0.4-1,1V21c0,0.6,0.4,1,1,1H21c0.6,0,1-0.4,1-1v-7.9C22,12.5,21.6,12.1,21,12.1z"/>
	
		<linearGradient id="SVGID_2_" gradientUnits="userSpaceOnUse" x1="-0.5066" y1="-235.1952" x2="24.4934" y2="-235.1952" gradientTransform="matrix(1 0 0 -1 -1.0191 -218.2452)">
		<stop  offset="0.2" style="stop-color:#F85858"/>
		<stop  offset="0.8" style="stop-color:#F076AB"/>
	</linearGradient>
	<path class="st1" d="M9.1,12H1c-0.6,0-1,0.4-1,1v7.9c0,0.6,0.4,1,1,1h8.1c0.6,0,1-0.4,1-1V13C10.1,12.4,9.6,12,9.1,12z"/>
	
		<linearGradient id="SVGID_3_" gradientUnits="userSpaceOnUse" x1="-0.5066" y1="-223.2952" x2="24.4934" y2="-223.2952" gradientTransform="matrix(1 0 0 -1 -1.0191 -218.2452)">
		<stop  offset="0.2" style="stop-color:#F85858"/>
		<stop  offset="0.8" style="stop-color:#F076AB"/>
	</linearGradient>
	<path class="st2" d="M21,0.1h-8.2c-0.6,0-1,0.4-1,1V9c0,0.6,0.4,1,1,1H21c0.6,0,1-0.4,1-1V1.1C22,0.5,21.6,0.1,21,0.1z"/>
	
		<linearGradient id="SVGID_4_" gradientUnits="userSpaceOnUse" x1="-0.5066" y1="-223.1952" x2="24.4934" y2="-223.1952" gradientTransform="matrix(1 0 0 -1 -1.0191 -218.2452)">
		<stop  offset="0.2" style="stop-color:#F85858"/>
		<stop  offset="0.8" style="stop-color:#F076AB"/>
	</linearGradient>
	<path class="st3" d="M9.1,0H1C0.4,0,0,0.4,0,1v7.9c0,0.6,0.4,1,1,1h8.1c0.6,0,1-0.4,1-1V1C10.1,0.4,9.6,0,9.1,0z"/>
</g>
</svg>
