<?xml version="1.0" encoding="utf-8"?>
<!-- Generator: Adobe Illustrator 25.2.0, SVG Export Plug-In . SVG Version: 6.00 Build 0)  -->
<svg version="1.1" id="Layer" xmlns="http://www.w3.org/2000/svg" xmlns:xlink="http://www.w3.org/1999/xlink" x="0px" y="0px"
	 viewBox="0 0 16.5 16.5" style="enable-background:new 0 0 16.5 16.5;" xml:space="preserve">
<style type="text/css">
	.st0{fill:url(#SVGID_1_);}
</style>
<linearGradient id="SVGID_1_" gradientUnits="userSpaceOnUse" x1="7.423959e-04" y1="8.2558" x2="16.5108" y2="8.2558">
	<stop  offset="0.2" style="stop-color:#F85858"/>
	<stop  offset="0.8" style="stop-color:#F076AB"/>
</linearGradient>
<path class="st0" d="M11.5,0H5C2.3,0,0,2.3,0,5v6.5c0,2.8,2.2,5,5,5h6.5c2.8,0,5-2.2,5-5V5C16.5,2.3,14.3,0,11.5,0z M14.8,10.8
	c0,2.2-1.8,4-4,4H5.7c-2.2,0-4-1.8-4-4V5.7c0-2.2,1.8-4,4-4h5.1c2.2,0,4,1.8,4,4V10.8z"/>
</svg>
