<?xml version="1.0" encoding="utf-8"?>
<!-- Generator: Adobe Illustrator 25.2.0, SVG Export Plug-In . SVG Version: 6.00 Build 0)  -->
<svg version="1.1" id="Layer" xmlns="http://www.w3.org/2000/svg" xmlns:xlink="http://www.w3.org/1999/xlink" x="0px" y="0px"
	 viewBox="0 0 22 22" style="enable-background:new 0 0 22 22;" xml:space="preserve">
<style type="text/css">
	.st0{fill:url(#SVGID_1_);}
	.st1{fill:url(#SVGID_2_);}
	.st2{fill:#F076AB;}
	.st3{fill:url(#SVGID_3_);}
</style>
<g>
	
		<linearGradient id="SVGID_1_" gradientUnits="userSpaceOnUse" x1="-1382.7206" y1="-560.3424" x2="-1357.7206" y2="-560.3424" gradientTransform="matrix(-6.123234e-17 -1 -1 6.123234e-17 -549.3424 -1359.1417)">
		<stop  offset="0.2" style="stop-color:#F85858"/>
		<stop  offset="0.8" style="stop-color:#F076AB"/>
	</linearGradient>
	<path class="st0" d="M20,12.1H2c-1.1,0-2,0.9-2,2V20c0,1.1,0.9,2,2,2h18c1.1,0,2-0.9,2-2v-5.9C22,13,21.1,12.1,20,12.1z"/>
	
		<linearGradient id="SVGID_2_" gradientUnits="userSpaceOnUse" x1="-1382.7206" y1="-552.2424" x2="-1357.7206" y2="-552.2424" gradientTransform="matrix(-6.123234e-17 -1 -1 6.123234e-17 -549.3424 -1359.1417)">
		<stop  offset="0.2" style="stop-color:#F85858"/>
		<stop  offset="0.8" style="stop-color:#F076AB"/>
	</linearGradient>
	<path class="st1" d="M1,9.9h3.8c0.6,0,1-0.4,1-1V1c0-0.6-0.4-1-1-1H1C0.4,0,0,0.4,0,1v7.9C0,9.5,0.4,9.9,1,9.9z"/>
	<path class="st2" d="M9.1,9.9h3.8c0.6,0,1-0.4,1-1V1c0-0.6-0.4-1-1-1H9.1c-0.6,0-1,0.4-1,1v7.9C8.1,9.5,8.6,9.9,9.1,9.9z"/>
	
		<linearGradient id="SVGID_3_" gradientUnits="userSpaceOnUse" x1="-1382.7206" y1="-568.4424" x2="-1357.7206" y2="-568.4424" gradientTransform="matrix(-6.123234e-17 -1 -1 6.123234e-17 -549.3424 -1359.1417)">
		<stop  offset="0.2" style="stop-color:#F85858"/>
		<stop  offset="0.8" style="stop-color:#F076AB"/>
	</linearGradient>
	<path class="st3" d="M21,0h-3.8c-0.6,0-1,0.4-1,1v7.9c0,0.6,0.4,1,1,1H21c0.6,0,1-0.4,1-1V1C22,0.4,21.6,0,21,0z"/>
</g>
</svg>
