<?xml version="1.0" encoding="utf-8"?>
<!-- Generator: Adobe Illustrator 25.2.0, SVG Export Plug-In . SVG Version: 6.00 Build 0)  -->
<svg version="1.1" id="Layer_1" xmlns="http://www.w3.org/2000/svg" xmlns:xlink="http://www.w3.org/1999/xlink" x="0px" y="0px"
	 viewBox="0 0 660 1143.2" style="enable-background:new 0 0 660 1143.2;" xml:space="preserve">
<style type="text/css">
	.st0{fill:#d8af4b;}
</style>
<polygon class="st0" points="60,103.4 120,138.1 120,207.4 120,207.4 120,276.6 120,276.7 120,345.9 120,345.9 60,311.3 60,311.3 
	60,311.3 0,276.6 0,345.9 0,345.9 60,380.6 60,380.6 60,380.6 120,415.2 180,449.8 240,484.5 300,519.1 300,519.1 300,449.9 
	300,449.8 240,415.2 180,380.6 180,311.3 180,311.3 180,242 180,242 180,172.7 180,103.4 120,68.8 120,68.8 60,34.2 0,-0.5 0,68.8 
	0,68.8 "/>
</svg>
