<?xml version="1.0" encoding="utf-8"?>
<!-- Generator: Adobe Illustrator 25.2.0, SVG Export Plug-In . SVG Version: 6.00 Build 0)  -->
<svg version="1.1" id="Layer_1" xmlns="http://www.w3.org/2000/svg" xmlns:xlink="http://www.w3.org/1999/xlink" x="0px" y="0px"
	 viewBox="0 0 660 1143.2" style="enable-background:new 0 0 660 1143.2;" xml:space="preserve">
<style type="text/css">
	.st0{fill:#D84B4F;}
</style>
<polygon class="st0" points="360,831.1 360,900.3 360,900.3 360,900.3 360,969.6 360,969.6 420,1004.3 420,1004.3 480,1038.9 
	480,1038.9 540,1073.5 600,1108.2 660,1142.8 660,1142.8 660,1073.5 660,1073.5 600,1038.9 540,1004.3 540,1004.3 480,969.6 
	480,969.6 420,935 420,935 420,935 420,865.7 480,900.3 480,900.3 540,935 540,935 600,969.6 600,969.6 660,1004.3 660,1004.3 
	660,935 660,935 660,935 660,865.7 660,865.7 660,865.7 660,796.4 660,796.4 600,761.8 540,727.1 480,692.5 420,657.8 420,657.8 
	360,623.2 360,692.5 420,727.1 480,761.8 540,796.4 600,831.1 600,900.3 540,865.7 480,831 420,796.4 360,761.8 360,831 "/>
</svg>
