<?xml version="1.0" encoding="utf-8"?>
<!-- Generator: Adobe Illustrator 25.2.0, SVG Export Plug-In . SVG Version: 6.00 Build 0)  -->
<svg version="1.1" id="Layer_1" xmlns="http://www.w3.org/2000/svg" xmlns:xlink="http://www.w3.org/1999/xlink" x="0px" y="0px"
	 viewBox="0 0 660 1143.2" style="enable-background:new 0 0 660 1143.2;" xml:space="preserve">
<style type="text/css">
	.st0{fill:#d8af4b;}
</style>
<polygon class="st0" points="420,727 480,761.6 540,796.3 600,830.9 600,900.2 600,900.2 540,865.5 480,830.9 420,796.3 420,865.5 
	420,865.5 480,900.2 480,900.2 480,900.2 540,934.8 540,934.8 600,969.5 600,969.5 600,1038.7 540,1004.1 540,1004.1 480,969.5 
	480,969.5 480,969.5 420,934.8 420,934.8 420,934.8 360,900.2 360,969.5 360,969.5 420,1004.1 420,1004.1 420,1004.1 480,1038.7 
	480,1038.8 540,1073.4 600,1108 660,1142.7 660,1142.7 660,1073.4 660,1073.4 660,1073.4 660,1004.1 660,1004.1 660,1004.1 
	660,934.8 660,934.8 660,865.5 660,865.5 660,796.3 660,796.3 600,761.6 540,727 540,727 480,692.3 480,692.3 420,657.7 360,623.1 
	360,692.3 360,692.3 "/>
</svg>
