<?xml version="1.0" encoding="utf-8"?>
<!-- Generator: Adobe Illustrator 25.2.0, SVG Export Plug-In . SVG Version: 6.00 Build 0)  -->
<svg version="1.1" id="Layer_1" xmlns="http://www.w3.org/2000/svg" xmlns:xlink="http://www.w3.org/1999/xlink" x="0px" y="0px"
	 viewBox="0 0 660 1143.2" style="enable-background:new 0 0 660 1143.2;" xml:space="preserve">
<style type="text/css">
	.st0{fill:#d8af4b;}
</style>
<polygon class="st0" points="300,727.5 300,727.5 240,692.9 180,658.2 120,623.6 60,588.9 60,519.7 120,554.3 180,588.9 240,623.6 
	300,658.2 300,658.2 300,589 300,588.9 240,554.3 180,519.7 120,485 60,450.4 60,450.4 60,450.4 0,415.8 0,485 0,485 0,554.3 
	0,623.6 60,658.2 120,692.9 180,727.5 240,762.2 240,831.4 180,796.8 180,796.8 120,762.2 120,762.2 60,727.5 60,727.5 0,692.9 
	0,762.1 0,762.2 0,762.2 60,796.8 60,796.8 120,831.4 120,831.4 180,866.1 240,900.7 300,935.4 300,935.4 300,866.1 300,866.1 
	300,866.1 300,796.8 300,796.8 "/>
</svg>
