<?xml version="1.0" encoding="utf-8"?>
<!-- Generator: Adobe Illustrator 25.2.0, SVG Export Plug-In . SVG Version: 6.00 Build 0)  -->
<svg version="1.1" id="Layer_1" xmlns="http://www.w3.org/2000/svg" xmlns:xlink="http://www.w3.org/1999/xlink" x="0px" y="0px"
	 viewBox="0 0 660 1143.2" style="enable-background:new 0 0 660 1143.2;" xml:space="preserve">
<style type="text/css">
	.st0{fill:#D84B4F;}
</style>
<polygon class="st0" points="300,727.2 300,657.9 300,657.9 300,588.6 300,588.6 240,554 180,519.4 120,484.7 60,450.1 60,450.1 
	0,415.4 0,484.7 0,484.7 60,519.4 120,554 180,588.6 240,623.3 240,692.6 180,657.9 180,727.2 240,761.8 240,831.1 240,900.4 
	300,935.1 300,935 300,865.8 300,865.8 300,865.8 300,796.5 "/>
</svg>
