<?xml version="1.0" encoding="utf-8"?>
<!-- Generator: Adobe Illustrator 25.2.0, SVG Export Plug-In . SVG Version: 6.00 Build 0)  -->
<svg version="1.1" id="Layer_1" xmlns="http://www.w3.org/2000/svg" xmlns:xlink="http://www.w3.org/1999/xlink" x="0px" y="0px"
	 viewBox="0 0 660 1143.2" style="enable-background:new 0 0 660 1143.2;" xml:space="preserve">
<style type="text/css">
	.st0{fill:#d8af4b;}
</style>
<polygon class="st0" points="660,935.2 660,865.9 660,865.9 660,796.6 660,796.6 600,762 540,727.4 480,692.7 420,658.1 420,658.1 
	360,623.4 360,692.7 360,692.7 420,727.4 480,762 540,796.6 600,831.3 600,900.6 540,865.9 540,935.2 600,969.8 600,1039.1 
	600,1108.4 660,1143.1 660,1143 660,1073.8 660,1073.8 660,1073.8 660,1004.5 "/>
</svg>
