<?xml version="1.0" encoding="utf-8"?>
<!-- Generator: Adobe Illustrator 25.2.0, SVG Export Plug-In . SVG Version: 6.00 Build 0)  -->
<svg version="1.1" id="Layer_1" xmlns="http://www.w3.org/2000/svg" xmlns:xlink="http://www.w3.org/1999/xlink" x="0px" y="0px"
	 viewBox="0 0 660 1143.2" style="enable-background:new 0 0 660 1143.2;" xml:space="preserve">
<style type="text/css">
	.st0{fill:#d8af4b;}
</style>
<path class="st0" d="M300,381.2v-69.3l0,0v-69.3l0,0v-69.3l0,0l-60-34.6l0,0L180,104l0,0l-60-34.6L60,34.8l0,0L0,0.1v69.3l0,0l0,0
	v69.3l0,0V208l0,0l60,34.6l60,34.6l60,34.6l60,34.6v69.3l0,0l-60-34.6l-60-34.6l-60-34.6L0,277.3v69.3l0,0l60,34.6l0,0l0,0l60,34.6
	l0,0l0,0l60,34.6l0,0l60,34.6l60,34.6l0,0v-69.3V381.2L300,381.2z M180,242.6L120,208l0,0l-60-34.6l0,0v-69.3l60,34.6l0,0l60,34.6
	l0,0l60,34.6v69.3L180,242.6z"/>
</svg>
