<?xml version="1.0" encoding="utf-8"?>
<!-- Generator: Adobe Illustrator 25.2.0, SVG Export Plug-In . SVG Version: 6.00 Build 0)  -->
<svg version="1.1" id="Layer_1" xmlns="http://www.w3.org/2000/svg" xmlns:xlink="http://www.w3.org/1999/xlink" x="0px" y="0px"
	 viewBox="0 0 660 1143.2" style="enable-background:new 0 0 660 1143.2;" xml:space="preserve">
<style type="text/css">
	.st0{fill:#D84B4F;}
</style>
<path class="st0" d="M660,1004.2v-69.3l0,0v-69.3l0,0v-69.3l0,0l-60-34.6l0,0L540,727l0,0l-60-34.6l-60-34.6l0,0l-60-34.6v69.3l0,0
	l0,0v69.3l0,0v69.3l0,0l60,34.6l60,34.6l60,34.6l60,34.6v69.3l0,0l-60-34.6l-60-34.6L420,935l-60-34.6v69.3l0,0l60,34.6l0,0l0,0
	l60,34.6l0,0l0,0l60,34.6l0,0l60,34.6l60,34.6l0,0v-69.3V1004.2L660,1004.2z M540,865.6L480,831l0,0l-60-34.6l0,0v-69.3l60,34.6l0,0
	l60,34.6l0,0l60,34.6v69.3L540,865.6z"/>
</svg>
