<?xml version="1.0" encoding="utf-8"?>
<!-- Generator: Adobe Illustrator 25.2.0, SVG Export Plug-In . SVG Version: 6.00 Build 0)  -->
<svg version="1.1" id="Layer_1" xmlns="http://www.w3.org/2000/svg" xmlns:xlink="http://www.w3.org/1999/xlink" x="0px" y="0px"
	 viewBox="0 0 660 1143.2" style="enable-background:new 0 0 660 1143.2;" xml:space="preserve">
<style type="text/css">
	.st0{fill:#d8af4b;}
</style>
<polygon class="st0" points="300,450.7 240,416.1 240,346.8 240,277.5 240,208.2 240,138.9 180,104.3 120,69.6 60,35 60,104.3 
	120,138.9 180,173.6 180,242.8 180,312.1 180,312.1 180,381.4 180,381.4 120,346.8 120,346.8 60,312.1 60,312.1 0,277.5 0,346.8 
	0,346.8 60,381.4 60,381.4 120,416.1 180,450.7 180,450.7 240,485.3 240,485.3 300,520 300,520 "/>
</svg>
