<?xml version="1.0" encoding="utf-8"?>
<!-- Generator: Adobe Illustrator 25.2.0, SVG Export Plug-In . SVG Version: 6.00 Build 0)  -->
<svg version="1.1" id="Layer_1" xmlns="http://www.w3.org/2000/svg" xmlns:xlink="http://www.w3.org/1999/xlink" x="0px" y="0px"
	 viewBox="0 0 660 1143.2" style="enable-background:new 0 0 660 1143.2;" xml:space="preserve">
<style type="text/css">
	.st0{fill:#d8af4b;}
</style>
<polygon class="st0" points="300,865.7 240,831.1 240,761.8 240,692.5 240,623.2 240,553.9 180,519.3 120,484.6 60,450 60,519.3 
	120,553.9 180,588.6 180,657.8 180,727.1 180,727.1 180,796.4 180,796.4 120,761.8 120,761.8 60,727.1 60,727.1 0,692.5 0,761.8 
	0,761.8 60,796.4 60,796.4 120,831.1 180,865.7 180,865.7 240,900.3 240,900.3 300,935 300,935 "/>
</svg>
