<?xml version="1.0" encoding="utf-8"?>
<!-- Generator: Adobe Illustrator 25.2.0, SVG Export Plug-In . SVG Version: 6.00 Build 0)  -->
<svg version="1.1" id="Layer_1" xmlns="http://www.w3.org/2000/svg" xmlns:xlink="http://www.w3.org/1999/xlink" x="0px" y="0px"
	 viewBox="0 0 660 1143.1" style="enable-background:new 0 0 660 1143.1;" xml:space="preserve">
<style type="text/css">
	.st0{fill:#d8af4b;}
</style>
<path id="_x30_" class="st0" d="M360,242.7L360,242.7V312l0,0v69.3l0,0v69.3l0,0v69.3l60-34.6l0,0l60-34.6l0,0l60-34.6l0,0l60-34.6
	l60-34.6v-69.3l0,0v-69.3V139V69.7l0,0V0.4L600,35l0,0l-60,34.6l0,0l-60,34.6l-60,34.6l0,0l0,0l-60,34.6l0,0V242.7z M480,381.2
	l-60,34.6v-69.3l0,0v-69.3l60,34.6l0,0l0,0l60,34.6L480,381.2L480,381.2z M420,208l60-34.6l0,0l60-34.6l60-34.6v69.3v69.3l0,0v69.3
	l0,0l-60-34.6l0,0l0,0l-60-34.6l0,0l0,0L420,208L420,208L420,208z"/>
</svg>
