<?xml version="1.0" encoding="utf-8"?>
<!-- Generator: Adobe Illustrator 25.2.0, SVG Export Plug-In . SVG Version: 6.00 Build 0)  -->
<svg version="1.1" id="Layer_1" xmlns="http://www.w3.org/2000/svg" xmlns:xlink="http://www.w3.org/1999/xlink" x="0px" y="0px"
	 viewBox="0 0 660 1143.1" style="enable-background:new 0 0 660 1143.1;" xml:space="preserve">
<style type="text/css">
	.st0{fill:#d8af4b;}
</style>
<polygon id="_x32_" class="st0" points="300,484.6 240,519.3 240,519.3 180,553.9 180,553.9 120,588.5 120,588.5 60,623.2 60,553.9 
	120,519.3 120,519.2 180,484.6 180,484.6 240,450 240,450 300,415.3 300,415.3 300,346 300,276.8 300,207.5 240,242.1 180,276.8 
	120,311.4 120,311.4 120,311.4 60,346 0,380.7 0,450 60,415.3 120,380.7 120,380.7 180,346.1 180,346 240,311.4 240,380.7 
	240,380.7 240,380.7 180,415.3 180,415.3 180,415.3 120,450 120,450 120,450 60,484.6 0,519.3 0,588.5 0,657.8 0,657.8 0,657.8 
	0,727.1 60,692.5 60,692.5 120,657.8 120,657.8 180,623.2 180,623.2 240,588.5 240,588.5 300,553.9 300,553.9 "/>
</svg>
