<?xml version="1.0" encoding="utf-8"?>
<!-- Generator: Adobe Illustrator 25.2.0, SVG Export Plug-In . SVG Version: 6.00 Build 0)  -->
<svg version="1.1" id="Layer_1" xmlns="http://www.w3.org/2000/svg" xmlns:xlink="http://www.w3.org/1999/xlink" x="0px" y="0px"
	 viewBox="0 0 660 1143.1" style="enable-background:new 0 0 660 1143.1;" xml:space="preserve">
<style type="text/css">
	.st0{fill:#d8af4b;}
</style>
<polygon id="_x34_" class="st0" points="0,519.4 0,588.7 60,554 60,554 120,519.4 120,519.4 180,484.8 180,484.8 240,450.1 
	240,450.1 240,450.1 240,519.4 240,519.4 240,588.7 300,554 300,484.8 300,484.8 300,415.5 300,415.5 300,346.2 300,276.9 
	300,207.6 240,242.3 240,242.3 240,311.6 240,380.8 240,380.8 180,415.5 180,415.5 120,450.1 120,450.1 60,484.8 60,484.8 60,484.8 
	60,484.8 60,415.5 60,415.5 60,415.5 60,346.2 60,346.2 0,380.8 0,450.1 "/>
</svg>
