<?xml version="1.0" encoding="utf-8"?>
<!-- Generator: Adobe Illustrator 25.2.0, SVG Export Plug-In . SVG Version: 6.00 Build 0)  -->
<svg version="1.1" id="Layer_1" xmlns="http://www.w3.org/2000/svg" xmlns:xlink="http://www.w3.org/1999/xlink" x="0px" y="0px"
	 viewBox="0 0 660 1143.1" style="enable-background:new 0 0 660 1143.1;" xml:space="preserve">
<style type="text/css">
	.st0{fill:#d8af4b;}
</style>
<polygon id="_x34_" class="st0" points="360,727.4 360,796.7 420,762 420,762 480,727.4 480,727.4 540,692.8 540,692.8 600,658.1 
	600,658.1 600,658.1 600,727.4 600,727.4 600,796.7 660,762 660,692.8 660,692.8 660,623.5 660,623.5 660,554.2 660,484.9 
	660,415.6 600,450.3 600,450.3 600,519.6 600,588.8 600,588.8 540,623.5 540,623.5 480,658.1 480,658.1 420,692.8 420,692.8 
	420,692.8 420,692.8 420,623.5 420,623.5 420,623.5 420,554.2 420,554.2 360,588.8 360,658.1 "/>
</svg>
