<?xml version="1.0" encoding="utf-8"?>
<!-- Generator: Adobe Illustrator 25.2.0, SVG Export Plug-In . SVG Version: 6.00 Build 0)  -->
<svg version="1.1" id="Layer_1" xmlns="http://www.w3.org/2000/svg" xmlns:xlink="http://www.w3.org/1999/xlink" x="0px" y="0px"
	 viewBox="0 0 660 1143.1" style="enable-background:new 0 0 660 1143.1;" xml:space="preserve">
<style type="text/css">
	.st0{fill:#d8af4b;}
</style>
<path id="_x39_" class="st0" d="M300,831.2L300,831.2L300,831.2v-69.3v-69.3v-69.3L240,658l-60,34.6l0,0l-60,34.6l0,0l0,0l-60,34.6
	l0,0l0,0L0,796.5l0,0v69.3l0,0v69.3v69.3l60-34.6l60-34.6l60-34.6l0,0l60-34.6l0,0v69.3l-60,34.6l-60,34.6L60,1039l-60,34.6l0,0
	v69.3l60-34.6l60-34.6l60-34.6l60-34.6l60-34.6v-69.3l0,0l0,0V831.2z M60,900.5L60,900.5v-69.3l0,0l0,0l60-34.6l0,0l60-34.6l0,0
	l60-34.6v69.3l0,0l-60,34.6l0,0l-60,34.6l0,0L60,900.5L60,900.5L60,900.5z"/>
</svg>
